<svg xmlns="http://www.w3.org/2000/svg" width="60" height="60" viewBox="0 0 60 60">
    <defs>
        <clipPath id="4lgrh3x2ma">
            <path data-name="사각형 340944" style="fill:none" d="M0 0h44.268v46.467H0z"/>
        </clipPath>
    </defs>
    <path style="fill:transparent" d="M0 0h60v60H0z"/>
    <g data-name="그룹 464276" style="clip-path:url(#4lgrh3x2ma)" transform="translate(9 7)">
        <path data-name="패스 70019" d="M20.6 2h0a9.049 9.049 0 0 0-9.023 9.023v10a6.41 6.41 0 0 0 6.391 6.392h5.262a6.41 6.41 0 0 0 6.391-6.392v-10A9.049 9.049 0 0 0 20.6 2z" transform="translate(-2.075 -.5)" style="stroke-linecap:round;stroke-linejoin:round;stroke-width:2px;stroke:#191919;fill:none"/>
        <path data-name="패스 70020" d="M23.74 47.358H5.75A3.75 3.75 0 0 1 2 43.608v-20.12a3.75 3.75 0 0 1 3.75-3.75h24.908a3.75 3.75 0 0 1 3.75 3.75v4.37" transform="translate(-.5 -4.934)" style="fill:#fff"/>
        <path data-name="패스 871429" d="M22.636 28 9.1 27.781A7.928 7.928 0 0 1 1 20.038V8.743A7.928 7.928 0 0 1 9.1 1h16.8A7.929 7.929 0 0 1 34 8.743v.8h0" transform="translate(0 14)" style="stroke-linecap:round;stroke-linejoin:round;stroke-width:2px;stroke:#191919;fill:none"/>
        <path data-name="패스 70022" d="M45.21 38.348v9.913" transform="translate(-11.303 -9.587)" style="fill:#fff"/>
        <path data-name="패스 70024" d="M19.023 32.278a2.76 2.76 0 1 1 2.76 2.76 2.761 2.761 0 0 1-2.76-2.76" transform="translate(-3.023 -6.232)" style="fill:#191919"/>
        <path data-name="선 455" transform="translate(18.5 28.256)" style="stroke-linecap:round;stroke-linejoin:round;stroke-width:2px;stroke:#191919;fill:none" d="M0 0v4.281"/>
        <circle data-name="타원 31" cx="7.457" cy="7.457" r="7.457" transform="translate(26.863 28.469)" style="fill:#fff"/>
        <circle data-name="타원 32" cx="7.457" cy="7.457" r="7.457" transform="translate(26.863 28.76)" style="stroke:#1f1f1f;stroke-linecap:round;stroke-linejoin:round;stroke-width:2px;fill:none"/>
        <path data-name="선 456" transform="translate(39.394 41.885)" style="stroke:#1f1f1f;stroke-linecap:round;stroke-linejoin:round;stroke-width:2px;fill:none" d="m0 0 3.374 3.374"/>
    </g>
</svg>
