<svg xmlns="http://www.w3.org/2000/svg" width="80" height="80" viewBox="0 0 80 80">
    <defs>
        <filter id="hw5rr25xba" x="17" y="6" width="46" height="72" filterUnits="userSpaceOnUse">
            <feOffset dy="2"/>
            <feGaussianBlur stdDeviation="1" result="blur"/>
            <feFlood flood-opacity=".102"/>
            <feComposite operator="in" in2="blur"/>
            <feComposite in="SourceGraphic"/>
        </filter>
        <filter id="h7hbictbmb" x="24" y="30" width="32" height="32" filterUnits="userSpaceOnUse">
            <feOffset dy="2"/>
            <feGaussianBlur stdDeviation="1" result="blur-2"/>
            <feFlood flood-opacity=".102"/>
            <feComposite operator="in" in2="blur-2"/>
            <feComposite in="SourceGraphic"/>
        </filter>
    </defs>
    <g data-name="그룹 486206">
        <g data-name="그룹 486199">
            <g data-name="그룹 486198">
                <g data-name="그룹 484205">
                    <g data-name="그룹 484204">
                        <g style="filter:url(#hw5rr25xba)">
                            <rect data-name="사각형 348906" width="40" height="66" rx="10" transform="translate(19.997 7.003)" style="fill:#d2d5e8"/>
                        </g>
                        <path data-name="선 126776" transform="translate(37 14.001)" style="stroke:#fff;fill:none;stroke-linecap:round;stroke-linejoin:round;stroke-width:3px" d="M0 0h6"/>
                        <g data-name="그룹 486317">
                            <g style="filter:url(#h7hbictbmb)">
                                <circle data-name="타원 24" cx="13" cy="13" r="13" transform="translate(27 31)" style="fill:#f76bb8"/>
                            </g>
                            <path data-name="패스 862739" d="M-1.25-13.02a2.675 2.675 0 0 0-.28 1.26v6.7c0 .5-.02 1 0 1.46a4.624 4.624 0 0 0 .14.94c.36.86 2.28.92 2.64.02a4.506 4.506 0 0 0 .14-1.56v-5.9c0-.86.3-3.06-.82-3.36a3.778 3.778 0 0 0-.84-.06 1.2 1.2 0 0 0-.98.5zM1.05-.16A1.8 1.8 0 0 0-.33-.48a.912.912 0 0 0-.94.52 2.065 2.065 0 0 0 .02 1.3c.26.7 1.38.8 1.96.56A1.335 1.335 0 0 0 1.25.24a1.251 1.251 0 0 0-.2-.4z" transform="translate(40 50)" style="fill:#fff;stroke-width:.3px;stroke:#fff"/>
                        </g>
                    </g>
                </g>
            </g>
        </g>
    </g>
</svg>
