<svg xmlns="http://www.w3.org/2000/svg" width="124.5" height="134.5" viewBox="0 0 124.5 134.5">
    <defs>
        <filter id="oeo3jabdqa" x="4.5" y="39.499" width="99" height="75" filterUnits="userSpaceOnUse">
            <feOffset dy="5"/>
            <feGaussianBlur stdDeviation="2.5" result="blur"/>
            <feFlood flood-opacity=".051"/>
            <feComposite operator="in" in2="blur"/>
            <feComposite in="SourceGraphic"/>
        </filter>
        <filter id="ej2y0fqzab" x="61.5" y="71.5" width="63" height="63" filterUnits="userSpaceOnUse">
            <feOffset dy="5"/>
            <feGaussianBlur stdDeviation="2.5" result="blur-2"/>
            <feFlood flood-opacity=".102"/>
            <feComposite operator="in" in2="blur-2"/>
            <feComposite in="SourceGraphic"/>
        </filter>
    </defs>
    <g data-name="그룹 484278">
        <path data-name="패스 862557" d="M92 54.019v-19.01a19 19 0 1 1 38 0V56" transform="translate(-57 -7)" style="stroke-linecap:round;stroke:#d2d5e8;stroke-width:8px;opacity:.8;fill:none;stroke-linejoin:round"/>
        <g style="filter:url(#oeo3jabdqa)">
            <rect data-name="사각형 348925" width="84" height="60" rx="12" transform="translate(12 42)" style="fill:#aeaae8"/>
        </g>
        <g data-name="그룹 484237">
            <g style="filter:url(#ej2y0fqzab)">
                <path data-name="bg" d="M135.645 93.353a24 24 0 1 0-24 24 24 24 0 0 0 24-24z" transform="translate(-18.64 4.65)" style="fill:#42ccb0"/>
            </g>
            <g data-name="그룹 484238">
                <path data-name="패스 862526" d="M-1.352-1.458 4.892 4.91" transform="translate(85.451 99.675)" style="stroke:#fff;stroke-width:6px;fill:#42ccb0;stroke-linecap:round"/>
                <path data-name="선 443" transform="translate(90.34 92.667)" style="stroke:#fff;stroke-width:6px;stroke-linecap:round;fill:none;stroke-linejoin:round" d="M12.425 0 0 11.918"/>
            </g>
        </g>
        <path data-name="알뜰모바일 뉴다이렉트몰 (H1)" d="m9.537 20.63-.252-4.543 3.815 2.492 1.325-2.3-4.038-2.051 4.038-2.082L13.1 9.84l-3.815 2.492.252-4.543H6.855l.252 4.543L3.29 9.84l-1.357 2.3L6 14.225l-4.07 2.051 1.357 2.3 3.818-2.492-.25 4.546zm16.044 0-.252-4.543 3.818 2.492 1.325-2.3-4.038-2.051 4.038-2.082-1.325-2.3-3.818 2.492.252-4.543H22.9l.252 4.543-3.818-2.498-1.357 2.3 4.07 2.082-4.07 2.051 1.357 2.3 3.818-2.492-.252 4.549zm16.044 0-.252-4.543 3.818 2.492 1.325-2.3-4.038-2.051 4.038-2.082-1.325-2.3-3.818 2.492.252-4.543h-2.681l.252 4.543-3.818-2.498-1.357 2.3 4.07 2.082-4.07 2.051 1.357 2.3 3.822-2.486-.252 4.543zm16.044 0-.252-4.543 3.818 2.492 1.325-2.3-4.038-2.051 4.038-2.082-1.325-2.3-3.818 2.492.252-4.543h-2.681l.252 4.543-3.818-2.498-1.357 2.3 4.07 2.082-4.07 2.051 1.357 2.3 3.818-2.492-.252 4.543z" transform="translate(21.754 49.789)" style="fill:#fff"/>
    </g>
</svg>
