<svg xmlns="http://www.w3.org/2000/svg" width="80" height="83" viewBox="0 0 80 83">
    <defs>
        <filter id="unfs8jmxaa" x="11" y="3" width="46" height="72" filterUnits="userSpaceOnUse">
            <feOffset dy="2"/>
            <feGaussianBlur stdDeviation="1" result="blur"/>
            <feFlood flood-opacity=".102"/>
            <feComposite operator="in" in2="blur"/>
            <feComposite in="SourceGraphic"/>
        </filter>
        <filter id="mb33hhvbrb" x="33" y="45" width="38" height="38" filterUnits="userSpaceOnUse">
            <feOffset dy="2"/>
            <feGaussianBlur stdDeviation="1" result="blur-2"/>
            <feFlood flood-opacity=".102"/>
            <feComposite operator="in" in2="blur-2"/>
            <feComposite in="SourceGraphic"/>
        </filter>
    </defs>
    <path data-name="사각형 340932" transform="translate(20.127 6.898)" style="fill:none" d="M0 0h46.689v66.898H0z"/>
    <g data-name="그룹 484269">
        <g data-name="그룹 484268">
            <g style="filter:url(#unfs8jmxaa)">
                <rect data-name="사각형 350226" width="40" height="66" rx="10" transform="translate(14 3.996)" style="fill:#e3e6f9"/>
            </g>
            <path data-name="선 126807" transform="translate(31 11)" style="stroke:#fff;stroke-linecap:round;stroke-linejoin:round;stroke-width:3px;fill:none" d="M0 0h6"/>
            <g data-name="그룹 486249">
                <path data-name="합치기 45" d="m2.209 24-.452-.009a1.966 1.966 0 0 1 .061-3.91l.453.009A1.968 1.968 0 0 1 2.24 24zM0 15.615V1.986a1.986 1.986 0 0 1 3.973 0v13.629a1.986 1.986 0 1 1-3.973 0z" transform="translate(32 23)" style="fill:#aeaae8"/>
            </g>
            <g data-name="그룹 486250">
                <g style="filter:url(#mb33hhvbrb)">
                    <path data-name="bg" d="M119.645 85.353a16 16 0 1 0-16 16 16 16 0 0 0 16-16z" transform="translate(-51.643 -23.346)" style="fill:#42ccb0"/>
                </g>
                <g data-name="그룹 484099">
                    <path data-name="선 442" transform="translate(45.725 62.178)" style="stroke:#fff;stroke-linecap:round;stroke-linejoin:round;stroke-width:3px;fill:none" d="m0 0 3.688 3.688"/>
                    <path data-name="선 443" transform="translate(49.411 57.569)" style="stroke:#fff;stroke-linecap:round;stroke-linejoin:round;stroke-width:3px;fill:none" d="M8.297 0 0 8.297"/>
                </g>
            </g>
        </g>
    </g>
</svg>
