<svg xmlns="http://www.w3.org/2000/svg" width="80" height="80" viewBox="0 0 80 80">
    <g transform="translate(-549 -947)">
        <circle data-name="타원 8425" cx="40" cy="40" r="40" transform="translate(549 947)" style="fill:#f6f6f6"/>
        <path transform="translate(571 969)" style="fill:none" d="M0 0h36v36H0z"/>
        <g data-name="그룹 464681">
            <g data-name="패스 70056" style="stroke-linejoin:round;fill:#f6f6f6">
                <path d="M11.925 28.586a63.469 63.469 0 0 1-5.21-5.493C2.975 18.613 1 14.732 1 11.868c0-3.326 1.098-6.11 3.176-8.052C6.12 2 8.872 1 11.927 1c3.045 0 5.797 1.01 7.75 2.843 2.078 1.952 3.177 4.727 3.177 8.025 0 2.833-1.976 6.705-5.715 11.197a64.584 64.584 0 0 1-5.214 5.52z" style="stroke:none" transform="translate(576.964 972.201)"/>
                <path d="M11.927 2c-2.801 0-5.311.904-7.068 2.546C2.989 6.294 2 8.826 2 11.868c0 1.389.541 3.088 1.608 5.05.92 1.693 2.219 3.548 3.858 5.514a61.934 61.934 0 0 0 4.457 4.773 63.017 63.017 0 0 0 4.463-4.799c1.64-1.972 2.94-3.83 3.86-5.521 1.067-1.958 1.608-3.646 1.608-5.017 0-3.015-.99-5.538-2.862-7.296C17.226 2.913 14.717 2 11.927 2m0-2c6.587 0 11.927 4.347 11.927 11.868 0 7.52-11.927 18.074-11.927 18.074S0 19.464 0 11.868C0 4.27 5.34 0 11.927 0z" style="fill:#191919;stroke:none" transform="translate(576.964 972.201)"/>
            </g>
            <g data-name="타원 8423" transform="translate(583.673 978.313)" style="stroke:#191919;stroke-width:2px;fill:#f6f6f6">
                <circle cx="5.218" cy="5.218" r="5.218" style="stroke:none"/>
                <circle cx="5.218" cy="5.218" r="4.218" style="fill:none"/>
            </g>
        </g>
    </g>
</svg>
