<svg xmlns="http://www.w3.org/2000/svg" width="80" height="80" viewBox="0 0 80 80">
    <defs>
        <filter id="m1axgosgga" x="17" y="6" width="46" height="72" filterUnits="userSpaceOnUse">
            <feOffset dy="2"/>
            <feGaussianBlur stdDeviation="1" result="blur"/>
            <feFlood flood-opacity=".102"/>
            <feComposite operator="in" in2="blur"/>
            <feComposite in="SourceGraphic"/>
        </filter>
        <filter id="tzirgsoblb" x="9" y="41" width="62" height="27" filterUnits="userSpaceOnUse">
            <feOffset dy="2"/>
            <feGaussianBlur stdDeviation="1" result="blur-2"/>
            <feFlood flood-opacity=".102"/>
            <feComposite operator="in" in2="blur-2"/>
            <feComposite in="SourceGraphic"/>
        </filter>
    </defs>
    <g data-name="그룹 486206">
        <g data-name="그룹 486199">
            <g data-name="그룹 486198">
                <g data-name="그룹 484205">
                    <g data-name="그룹 484204">
                        <g style="filter:url(#m1axgosgga)">
                            <rect data-name="사각형 348906" width="40" height="66" rx="10" transform="translate(19.997 7.003)" style="fill:#e3e6f9"/>
                        </g>
                        <path data-name="선 126776" transform="translate(37 14.001)" style="fill:none;stroke:#fff;stroke-linecap:round;stroke-linejoin:round;stroke-width:2px" d="M0 0h6"/>
                    </g>
                </g>
            </g>
        </g>
        <g data-name="그룹 486205">
            <path data-name="합치기 29" d="M1.8 15A1.8 1.8 0 0 1 0 13.2v-1.024a6 6 0 0 1 4.116-5.7A3.553 3.553 0 0 1 2.572 3.53 3.48 3.48 0 0 1 6 0a3.48 3.48 0 0 1 3.428 3.53 3.553 3.553 0 0 1-1.544 2.949A6 6 0 0 1 12 12.176V13.2a1.8 1.8 0 0 1-1.8 1.8z" transform="translate(34 23)" style="fill:#aeaae8;stroke:transparent;stroke-miterlimit:10"/>
        </g>
        <g data-name="icon">
            <g style="filter:url(#tzirgsoblb)">
                <rect data-name="사각형 341203" width="56" height="21" rx="8" transform="translate(12 42)" style="fill:#6f98f8"/>
            </g>
            <path data-name="알뜰모바일 뉴다이렉트몰 (H1)" d="m6.95 15.789-.167-2.83L9.3 14.511l.874-1.435L7.512 11.8l2.664-1.3L9.3 9.067 6.784 10.62l.167-2.83h-1.77l.167 2.83-2.519-1.553-.9 1.435 2.685 1.3-2.68 1.275.9 1.435 2.519-1.553-.167 2.83zm10.586 0-.167-2.83 2.519 1.553.874-1.435L18.1 11.8l2.664-1.3-.874-1.435-2.521 1.555.167-2.83h-1.769l.167 2.83-2.52-1.553-.9 1.435L15.2 11.8l-2.685 1.278.9 1.435 2.519-1.553-.167 2.83zm10.586 0-.167-2.83 2.519 1.553.874-1.435-2.664-1.277 2.664-1.3-.874-1.435-2.519 1.555.167-2.83h-1.77l.167 2.83L24 9.067l-.9 1.433 2.685 1.3-2.685 1.277.9 1.435 2.519-1.553-.167 2.83zm10.586 0-.167-2.83 2.519 1.553.874-1.435-2.665-1.277 2.664-1.3-.874-1.435-2.518 1.555.167-2.83h-1.77l.167 2.83-2.52-1.553-.9 1.435 2.685 1.3-2.68 1.275.9 1.435 2.51-1.553-.167 2.83z" transform="translate(18.067 41.211)" style="fill:#fff"/>
        </g>
    </g>
</svg>
