<svg xmlns="http://www.w3.org/2000/svg" width="40" height="40" viewBox="0 0 40 40">
    <g data-name="그룹 492588">
        <g data-name="그룹 484269">
            <g data-name="그룹 484268" transform="translate(9.261 4.911)">
                <rect data-name="사각형 350226" width="18" height="26" rx="4" transform="translate(-.261 .088)" style="stroke:#191919;stroke-width:1.5px;fill:#fff"/>
                <path data-name="선 126807" transform="translate(7.238 3.087)" style="fill:none;stroke-linecap:round;stroke-linejoin:round;stroke:#191919;stroke-width:1.5px" d="M0 0h3"/>
                <g data-name="그룹 492587">
                    <path d="M101.645 76.353a7 7 0 1 0-7 7 7 7 0 0 0 7-7z" transform="rotate(-90 29.559 89.172)" style="stroke:#191919;stroke-width:1.5px;fill:#fff"/>
                    <g data-name="그룹 484163">
                        <g data-name="그룹 484115">
                            <path data-name="패스 862496" d="M554.405 438.367c.078.007 5.25 0 5.25 0l-1.039-.96" transform="rotate(-90 78.696 502.42)" style="fill:none;stroke-linecap:round;stroke-linejoin:round;stroke:#191919;stroke-width:1.5px"/>
                            <path data-name="패스 862497" d="M554.405 437.41c.078-.007 5.25 0 5.25 0l-1.039.96" transform="rotate(-90 79.178 501.939)" style="fill:none;stroke-linecap:round;stroke-linejoin:round;stroke:#191919;stroke-width:1.5px"/>
                        </g>
                        <g data-name="그룹 484116">
                            <path data-name="패스 862496" d="M559.655 438.367c-.078.007-5.25 0-5.25 0l1.039-.96" transform="rotate(-90 80.79 500.327)" style="fill:none;stroke-linecap:round;stroke-linejoin:round;stroke:#191919;stroke-width:1.5px"/>
                            <path data-name="패스 862497" d="M559.655 437.41c-.078-.007-5.25 0-5.25 0l1.039.96" transform="rotate(-90 81.271 499.845)" style="fill:none;stroke-linecap:round;stroke-linejoin:round;stroke:#191919;stroke-width:1.5px"/>
                        </g>
                    </g>
                </g>
            </g>
        </g>
    </g>
</svg>
