<svg xmlns="http://www.w3.org/2000/svg" width="80" height="80" viewBox="0 0 80 80">
    <defs>
        <filter id="i4z4maxa2a" x="9" y="11" width="62" height="62" filterUnits="userSpaceOnUse">
            <feOffset dy="2"/>
            <feGaussianBlur stdDeviation="1" result="blur"/>
            <feFlood flood-opacity=".102"/>
            <feComposite operator="in" in2="blur"/>
            <feComposite in="SourceGraphic"/>
        </filter>
    </defs>
    <g data-name="그룹 484408">
        <g style="filter:url(#i4z4maxa2a)">
            <circle data-name="타원 8766" cx="28" cy="28" r="28" transform="translate(12 12)" style="fill:#f76bb8"/>
        </g>
        <path data-name="알뜰모바일 뉴다이렉트몰 (H1)" d="M17.028-20.124a10.716 10.716 0 0 0-1.044-.72 5.773 5.773 0 0 0-1.26-.54 4.256 4.256 0 0 0-1.26-.4c-.432-.072-.828-.144-1.3-.216-.576-.072-1.152-.144-1.728-.18-.54-.036-1.116-.072-1.764-.144a35.543 35.543 0 0 0-4.752.072h-.068a2.321 2.321 0 0 0-1.692.468 1.645 1.645 0 0 0-.4.576c-.072.252-.144.54-.216.792a6.844 6.844 0 0 0-.108.9V.4a4.118 4.118 0 0 0 .4 1.764 1.62 1.62 0 0 0 1.4.972 3.455 3.455 0 0 0 2.016-.216c.936-.54.972-1.62 1.116-2.52v-7.456a8.773 8.773 0 0 1 .972-.036c.9-.036 1.476-.072 2.484-.144a17.652 17.652 0 0 0 5.94-1.26 5.814 5.814 0 0 0 3.78-5.148 8.181 8.181 0 0 0-2.516-6.48zm-2.16 5.94c-.252 2.7-3.96 3.06-6.264 3.1l-2.232.036c0-.828 0-1.692.036-2.556 0-1.584 0-2.88-.036-4.356a7.573 7.573 0 0 1 1.008.036c.54.036 2.268.072 2.808.108 2.34.284 4.824 1.292 4.68 3.632z" transform="translate(30.452 50.766)" style="fill:#fff"/>
    </g>
</svg>
