<svg xmlns="http://www.w3.org/2000/svg" width="80" height="80" viewBox="0 0 80 80">
  <g id="ico-pin-cu-gray" transform="translate(-569 -924.781)">
    <rect id="전화_icon" width="80" height="80" transform="translate(569 924.781)" fill="none"/>
    <g id="그룹_492576" data-name="그룹 492576" transform="translate(578.252 922.894)">
      <path id="패스_70056" data-name="패스 70056" d="M30,0C46.569,0,60,11.325,60,30.915S30,78,30,78,0,50.7,0,30.915,13.431,0,30,0Z" transform="translate(0.748 2.888)" fill="#d2d5e8"/>
      <circle id="타원_8423" data-name="타원 8423" cx="25" cy="25" r="25" transform="translate(5.747 7.888)" fill="#fff"/>
      <g id="그룹_493475" data-name="그룹 493475" transform="translate(-9.253 1.986)">
        <g id="그룹_493474" data-name="그룹 493474">
          <g id="그룹_493473" data-name="그룹 493473">
            <path id="패스_871463" data-name="패스 871463" d="M47.6,26.4a1.324,1.324,0,0,0-1.3,1.3v2.9a1.821,1.821,0,1,1-3.6,0V27.7a1.24,1.24,0,0,0-1.2-1.3,1.324,1.324,0,0,0-1.3,1.3v3a4.258,4.258,0,0,0,4.3,4.5,4.387,4.387,0,0,0,3.1-1.3,4.542,4.542,0,0,0,1.2-3.2V27.8a1.272,1.272,0,0,0-1.2-1.4" fill="#652d8d"/>
            <path id="패스_871464" data-name="패스 871464" d="M54.1,39.7a.367.367,0,0,1-.3-.1l-3.4-.9a9.291,9.291,0,0,1-4.6,1.2H34.2a9.3,9.3,0,0,1,0-18.6h4a1,1,0,0,1,0,2h-4a7.3,7.3,0,0,0,0,14.6H45.8a7.655,7.655,0,0,0,3.9-1.1.972.972,0,0,1,.9-.1l2.2.7-.9-1.9a.972.972,0,0,1,.1-.9,7.655,7.655,0,0,0,1.1-3.9,7.341,7.341,0,0,0-7.3-7.3h-4a1,1,0,0,1,0-2h4a9.324,9.324,0,0,1,8.1,13.9L55,38.4a1.093,1.093,0,0,1-.2,1,1.08,1.08,0,0,1-.7.3" fill="#aace37"/>
            <path id="패스_871465" data-name="패스 871465" d="M37.7,31.7a1.086,1.086,0,0,0-.9.4,2,2,0,1,1,0-2.8,1.489,1.489,0,0,0,.9.4,1.086,1.086,0,0,0,.9-.4,1.267,1.267,0,0,0,0-1.8,4.377,4.377,0,0,0-3.2-1.3,4.816,4.816,0,0,0-3.2,1.3,4.468,4.468,0,0,0,0,6.4,4.377,4.377,0,0,0,3.2,1.3,4.626,4.626,0,0,0,3.2-1.3,1.268,1.268,0,0,0,0-1.8,1.8,1.8,0,0,0-.9-.4" fill="#652d8d"/>
          </g>
        </g>
      </g>
    </g>
  </g>
</svg>
