<svg xmlns="http://www.w3.org/2000/svg" xmlns:xlink="http://www.w3.org/1999/xlink" width="80" height="82" viewBox="0 0 80 82">
  <defs>
    <clipPath id="clip-path">
      <rect id="사각형_350233" data-name="사각형 350233" width="38" height="12.002" fill="none"/>
    </clipPath>
  </defs>
  <g id="ico_pin_gs24" transform="translate(-569 -923.781)">
    <rect id="전화_icon" width="80" height="80" transform="translate(569 924.781)" fill="none"/>
    <g id="그룹_492573" data-name="그룹 492573" transform="translate(578.252 922.894)">
      <g id="패스_70056" data-name="패스 70056" transform="translate(0.748 2.888)" fill="#be91fd" stroke-linecap="round" stroke-linejoin="round">
        <path d="M 30.00244522094727 79.35420989990234 L 29.32701110839844 78.73965454101562 C 29.25144386291504 78.67089080810547 21.68371200561523 71.75673675537109 14.22166633605957 62.50612258911133 C 9.826533317565918 57.05754470825195 6.321077823638916 51.86956787109375 3.802655458450317 47.08629989624023 C 0.6158444285392761 41.03356552124023 -1 35.59276580810547 -1 30.9150333404541 C -1 21.23507690429688 2.143711090087891 13.07544422149658 8.091278076171875 7.318233489990234 C 10.87948894500732 4.619266510009766 14.203200340271 2.531155586242676 17.97006607055664 1.111899971961975 C 21.68944358825684 -0.2894555628299713 25.73690032958984 -1 30 -1 C 34.25667953491211 -1 38.30532073974609 -0.2796111106872559 42.03346633911133 1.141166687011719 C 45.79485702514648 2.574611186981201 49.11794281005859 4.678477764129639 51.9104118347168 7.394333362579346 C 54.79051208496094 10.19542217254639 57.03166580200195 13.57875537872314 58.5716438293457 17.45036697387695 C 60.18297958374023 21.50138854980469 61 26.03156661987305 61 30.9150333404541 C 61 35.54773330688477 59.3840446472168 40.96055603027344 56.1970100402832 47.00316619873047 C 53.67886734008789 51.777587890625 50.17378997802734 56.96814346313477 45.77915573120117 62.43065643310547 C 38.31790161132812 71.70496368408203 30.75121116638184 78.66796875 30.67565536499023 78.73722076416016 L 30.00244522094727 79.35420989990234 Z" stroke="none"/>
        <path d="M 30 0 C 13.43145751953125 0 0 11.12631988525391 0 30.91503524780273 C 0 50.70372772216797 30 78 30 78 C 30 78 60 50.50518798828125 60 30.91503524780273 C 60 11.32488250732422 46.56854248046875 0 30 0 M 30 -2 C 34.37883758544922 -2 38.54728317260742 -1.257553100585938 42.38957595825195 0.2067184448242188 C 46.27904510498047 1.688980102539062 49.71688079833984 3.866050720214844 52.60761260986328 6.677467346191406 C 55.58928298950195 9.57733154296875 57.90849304199219 13.07750701904297 59.50083541870117 17.08077621459961 C 61.15916442871094 21.24991607666016 62 25.90443420410156 62 30.91503524780273 C 62 35.71198654174805 60.34518814086914 41.28178787231445 57.08152770996094 47.46968078613281 C 54.53355407714844 52.3006591796875 50.99302291870117 57.54515075683594 46.55830383300781 63.0574951171875 C 39.04951858520508 72.39089202880859 31.66211700439453 79.18959045410156 31.35130500793457 79.47443389892578 C 30.58875465393066 80.17331695556641 29.41909408569336 80.17542266845703 28.65402412414551 79.47930908203125 C 28.34313011169434 79.19643402099609 20.95370483398438 72.44449615478516 13.44332885742188 63.13397598266602 C 9.007621765136719 57.63509368896484 5.466327667236328 52.39262390136719 2.917800903320312 47.55217742919922 C -0.3454132080078125 41.35431671142578 -2 35.75677490234375 -2 30.91503524780273 C -2 25.85902404785156 -1.159366607666016 21.17684555053711 0.4985427856445312 16.99855422973633 C 2.089813232421875 12.98823547363281 4.410377502441406 9.48956298828125 7.395763397216797 6.5997314453125 C 10.28281021118164 3.805084228515625 13.72190475463867 1.643867492675781 17.61749267578125 0.176116943359375 C 21.44996643066406 -1.267845153808594 25.61604690551758 -2 30 -2 Z" stroke="none" fill="#5817b1"/>
      </g>
      <circle id="타원_8423" data-name="타원 8423" cx="25" cy="25" r="25" transform="translate(5.747 7.888)" fill="#fff"/>
      <g id="그룹_492558" data-name="그룹 492558" transform="translate(11.748 26.571)" clip-path="url(#clip-path)">
        <path id="패스_862728" data-name="패스 862728" d="M9.925,10.777V5.146H5.078l.34,2.128H7.426V9.333A3.035,3.035,0,0,1,5.867,9.7c-2,0-3-1.527-3-3.7s.97-3.639,2.966-3.639a5.709,5.709,0,0,1,3.083.989L9.3.854A7.152,7.152,0,0,0,5.766,0C2.2,0,0,2.427,0,6.016,0,9.588,2.029,12,5.7,12a7.615,7.615,0,0,0,4.225-1.224" transform="translate(0 0)" fill="#0065b2" fill-rule="evenodd"/>
        <path id="패스_862729" data-name="패스 862729" d="M30.743,8.38c0-1.843-1-2.715-3.517-3.638-1.443-.551-1.763-.837-1.763-1.427,0-.536.42-.9,1.294-.9a6.325,6.325,0,0,1,3.014.934L30.207.939A7.364,7.364,0,0,0,26.72.168c-2.211,0-3.954,1.187-3.954,3.418,0,1.91,1,2.667,3.318,3.553,1.627.622,1.961.925,1.961,1.577,0,.687-.57,1.039-1.393,1.039a8.231,8.231,0,0,1-3.67-1.071l-.418,2.446A9.505,9.505,0,0,0,26.6,12c2.3,0,4.141-1.1,4.141-3.619" transform="translate(-11.394 -0.085)" fill="#0065b2" fill-rule="evenodd"/>
        <path id="패스_862730" data-name="패스 862730" d="M45.956,7.843C47.29,6.966,49.1,5.825,49.1,3.651c0-2.386-2.021-3.472-3.9-3.472a4.5,4.5,0,0,0-4.091,2.575l2.162,1.012a2.2,2.2,0,0,1,1.742-1.2A1.315,1.315,0,0,1,46.3,3.925c0,.668-.753,1.173-1.69,1.811-1.485,1.012-3.334,2.272-3.334,4.86a6.828,6.828,0,0,0,.121,1.184h7.709V9.462H44.35c0-.508.737-1.048,1.605-1.619" transform="translate(-20.759 -0.09)" fill="#12b5d3"/>
        <path id="패스_862731" data-name="패스 862731" d="M68.277,9.726a1.11,1.11,0,1,1,1.11-1.11,1.112,1.112,0,0,1-1.11,1.11" transform="translate(-33.916 -3.789)" fill="#fff"/>
        <path id="패스_862732" data-name="패스 862732" d="M65.126,7.174a2.287,2.287,0,0,0-.676-.12,1.334,1.334,0,0,0-1.334,1.334A1.32,1.32,0,0,0,63.8,9.552c.185.1.653.246.786.316a1.781,1.781,0,1,1-2.613,1.72l-2.386.519a4.293,4.293,0,1,0,5.539-4.933m-.676,2.1a.887.887,0,1,1,.887-.887.888.888,0,0,1-.887.887" transform="translate(-30.088 -3.562)" fill="#12b5d3"/>
        <path id="패스_862733" data-name="패스 862733" d="M60.611.5l-.47,5.357h2.4l.306-3.045H65.6A2.179,2.179,0,0,0,67.828.5Z" transform="translate(-30.368 -0.252)" fill="#12b5d3"/>
      </g>
    </g>
  </g>
</svg>
