<svg xmlns="http://www.w3.org/2000/svg" xmlns:xlink="http://www.w3.org/1999/xlink" width="80" height="82" viewBox="0 0 80 82">
  <defs>
    <clipPath id="clip-path">
      <rect id="사각형_350235" data-name="사각형 350235" width="44" height="8.654" fill="none"/>
    </clipPath>
  </defs>
  <g id="ico_pin_homeplus" transform="translate(-569 -923.781)">
    <rect id="전화_icon" width="80" height="80" transform="translate(569 924.781)" fill="none"/>
    <g id="그룹_492576" data-name="그룹 492576" transform="translate(578.252 922.894)">
      <g id="패스_70056" data-name="패스 70056" transform="translate(0.748 2.888)" fill="#be91fd" stroke-linecap="round" stroke-linejoin="round">
        <path d="M 30.00244522094727 79.35420989990234 L 29.32701110839844 78.73965454101562 C 29.25144386291504 78.67089080810547 21.68371200561523 71.75673675537109 14.22166633605957 62.50612258911133 C 9.826533317565918 57.05754470825195 6.321077823638916 51.86956787109375 3.802655458450317 47.08629989624023 C 0.6158444285392761 41.03356552124023 -1 35.59276580810547 -1 30.9150333404541 C -1 21.23507690429688 2.143711090087891 13.07544422149658 8.091278076171875 7.318233489990234 C 10.87948894500732 4.619266510009766 14.203200340271 2.531155586242676 17.97006607055664 1.111899971961975 C 21.68944358825684 -0.2894555628299713 25.73690032958984 -1 30 -1 C 34.25667953491211 -1 38.30532073974609 -0.2796111106872559 42.03346633911133 1.141166687011719 C 45.79485702514648 2.574611186981201 49.11794281005859 4.678477764129639 51.9104118347168 7.394333362579346 C 54.79051208496094 10.19542217254639 57.03166580200195 13.57875537872314 58.5716438293457 17.45036697387695 C 60.18297958374023 21.50138854980469 61 26.03156661987305 61 30.9150333404541 C 61 35.54773330688477 59.3840446472168 40.96055603027344 56.1970100402832 47.00316619873047 C 53.67886734008789 51.777587890625 50.17378997802734 56.96814346313477 45.77915573120117 62.43065643310547 C 38.31790161132812 71.70496368408203 30.75121116638184 78.66796875 30.67565536499023 78.73722076416016 L 30.00244522094727 79.35420989990234 Z" stroke="none"/>
        <path d="M 30 0 C 13.43145751953125 0 0 11.12631988525391 0 30.91503524780273 C 0 50.70372772216797 30 78 30 78 C 30 78 60 50.50518798828125 60 30.91503524780273 C 60 11.32488250732422 46.56854248046875 0 30 0 M 30 -2 C 34.37883758544922 -2 38.54728317260742 -1.257553100585938 42.38957595825195 0.2067184448242188 C 46.27904510498047 1.688980102539062 49.71688079833984 3.866050720214844 52.60761260986328 6.677467346191406 C 55.58928298950195 9.57733154296875 57.90849304199219 13.07750701904297 59.50083541870117 17.08077621459961 C 61.15916442871094 21.24991607666016 62 25.90443420410156 62 30.91503524780273 C 62 35.71198654174805 60.34518814086914 41.28178787231445 57.08152770996094 47.46968078613281 C 54.53355407714844 52.3006591796875 50.99302291870117 57.54515075683594 46.55830383300781 63.0574951171875 C 39.04951858520508 72.39089202880859 31.66211700439453 79.18959045410156 31.35130500793457 79.47443389892578 C 30.58875465393066 80.17331695556641 29.41909408569336 80.17542266845703 28.65402412414551 79.47930908203125 C 28.34313011169434 79.19643402099609 20.95370483398438 72.44449615478516 13.44332885742188 63.13397598266602 C 9.007621765136719 57.63509368896484 5.466327667236328 52.39262390136719 2.917800903320312 47.55217742919922 C -0.3454132080078125 41.35431671142578 -2 35.75677490234375 -2 30.91503524780273 C -2 25.85902404785156 -1.159366607666016 21.17684555053711 0.4985427856445312 16.99855422973633 C 2.089813232421875 12.98823547363281 4.410377502441406 9.48956298828125 7.395763397216797 6.5997314453125 C 10.28281021118164 3.805084228515625 13.72190475463867 1.643867492675781 17.61749267578125 0.176116943359375 C 21.44996643066406 -1.267845153808594 25.61604690551758 -2 30 -2 Z" stroke="none" fill="#5817b1"/>
      </g>
      <circle id="타원_8423" data-name="타원 8423" cx="25" cy="25" r="25" transform="translate(5.747 7.888)" fill="#fff"/>
      <g id="그룹_492572" data-name="그룹 492572" transform="translate(8.748 28.388)" clip-path="url(#clip-path)">
        <path id="패스_862734" data-name="패스 862734" d="M596.849,36.782v2.6c0,.518-.194.959-.748.959s-.748-.441-.748-.959v-2.6h-1.524V39.5a2.289,2.289,0,0,0,4.543,0V36.782Z" transform="translate(-559.008 -34.625)" fill="#d9000d"/>
        <path id="패스_862735" data-name="패스 862735" d="M4.128,10.255V7.522H1.579v2.734H0V3.718H1.579V6.193H4.128V3.718H5.707v6.537Z" transform="translate(0 -3.5)" fill="#d9000d"/>
        <path id="패스_862736" data-name="패스 862736" d="M114.365,39.158a2.433,2.433,0,0,1-2.549-2.465,2.556,2.556,0,0,1,5.106,0,2.436,2.436,0,0,1-2.558,2.465m0-3.638a1.091,1.091,0,0,0-1.08,1.173,1.093,1.093,0,1,0,1.08-1.173" transform="translate(-105.259 -32.255)" fill="#d9000d"/>
        <path id="패스_862737" data-name="패스 862737" d="M218.008,39.3V36.792c0-.526-.12-.969-.656-.969-.517,0-.766.48-.766,1V39.3h-1.514V36.682c0-.527-.2-.859-.656-.859-.48,0-.757.433-.757.987V39.3h-1.524v-4.6H213.6v.637h.018A1.536,1.536,0,0,1,215,34.576a1.448,1.448,0,0,1,1.385.785,1.644,1.644,0,0,1,1.468-.785,1.682,1.682,0,0,1,1.672,1.884V39.3Z" transform="translate(-199.695 -32.549)" fill="#d9000d"/>
        <path id="패스_862738" data-name="패스 862738" d="M356.915,38.214a2.419,2.419,0,0,1-2.063.944,2.448,2.448,0,1,1-.046-4.894,2.257,2.257,0,0,1,2.309,2.5c0,.12,0,.25-.009.36h-3.334a1.056,1.056,0,0,0,1.1.869,1.208,1.208,0,0,0,.994-.452Zm-1.195-2.029a.836.836,0,0,0-.905-.877,1,1,0,0,0-1.044.877Z" transform="translate(-331.663 -32.255)" fill="#d9000d"/>
        <path id="패스_862739" data-name="패스 862739" d="M684.9,35.769a1.436,1.436,0,0,0-.961-.416c-.286,0-.572.1-.572.369s.249.333.84.462c.7.157,1.468.508,1.468,1.4,0,1.163-1.025,1.57-1.967,1.57a2.966,2.966,0,0,1-2-.711l.849-.9a1.563,1.563,0,0,0,1.127.517c.25,0,.545-.1.545-.4s-.287-.379-.914-.526-1.339-.471-1.339-1.339c0-1.1,1.034-1.542,1.911-1.542a2.76,2.76,0,0,1,1.847.647Z" transform="translate(-641.735 -32.255)" fill="#d9000d"/>
        <rect id="사각형_350234" data-name="사각형 350234" width="1.533" height="6.755" transform="translate(32.291)" fill="#d9000d"/>
        <path id="패스_862740" data-name="패스 862740" d="M450.919,41.2V38.8h.018a1.732,1.732,0,0,0,1.395.637,2.442,2.442,0,0,0,.009-4.857,1.824,1.824,0,0,0-1.468.693h-.027v-.564H449.4v6.5Zm1.053-5.389a1.187,1.187,0,0,1,0,2.364,1.184,1.184,0,0,1,0-2.364" transform="translate(-423.052 -32.549)" fill="#d9000d"/>
      </g>
    </g>
  </g>
</svg>
