<svg xmlns="http://www.w3.org/2000/svg" width="60" height="60" viewBox="0 0 60 60">
    <g data-name="그룹 486266">
        <g data-name="그룹 486267">
            <g data-name="그룹 486265">
                <path data-name="합치기 76" d="M2.769 21.883A2.77 2.77 0 0 1 0 19.113a9.235 9.235 0 0 1 6.5-8.819 5 5 0 1 1 7.4.134 9.235 9.235 0 0 1 6.1 8.685 2.769 2.769 0 0 1-2.768 2.769z" transform="translate(5.5 23)" style="fill:#fff;stroke:#191919;stroke-linecap:round;stroke-linejoin:round;stroke-miterlimit:10;stroke-width:2px"/>
                <path data-name="합치기 95" d="M2.769 21.883A2.77 2.77 0 0 1 0 19.113a9.235 9.235 0 0 1 6.5-8.819 5 5 0 1 1 7.4.134 9.235 9.235 0 0 1 6.1 8.685 2.769 2.769 0 0 1-2.768 2.769z" transform="translate(34.5 23)" style="fill:#fff;stroke:#191919;stroke-linecap:round;stroke-linejoin:round;stroke-miterlimit:10;stroke-width:2px"/>
            </g>
            <path data-name="합치기 66" d="M5.6 32.953a3.6 3.6 0 0 1-3.6-3.6 14.41 14.41 0 0 1 9.985-13.713A8.006 8.006 0 0 1 8.5 9.079 8.322 8.322 0 0 1 17 .952a8.321 8.321 0 0 1 8.5 8.127 8.007 8.007 0 0 1-3.486 6.562A14.409 14.409 0 0 1 32 29.352a3.6 3.6 0 0 1-3.6 3.6z" transform="translate(13 13.047)" style="fill:#fff;stroke:#191919;stroke-linecap:round;stroke-linejoin:round;stroke-miterlimit:10;stroke-width:2px"/>
        </g>
    </g>
</svg>
