<svg xmlns="http://www.w3.org/2000/svg" width="48" height="48" viewBox="0 0 48 48">
    <g data-name="그룹 484304">
        <path data-name="패스 845788" d="M113.913 614.634h-21.5a3.4 3.4 0 0 0-3.394 3.394v13.578A3.4 3.4 0 0 0 92.415 635h21.5a3.394 3.394 0 0 0 3.394-3.394v-13.578a3.4 3.4 0 0 0-3.396-3.394zm-.741 5.345-9.521 6.665c-.012.008-.025.011-.038.019a.87.87 0 0 1-.156.077l-.066.024a.828.828 0 0 1-.22.033h-.013a.866.866 0 0 1-.222-.033c-.023-.007-.044-.016-.067-.025a.828.828 0 0 1-.156-.077c-.012-.008-.027-.01-.039-.019l-9.617-6.789a.849.849 0 0 1 .979-1.387l9.13 6.445 9.032-6.323a.849.849 0 1 1 .974 1.39z" transform="translate(-79.164 -600.816)" style="fill:#662d91"/>
    </g>
</svg>
