<svg xmlns="http://www.w3.org/2000/svg" width="120" height="120" viewBox="0 0 120 120">
    <defs>
        <filter id="r6mbwx4ana" x="39.245" y="38.61" width="80.48" height="76.074" filterUnits="userSpaceOnUse">
            <feOffset dy="5"/>
            <feGaussianBlur stdDeviation="2.5" result="blur"/>
            <feFlood flood-opacity=".102"/>
            <feComposite operator="in" in2="blur"/>
            <feComposite in="SourceGraphic"/>
        </filter>
        <filter id="jhu3kyjfqc" x=".724" y="15.5" width="80.48" height="76.073" filterUnits="userSpaceOnUse">
            <feOffset dy="5"/>
            <feGaussianBlur stdDeviation="2.5" result="blur-2"/>
            <feFlood flood-opacity=".102"/>
            <feComposite operator="in" in2="blur-2"/>
            <feComposite in="SourceGraphic"/>
        </filter>
        <linearGradient id="89ti9cadpb" x1=".288" y1="1" x2=".288" y2=".143" gradientUnits="objectBoundingBox">
            <stop offset="0" stop-color="#be91ff"/>
            <stop offset="1" stop-color="#9550ff"/>
        </linearGradient>
    </defs>
    <g data-name="그룹 492457">
        <g data-name="그룹 484191">
            <g data-name="그룹 484235">
                <g data-name="그룹 465504">
                    <g style="filter:url(#r6mbwx4ana)">
                        <path data-name="합치기 38" d="m6.476.954 9.335 8.252A18.189 18.189 0 0 1 18 9.074h29.48a18 18 0 0 1 18 18v16a18 18 0 0 1-18 18H18a18 18 0 0 1-18-18v-16q0-.481.025-.955L.161 3.765A3.807 3.807 0 0 1 4 0a3.691 3.691 0 0 1 2.476.954z" transform="rotate(180 56.117 51.09)" style="fill:url(#89ti9cadpb)"/>
                    </g>
                    <path d="M19.71.54a2.84 2.84 0 0 0-.15-.54 2.335 2.335 0 0 1-.09-.27l-6.24-15.36-.18-.48c-.09-.24-.21-.42-.3-.69a3.61 3.61 0 0 0-.33-.69 5.722 5.722 0 0 0-.45-.63 1.546 1.546 0 0 0-.51-.39 3.1 3.1 0 0 0-1.95 0 1.546 1.546 0 0 0-.51.39 3.378 3.378 0 0 0-.45.63 3.61 3.61 0 0 0-.33.69c-.09.27-.21.45-.3.69l-.18.48L1.5-.27a2.335 2.335 0 0 1-.09.27 2.839 2.839 0 0 0-.15.54 5.374 5.374 0 0 0-.06.72 1.08 1.08 0 0 0 .21.66 1.466 1.466 0 0 0 .6.51 2.287 2.287 0 0 0 1.59.3 1.808 1.808 0 0 0 .75-.39c.06-.06.12-.09.15-.15.03-.03.09-.12.15-.15a2.148 2.148 0 0 0 .39-.57c.12-.18.21-.36.33-.57a3.028 3.028 0 0 0 .21-.45c.06-.15.09-.33.15-.48l.63-1.47c2.73.03 5.52 0 8.25 0l.63 1.47a2.949 2.949 0 0 0 .15.48 1.52 1.52 0 0 0 .21.45c.12.21.21.39.3.57a3.463 3.463 0 0 0 .42.57c.06.03.12.12.15.15.03.06.09.09.15.15a1.808 1.808 0 0 0 .75.39 2.287 2.287 0 0 0 1.59-.3 1.466 1.466 0 0 0 .6-.51 1.08 1.08 0 0 0 .21-.66 5.374 5.374 0 0 0-.06-.72zm-6.57-6.03H7.83l.54-1.32c.51-1.14 1.05-2.4 1.65-3.69.15-.36.33-.75.45-1.11.15.36.33.75.48 1.11.6 1.29 1.14 2.55 1.65 3.69z" transform="translate(69.377 74.776)" style="fill:#fff"/>
                </g>
            </g>
            <g data-name="그룹 484176">
                <g data-name="그룹 465504">
                    <g style="filter:url(#jhu3kyjfqc)">
                        <path data-name="합치기 39" d="M18 61.071a18 18 0 0 1-18-18v-16a18 18 0 0 1 18-18h29.48a18.173 18.173 0 0 1 2.19.132L59 .952a3.806 3.806 0 0 1 6.32 2.812l.135 22.353q.025.474.025.955v16a18 18 0 0 1-18 18z" transform="rotate(180 36.848 39.534)" style="fill:#6f98f8"/>
                    </g>
                    <path data-name="A" d="M18.03.45a3.442 3.442 0 0 0-.75-.96c-.15-.18-.78-.69-1.38-1.26l.54-1.44c1.11-4.05.75-9.9-2.07-13.08-1.77-2.01-4.47-2.97-8.43-1.74-3.27.99-4.47 5.52-4.68 8.55-.24 3.21.42 7.41 2.79 9.9a7.321 7.321 0 0 0 7.53 1.92 6.362 6.362 0 0 0 2.4-1.35l.84.72a4.1 4.1 0 0 0 .63.45 2.4 2.4 0 0 0 .63.39 1.526 1.526 0 0 0 .6.12 1.261 1.261 0 0 0 .66-.15 2.39 2.39 0 0 0 .51-.45 1.322 1.322 0 0 0 .33-.75 1.5 1.5 0 0 0-.15-.87zM6.39-2.67C5.13-4.26 4.83-6.93 4.92-9c.12-1.92.81-4.56 2.46-5.43a3.156 3.156 0 0 1 4.53 1.17c1.62 2.55 1.62 5.94 1.02 8.61-.18-.15-.36-.3-.51-.45-.18-.18-.42-.39-.63-.57a5.184 5.184 0 0 0-.63-.39.975.975 0 0 0-.6-.21 1.461 1.461 0 0 0-.75.15c-.18.12-.33.27-.54.42a1.7 1.7 0 0 0-.39.81 1.377 1.377 0 0 0 .15.9 3.164 3.164 0 0 0 .69 1.08c.12.15.69.66 1.23 1.2a3.428 3.428 0 0 1-4.56-.96z" transform="translate(30.891 50.803)" style="fill:#fff"/>
                </g>
            </g>
        </g>
    </g>
</svg>
