<svg xmlns="http://www.w3.org/2000/svg" width="40" height="40" viewBox="0 0 40 40">
    <path style="fill:transparent" d="M0 0h40v40H0z"/>
    <path d="M21.012 18.411c-1.319-1.091-2.649-2.105-3.778-2.954s-1.535-.691-2.44.339a1.982 1.982 0 0 1-2.985.4 14.812 14.812 0 0 1-3.772-4.338l-.419-.624c-.8-1.18-.769-1.735.161-2.825a2.1 2.1 0 0 0 .21-2.719c-.369-.567-.733-1.138-1.1-1.709-.639-1-1.276-2-1.937-2.981A1.759 1.759 0 0 0 2.138.5a5.41 5.41 0 0 0-2.13 4.289 13.764 13.764 0 0 0 1.11 5.643 23.617 23.617 0 0 0 10.619 12.16 11.562 11.562 0 0 0 3.785 1.32 7.29 7.29 0 0 0 1.1.088 6.077 6.077 0 0 0 4.478-2.049 2.519 2.519 0 0 0 .9-1.858 2.322 2.322 0 0 0-.986-1.682" transform="translate(9.5 8.5)" style="fill:#ddd;stroke:#ddd"/>
</svg>
