<svg xmlns="http://www.w3.org/2000/svg" width="82" height="80" viewBox="0 0 82 80">
    <defs>
        <filter id="l6ewniz1fa" x="3" y="7" width="56" height="69" filterUnits="userSpaceOnUse">
            <feOffset dy="2"/>
            <feGaussianBlur stdDeviation="1" result="blur"/>
            <feFlood flood-opacity=".102"/>
            <feComposite operator="in" in2="blur"/>
            <feComposite in="SourceGraphic"/>
        </filter>
        <filter id="mfsgdepwib" x="19.5" y="5.5" width="59" height="72" filterUnits="userSpaceOnUse">
            <feOffset dy="2"/>
            <feGaussianBlur stdDeviation="1" result="blur-2"/>
            <feFlood flood-opacity=".102"/>
            <feComposite operator="in" in2="blur-2"/>
            <feComposite in="SourceGraphic"/>
        </filter>
    </defs>
    <g data-name="그룹 486254">
        <g style="filter:url(#l6ewniz1fa)">
            <path data-name="합치기 92" d="M3.5 63A3.665 3.665 0 0 1 0 59.19v-5.978c0-11.084 6.089-20.621 14.825-24.863a16 16 0 1 1 20.351 0C43.911 32.591 50 42.128 50 53.212v5.978A3.665 3.665 0 0 1 46.5 63z" transform="translate(6 8)" style="fill:#e3e6f9"/>
        </g>
        <g data-name="그룹 486156">
            <g data-name="합치기 83" style="stroke-linecap:round;stroke-linejoin:round;stroke-miterlimit:10;fill:none">
                <path d="M4 63.333a4 4 0 0 1-4-4v-5.445a25.009 25.009 0 0 1 17.462-23.843 15.945 15.945 0 1 1 23.392-14.063 16 16 0 0 1-8.315 14.062A25.01 25.01 0 0 1 50 53.888v5.446a4 4 0 0 1-4 4z" style="stroke:none" transform="translate(24 8)"/>
                <path d="M46 63.333a4 4 0 0 0 4-4v-5.445c0-11.18-7.338-20.646-17.462-23.843a15.997 15.997 0 0 0 8.316-14.063C40.854 7.156 33.755 0 25 0 16.244 0 9.146 7.156 9.146 15.982c0 6.076 3.363 11.36 8.316 14.063C7.338 33.242 0 42.707 0 53.888v5.445a4 4 0 0 0 4 4h42m0 8H4c-6.617 0-12-5.383-12-12v-5.445c0-10.311 4.703-19.696 12.396-25.815a24.06 24.06 0 0 1-3.25-12.09C1.146 2.757 11.846-8 25-8 38.153-8 48.854 2.758 48.854 15.982a24.06 24.06 0 0 1-3.25 12.09C53.296 34.193 58 43.578 58 53.889v5.445c0 6.617-5.383 12-12 12z" style="fill:#fff;stroke:none" transform="translate(24 8)"/>
            </g>
            <g style="filter:url(#mfsgdepwib)">
                <path data-name="합치기 84" d="M3.5 63A3.553 3.553 0 0 1 0 59.4v-5.659a25.722 25.722 0 0 1 16.468-24.2 16 16 0 1 1 17.065 0A25.722 25.722 0 0 1 50 53.741V59.4a3.553 3.553 0 0 1-3.5 3.6z" transform="translate(24 8)" style="fill:#fff;stroke:#a86dff;stroke-width:3px;stroke-dasharray:11 8.5;stroke-linecap:round;stroke-linejoin:round;stroke-miterlimit:10"/>
            </g>
        </g>
    </g>
</svg>
