<svg xmlns="http://www.w3.org/2000/svg" xmlns:xlink="http://www.w3.org/1999/xlink" width="80" height="82" viewBox="0 0 80 82">
  <defs>
    <clipPath id="clip-path">
      <rect id="사각형_341149" data-name="사각형 341149" width="45" height="8.918" fill="none"/>
    </clipPath>
  </defs>
  <g id="ico_pin_emart24" transform="translate(-569 -923.781)">
    <rect id="전화_icon" width="80" height="80" transform="translate(569 924.781)" fill="none"/>
    <g id="그룹_492574" data-name="그룹 492574" transform="translate(578.252 922.894)">
      <g id="패스_70056" data-name="패스 70056" transform="translate(0.748 2.888)" fill="#be91fd" stroke-linecap="round" stroke-linejoin="round">
        <path d="M 30.00244522094727 79.35420989990234 L 29.32701110839844 78.73965454101562 C 29.25144386291504 78.67089080810547 21.68371200561523 71.75673675537109 14.22166633605957 62.50612258911133 C 9.826533317565918 57.05754470825195 6.321077823638916 51.86956787109375 3.802655458450317 47.08629989624023 C 0.6158444285392761 41.03356552124023 -1 35.59276580810547 -1 30.9150333404541 C -1 21.23507690429688 2.143711090087891 13.07544422149658 8.091278076171875 7.318233489990234 C 10.87948894500732 4.619266510009766 14.203200340271 2.531155586242676 17.97006607055664 1.111899971961975 C 21.68944358825684 -0.2894555628299713 25.73690032958984 -1 30 -1 C 34.25667953491211 -1 38.30532073974609 -0.2796111106872559 42.03346633911133 1.141166687011719 C 45.79485702514648 2.574611186981201 49.11794281005859 4.678477764129639 51.9104118347168 7.394333362579346 C 54.79051208496094 10.19542217254639 57.03166580200195 13.57875537872314 58.5716438293457 17.45036697387695 C 60.18297958374023 21.50138854980469 61 26.03156661987305 61 30.9150333404541 C 61 35.54773330688477 59.3840446472168 40.96055603027344 56.1970100402832 47.00316619873047 C 53.67886734008789 51.777587890625 50.17378997802734 56.96814346313477 45.77915573120117 62.43065643310547 C 38.31790161132812 71.70496368408203 30.75121116638184 78.66796875 30.67565536499023 78.73722076416016 L 30.00244522094727 79.35420989990234 Z" stroke="none"/>
        <path d="M 30 0 C 13.43145751953125 0 0 11.12631988525391 0 30.91503524780273 C 0 50.70372772216797 30 78 30 78 C 30 78 60 50.50518798828125 60 30.91503524780273 C 60 11.32488250732422 46.56854248046875 0 30 0 M 30 -2 C 34.37883758544922 -2 38.54728317260742 -1.257553100585938 42.38957595825195 0.2067184448242188 C 46.27904510498047 1.688980102539062 49.71688079833984 3.866050720214844 52.60761260986328 6.677467346191406 C 55.58928298950195 9.57733154296875 57.90849304199219 13.07750701904297 59.50083541870117 17.08077621459961 C 61.15916442871094 21.24991607666016 62 25.90443420410156 62 30.91503524780273 C 62 35.71198654174805 60.34518814086914 41.28178787231445 57.08152770996094 47.46968078613281 C 54.53355407714844 52.3006591796875 50.99302291870117 57.54515075683594 46.55830383300781 63.0574951171875 C 39.04951858520508 72.39089202880859 31.66211700439453 79.18959045410156 31.35130500793457 79.47443389892578 C 30.58875465393066 80.17331695556641 29.41909408569336 80.17542266845703 28.65402412414551 79.47930908203125 C 28.34313011169434 79.19643402099609 20.95370483398438 72.44449615478516 13.44332885742188 63.13397598266602 C 9.007621765136719 57.63509368896484 5.466327667236328 52.39262390136719 2.917800903320312 47.55217742919922 C -0.3454132080078125 41.35431671142578 -2 35.75677490234375 -2 30.91503524780273 C -2 25.85902404785156 -1.159366607666016 21.17684555053711 0.4985427856445312 16.99855422973633 C 2.089813232421875 12.98823547363281 4.410377502441406 9.48956298828125 7.395763397216797 6.5997314453125 C 10.28281021118164 3.805084228515625 13.72190475463867 1.643867492675781 17.61749267578125 0.176116943359375 C 21.44996643066406 -1.267845153808594 25.61604690551758 -2 30 -2 Z" stroke="none" fill="#5817b1"/>
      </g>
      <circle id="타원_8423" data-name="타원 8423" cx="25" cy="25" r="25" transform="translate(5.747 7.888)" fill="#fff"/>
      <g id="그룹_492568" data-name="그룹 492568" transform="translate(8.248 27.888)">
        <g id="그룹_465155" data-name="그룹 465155" transform="translate(0 0)" clip-path="url(#clip-path)">
          <path id="패스_842240" data-name="패스 842240" d="M8.587,5.964c0-.65,0-1.3,0-1.954a1.986,1.986,0,0,1,2.072-2.237,4.02,4.02,0,0,1,2.134.262A.731.731,0,0,0,13.429,2a4.06,4.06,0,0,1,2.887-.015,1.724,1.724,0,0,1,1.241,1.786c.005,1.564-.015,3.131.011,4.693.007.412-.135.5-.509.477a1.145,1.145,0,0,1-1.19-1.311c-.008-1.211,0-2.424,0-3.63,0-.735-.25-.98-.965-.98s-.982.267-.984.976c-.005,1.454-.015,2.907.007,4.358.006.4-.084.55-.519.542-1.191-.017-1.191,0-1.191-1.2s0-2.422,0-3.632c0-.789-.232-1.039-.954-1.045s-.977.254-.977,1.023c0,1.435-.013,2.869.008,4.3.006.394-.067.556-.512.55C8.587,8.878,8.587,8.9,8.587,7.7Z" transform="translate(-0.788 -0.158)" fill="#49474d" fill-rule="evenodd"/>
          <path id="패스_842241" data-name="패스 842241" d="M.009,4.792A11.188,11.188,0,0,1,.081,2.756,2.918,2.918,0,0,1,1.993.343,4.767,4.767,0,0,1,5.635.4,2.371,2.371,0,0,1,7.215,2.629,2.278,2.278,0,0,1,5.759,4.817a24.345,24.345,0,0,1-2.8.916,4.137,4.137,0,0,0-.47.167c-.294.137-.589.31-.571.678a.9.9,0,0,0,.632.783,1.882,1.882,0,0,0,2.544-.928.323.323,0,0,1,.348-.2c.261-.005.521,0,.78,0,.857,0,.9.054.57.871A2.806,2.806,0,0,1,4.326,8.846a5.351,5.351,0,0,1-1.941-.058A2.84,2.84,0,0,1,.056,6.206,11.177,11.177,0,0,1,.009,4.792M1.9,4.631a14.385,14.385,0,0,0,2.776-.907,1.077,1.077,0,0,0,.265-1.845A1.887,1.887,0,0,0,3,1.537,1.568,1.568,0,0,0,1.912,2.961,16.641,16.641,0,0,0,1.9,4.631" transform="translate(0 -0.001)" fill="#ffa30a" fill-rule="evenodd"/>
          <path id="패스_842242" data-name="패스 842242" d="M25.141,5.257c0,.357.006.709,0,1.063a2.486,2.486,0,0,1-2.25,2.672,4.589,4.589,0,0,1-2.315-.168,2.076,2.076,0,0,1-1.526-1.86,1.871,1.871,0,0,1,1.414-1.858c.673-.255,1.377-.436,2.065-.658a3.956,3.956,0,0,0,.57-.219.541.541,0,0,0,.058-.979,1.564,1.564,0,0,0-2.29.62c-.075.177-.149.223-.314.217-.146-.006-.3,0-.446,0-.9,0-.983-.135-.623-.978a1.955,1.955,0,0,1,1.24-1.128A4.552,4.552,0,0,1,23.78,2a1.891,1.891,0,0,1,1.332,1.755c.034.5.005,1,.005,1.5Zm-1.708.925c0-.17,0-.336,0-.5s-.053-.257-.23-.2a12.474,12.474,0,0,0-1.9.618.835.835,0,0,0-.526.9.909.909,0,0,0,.842.775,1.443,1.443,0,0,0,1.816-1.586" transform="translate(-1.749 -0.158)" fill="#49474d" fill-rule="evenodd"/>
          <path id="패스_842243" data-name="패스 842243" d="M47.385,2.974c0,.689.015,1.38-.006,2.069-.008.328.079.5.435.449a.418.418,0,0,1,.22,0c.262.113.723-.285.8.292.06.479-.283,1.057-.728,1.026-.807-.057-.745.409-.719.926a1.018,1.018,0,0,1-.437,1.018,1.118,1.118,0,0,1-.97.1c-.272-.091-.122-.422-.124-.644-.014-1.348-.006-1.348-1.363-1.348-.559,0-1.119-.009-1.677,0a.885.885,0,0,1-.916-.5.934.934,0,0,1,.087-1Q43.723,2.968,45.474.582A1.246,1.246,0,0,1,46.35.041a.84.84,0,0,1,1.033.922c.011.671,0,1.343,0,2.011m-1.538-.364-.112-.051q-.973,1.313-1.946,2.628c-.144.2-.082.307.164.307.54,0,1.08-.01,1.62,0,.284,0,.273-.18.273-.371,0-.837,0-1.677,0-2.513" transform="translate(-3.837 -0.003)" fill="#ffa30a" fill-rule="evenodd"/>
          <path id="패스_842244" data-name="패스 842244" d="M38.215,7.276c.948,0,1.836.024,2.723-.013.465-.019.588.145.536.571a.9.9,0,0,1-.9.892c-1.249.022-2.495.025-3.742,0a.938.938,0,0,1-.858-1.306,1.981,1.981,0,0,1,.482-.739c.908-.935,1.813-1.869,2.71-2.814a3.049,3.049,0,0,0,.467-.621,1.207,1.207,0,0,0-.091-1.412,1.1,1.1,0,0,0-1.21-.364c-.529.113-.723.528-.853,1-.058.2.089.55-.159.593a5.973,5.973,0,0,1-1.33.015c-.123-.007-.1-.183-.1-.29A2.523,2.523,0,0,1,37.279.356a3.1,3.1,0,0,1,3.044.091,2.658,2.658,0,0,1,.329,4.124c-.677.747-1.395,1.45-2.092,2.174a.933.933,0,0,0-.346.531" transform="translate(-3.296 0)" fill="#ffa30a" fill-rule="evenodd"/>
          <path id="패스_842245" data-name="패스 842245" d="M33.943,7.573c.061,1.212.3,1.283-1.126,1.319-1.469.035-1.988-.492-1.988-1.95,0-2.1.008-4.208-.008-6.31,0-.35.074-.48.456-.472.88.018,1.177.236,1.22,1.135.019.388.143.485.485.443a.914.914,0,0,1,.333,0c.225.053.576-.173.652.206a.87.87,0,0,1-.331.894.791.791,0,0,1-.453.19c-.687-.069-.693.331-.678.842.031.928.006,1.86.009,2.79,0,.891.173,1.048,1.048.972.127-.012.254-.037.381-.058" transform="translate(-2.83 -0.015)" fill="#49474d" fill-rule="evenodd"/>
          <path id="패스_842246" data-name="패스 842246" d="M29.86,3.074c-1.519-.155-1.637-.051-1.637,1.459,0,1.3-.01,2.6.008,3.91,0,.331-.082.444-.433.452-1.241.014-1.241.029-1.241-1.2,0-1.395-.006-2.793,0-4.189a1.559,1.559,0,0,1,1.7-1.751,4.219,4.219,0,0,1,.557.006c1.33.1,1.124.03,1.045,1.312" transform="translate(-2.438 -0.161)" fill="#49474d" fill-rule="evenodd"/>
        </g>
      </g>
    </g>
  </g>
</svg>
