<svg xmlns="http://www.w3.org/2000/svg" width="80" height="80" viewBox="0 0 80 80">
    <defs>
        <filter id="gmbtcyufaa" x="4.999" y="17.667" width="70" height="54" filterUnits="userSpaceOnUse">
            <feOffset dy="2"/>
            <feGaussianBlur stdDeviation="1" result="blur"/>
            <feFlood flood-opacity=".102"/>
            <feComposite operator="in" in2="blur"/>
            <feComposite in="SourceGraphic"/>
        </filter>
    </defs>
    <g data-name="그룹 481583">
        <g style="filter:url(#gmbtcyufaa)">
            <path data-name="패스 862545" d="M13.333 0h37.334A13.333 13.333 0 0 1 64 13.333v21.334A13.333 13.333 0 0 1 50.667 48H13.333A13.333 13.333 0 0 1 0 34.667V13.333A13.333 13.333 0 0 1 13.333 0z" transform="translate(8 18.667)" style="fill:#6f98f8"/>
        </g>
        <path data-name="패스 862740" d="M-12.336-12.6c.72.624 2.184.48 3.048.48h1.608c.384 0 1.488-.168 1.3.36a6.011 6.011 0 0 1-1.396 1.776c-.744.84-3.024 2.5-1.944 3.744.984 1.1 2.808.672 4.032 1.392a1.889 1.889 0 0 1 .1 3.36A3.512 3.512 0 0 1-9.36-1.68c-.768-.432-1.584-1.032-2.544-.7-1.3.456-.864 2.04-.1 2.784a6.887 6.887 0 0 0 4.612 1.612c3.432 0 5.928-2.328 5.928-5.4S-3.768-7.7-6.288-8.04c.7-.72 1.7-1.632 2.4-2.352.768-.768 1.824-1.848 1.752-3.12-.048-1.1-1.08-1.44-2.04-1.488a98.86 98.86 0 0 0-3.72-.1c-.72 0-1.248-.024-1.968 0a3.435 3.435 0 0 0-2.424.672 1.363 1.363 0 0 0-.36.96 1.059 1.059 0 0 0 .312.868zM6.384 1.992a6.336 6.336 0 0 0 4.272-1.92 8.29 8.29 0 0 0 1.968-5.064 12.953 12.953 0 0 0 .048-3.048c-.36-3.048-1.632-6.216-4.56-6.912a7.416 7.416 0 0 0-3.48 0c-.384.144-.792.312-1.152.48a6.406 6.406 0 0 0-2.544 3 12.81 12.81 0 0 0-.96 4.824A10.178 10.178 0 0 0 2.328 0a6.08 6.08 0 0 0 2.3 1.7 4.969 4.969 0 0 0 1.756.292zM6.36-12c2.376-.072 3.14 2.5 3.288 4.416.144 1.944-.1 4.92-1.944 6.048a2.385 2.385 0 0 1-1.9.24A2.845 2.845 0 0 1 4.2-2.52a7.714 7.714 0 0 1-1.056-4.152 7.606 7.606 0 0 1 .888-3.84 3.554 3.554 0 0 1 1.056-1.176A2.384 2.384 0 0 1 6.36-12z" transform="translate(40.001 50.334)" style="fill:#fff"/>
        <g data-name="그룹 485999" transform="translate(14 12.667)">
            <rect data-name="사각형 348910" width="6" height="12" rx="3" transform="translate(9)" style="fill:#dadef8"/>
            <rect data-name="사각형 348912" width="6" height="12" rx="3" transform="translate(37)" style="fill:#dadef8"/>
        </g>
    </g>
</svg>
