<svg xmlns="http://www.w3.org/2000/svg" width="16" height="16" viewBox="0 0 16 16">
    <g data-name="타원 8475" style="fill:#fff;stroke:#666">
        <circle cx="8" cy="8" r="8" style="stroke:none"/>
        <circle cx="8" cy="8" r="7.5" style="fill:none"/>
    </g>
    <path data-name="패스 842298" d="M2.033-2.619a3.519 3.519 0 0 1 .2-1.307 2.681 2.681 0 0 1 .729-.958 3.731 3.731 0 0 0 .706-.768 1.2 1.2 0 0 0 .176-.624q0-.99-.914-.99A.927.927 0 0 0 2.235-7a1.046 1.046 0 0 0-.272.735H.264a2.257 2.257 0 0 1 .723-1.751 2.819 2.819 0 0 1 1.943-.632 2.831 2.831 0 0 1 1.928.6 2.135 2.135 0 0 1 .686 1.7 2.064 2.064 0 0 1-.223.94 3.874 3.874 0 0 1-.779.981l-.475.451a1.607 1.607 0 0 0-.51 1l-.023.357zm-.17 1.8a.857.857 0 0 1 .267-.647.947.947 0 0 1 .683-.255.947.947 0 0 1 .683.255.857.857 0 0 1 .267.647.85.85 0 0 1-.263.637.949.949 0 0 1-.687.252.949.949 0 0 1-.688-.252.85.85 0 0 1-.262-.638z" transform="translate(5 12.648)" style="fill:#666"/>
</svg>
