<svg xmlns="http://www.w3.org/2000/svg" width="48" height="48" viewBox="0 0 48 48">
    <g data-name="9">
        <path style="fill:#fff" d="M0 0h48v48H0z"/>
        <g transform="translate(1.657 4.301)">
            <path data-name="패스 842207" d="M19.417 5.842h.349a13.727 13.727 0 0 1 8.5 3.083 26.606 26.606 0 0 1 6.112 7.7 25.227 25.227 0 0 1-6.2 7.639 13.225 13.225 0 0 1-8.414 3.017h-.556a13.223 13.223 0 0 1-8.408-3.014 25.223 25.223 0 0 1-6.2-7.64 26.624 26.624 0 0 1 6.112-7.7 13.73 13.73 0 0 1 8.5-3.083zm.107-4.265h-.314A18.044 18.044 0 0 0 8.077 5.576c-4.164 3.27-7 8.5-7.915 10.327a1.52 1.52 0 0 0-.025 1.315 29.338 29.338 0 0 0 7.94 10.336 17.436 17.436 0 0 0 11.133 3.993h.556A17.431 17.431 0 0 0 30.9 27.553a29.341 29.341 0 0 0 7.941-10.336 1.52 1.52 0 0 0-.025-1.315C37.9 14.071 35.062 8.846 30.9 5.576a18.039 18.039 0 0 0-11.134-3.995h-.242" transform="translate(2.115 2.393)" style="fill:#141414"/>
            <circle data-name="타원 8499" cx="7" cy="7" r="7" transform="translate(14.541 11.896)" style="fill:#191919"/>
        </g>
    </g>
</svg>
