<svg xmlns="http://www.w3.org/2000/svg" width="60" height="60" viewBox="0 0 60 60">
  <g id="그룹_486264" data-name="그룹 486264" transform="translate(-685 -208)">
    <rect id="사각형_350237" data-name="사각형 350237" width="60" height="60" transform="translate(685 208)" fill="red" opacity="0"/>
    <g id="그룹_493402" data-name="그룹 493402" transform="translate(-1993 -777.794)">
      <rect id="사각형_348902" data-name="사각형 348902" width="34" height="51" rx="6" transform="translate(2691 990.294)" fill="none" stroke="#191919" stroke-width="2"/>
      <line id="선_126768" data-name="선 126768" x2="6" transform="translate(2705 995.294)" fill="none" stroke="#191919" stroke-linecap="round" stroke-linejoin="round" stroke-width="2"/>
      <path id="패스_863452" data-name="패스 863452" d="M.229.306A1.609,1.609,0,0,0,.145,0,1.323,1.323,0,0,1,.094-.153l-3.536-8.7-.1-.272c-.051-.136-.119-.238-.17-.391A2.046,2.046,0,0,0-3.9-9.911a3.243,3.243,0,0,0-.255-.357.876.876,0,0,0-.289-.221,1.755,1.755,0,0,0-1.105,0,.876.876,0,0,0-.289.221,1.914,1.914,0,0,0-.255.357,2.046,2.046,0,0,0-.187.391c-.051.153-.119.255-.17.391l-.1.272-3.536,8.7A1.323,1.323,0,0,1-10.141,0a1.609,1.609,0,0,0-.085.306,3.045,3.045,0,0,0-.034.408.612.612,0,0,0,.119.374.831.831,0,0,0,.34.289,1.3,1.3,0,0,0,.9.17,1.025,1.025,0,0,0,.425-.221c.034-.034.068-.051.085-.085.017-.017.051-.068.085-.085A1.217,1.217,0,0,0-8.083.833c.068-.1.119-.2.187-.323A1.716,1.716,0,0,0-7.777.255c.034-.085.051-.187.085-.272l.357-.833c1.547.017,3.128,0,4.675,0l.357.833a1.671,1.671,0,0,0,.085.272A.861.861,0,0,0-2.1.51c.068.119.119.221.17.323a1.963,1.963,0,0,0,.238.323c.034.017.068.068.085.085.017.034.051.051.085.085a1.025,1.025,0,0,0,.425.221,1.3,1.3,0,0,0,.9-.17.831.831,0,0,0,.34-.289A.612.612,0,0,0,.264.714,3.045,3.045,0,0,0,.229.306ZM-3.493-3.111H-6.5l.306-.748c.289-.646.6-1.36.935-2.091.085-.2.187-.425.255-.629.085.2.187.425.272.629.34.731.646,1.445.935,2.091ZM10.226-5.372c-.187-2.414-1.938-5.185-4.93-5.253l-2.839-.068c-.17.085-.323.017-.459.051a.965.965,0,0,0-.391.2.611.611,0,0,0-.187.289,1.191,1.191,0,0,0-.1.391,1.725,1.725,0,0,0-.034.425V.374A2.389,2.389,0,0,0,1.318.68a1.4,1.4,0,0,0,.136.374.68.68,0,0,0,.221.306.938.938,0,0,0,.459.187A5.347,5.347,0,0,0,3.7,1.615,8.052,8.052,0,0,0,8.118.391,5.23,5.23,0,0,0,10.09-3.06,10.567,10.567,0,0,0,10.226-5.372ZM7.064-2.142C6.214-.85,4.973-.714,3.579-.68V-4.148c0-.714,0-1.5.017-2.312,0-.68,0-1.275-.017-1.921,1.326.017,2.822.2,3.434,1.207A5.284,5.284,0,0,1,7.064-2.142Z" transform="translate(2707.368 1020.7)" fill="#191919"/>
    </g>
  </g>
</svg>
