<svg xmlns="http://www.w3.org/2000/svg" width="120" height="124.5" viewBox="0 0 120 124.5">
    <defs>
        <linearGradient id="v4gsjwz11b" x1=".5" x2=".5" y2="1" gradientUnits="objectBoundingBox">
            <stop offset="0" stop-color="#be91ff"/>
            <stop offset="1" stop-color="#9550ff"/>
        </linearGradient>
        <filter id="bpx68t61ya" x="20.501" y="5.5" width="79" height="119" filterUnits="userSpaceOnUse">
            <feOffset dy="5"/>
            <feGaussianBlur stdDeviation="2.5" result="blur"/>
            <feFlood flood-opacity=".051"/>
            <feComposite operator="in" in2="blur"/>
            <feComposite in="SourceGraphic"/>
        </filter>
    </defs>
    <g data-name="그룹 484205">
        <g data-name="그룹 484204">
            <g style="filter:url(#bpx68t61ya)">
                <path data-name="패스 862701" d="M12 0h40a12 12 0 0 1 12 12v80a12 12 0 0 1-12 12H12A12 12 0 0 1 0 92V12A12 12 0 0 1 12 0z" transform="translate(27.995 8.004)" style="fill:#e3e6f9"/>
            </g>
            <path data-name="선 126776" transform="translate(55.002 20.001)" style="stroke-width:4px;fill:none;stroke:#fff;stroke-linecap:round;stroke-linejoin:round" d="M0 0h10"/>
            <g data-name="그룹 486096" transform="translate(40 50.001)">
                <circle data-name="타원 24" cx="20" cy="20" r="20" style="fill:url(#v4gsjwz11b)"/>
                <g data-name="그룹 484097">
                    <path data-name="선 442" transform="translate(12.222 20.615)" style="stroke-width:5px;fill:none;stroke:#fff;stroke-linecap:round;stroke-linejoin:round" d="m0 0 5.129 4.938"/>
                    <path data-name="선 443" transform="translate(17.348 14.443)" style="stroke-width:5px;fill:none;stroke:#fff;stroke-linecap:round;stroke-linejoin:round" d="M11.54 0 0 11.111"/>
                </g>
            </g>
        </g>
    </g>
</svg>
