<svg xmlns="http://www.w3.org/2000/svg" width="120" height="120" viewBox="0 0 120 120">
    <defs>
        <clipPath id="ascaiqo74a">
            <path data-name="사각형 341022" transform="translate(0 .087)" style="fill:none" d="M0 0h82v99H0z"/>
        </clipPath>
    </defs>
    <g data-name="그룹 464362">
        <g data-name="그룹 464347">
            <g data-name="그룹 464346" transform="translate(8.353 7.647)" style="clip-path:url(#ascaiqo74a)">
                <path data-name="패스 70067" d="M68.464 2H12.385A10.385 10.385 0 0 0 2 12.385v79.741a3.341 3.341 0 0 0 5.523 2.53l5.5-4.747a2.685 2.685 0 0 1 3.787.28l3.559 4.126a3.342 3.342 0 0 0 5.06 0l3.971-4.608a2.686 2.686 0 0 1 4.068 0l4.422 5.127a3.342 3.342 0 0 0 5.06 0l3.973-4.608a2.686 2.686 0 0 1 4.068 0l4.422 5.127a3.342 3.342 0 0 0 5.06 0l4.072-4.722a2.686 2.686 0 0 1 3.788-.279l4.989 4.3a3.341 3.341 0 0 0 5.523-2.53V12.385A10.385 10.385 0 0 0 68.464 2" transform="translate(.523 -.292)" style="fill:#fff"/>
                <path data-name="패스 70068" d="M68.464 2H12.385A10.385 10.385 0 0 0 2 12.385v79.741a3.341 3.341 0 0 0 5.523 2.53l5.5-4.747a2.685 2.685 0 0 1 3.787.28l3.559 4.126a3.342 3.342 0 0 0 5.06 0l3.971-4.608a2.686 2.686 0 0 1 4.068 0l4.422 5.127a3.342 3.342 0 0 0 5.06 0l3.973-4.608a2.686 2.686 0 0 1 4.068 0l4.422 5.127a3.342 3.342 0 0 0 5.06 0l4.072-4.722a2.686 2.686 0 0 1 3.788-.279l4.989 4.3a3.341 3.341 0 0 0 5.523-2.53V12.385A10.385 10.385 0 0 0 68.464 2z" transform="translate(.523 -.292)" style="stroke-miterlimit:10;stroke:#191919;stroke-width:2px;fill:none"/>
            </g>
        </g>
        <path data-name="선 126605" transform="translate(25.931 31.509)" style="stroke-linecap:round;stroke:#191919;stroke-width:2px;fill:none" d="M0 0h46.079"/>
        <path data-name="선 126606" transform="translate(25.931 49.232)" style="stroke-linecap:round;stroke:#191919;stroke-width:2px;fill:none" d="M0 0h46.079"/>
        <path data-name="선 126607" transform="translate(25.931 49.232)" style="stroke-linecap:round;stroke:#191919;stroke-width:2px;fill:none" d="M0 0h46.079"/>
        <path data-name="선 126608" transform="translate(25.931 66.955)" style="stroke-linecap:round;stroke:#191919;stroke-width:2px;fill:none" d="M0 0h46.079"/>
        <path data-name="bg" d="M140.573 95.817a26.464 26.464 0 1 0-26.465 26.464 26.464 26.464 0 0 0 26.465-26.464z" transform="translate(-28.645 -10.353)" style="fill:#cfb8f4"/>
        <path data-name="bg" d="M140.573 95.817a26.464 26.464 0 1 0-26.465 26.464 26.464 26.464 0 0 0 26.465-26.464z" transform="translate(-28.926 -10.017)" style="fill:none"/>
        <path data-name="선 466" transform="rotate(-45 153.994 -41.572)" style="stroke-linecap:round;stroke:#191919;stroke-width:2px;fill:none" d="M0 0h30"/>
        <path data-name="선 126605" transform="rotate(-135 67.886 28.534)" style="stroke-linecap:round;stroke:#191919;stroke-width:2px;fill:none" d="M0 0h30"/>
    </g>
</svg>
