<svg xmlns="http://www.w3.org/2000/svg" width="80" height="80" viewBox="0 0 80 80">
    <defs>
        <filter id="ex2ztzn3ya" x="17" y="6" width="46" height="72" filterUnits="userSpaceOnUse">
            <feOffset dy="2"/>
            <feGaussianBlur stdDeviation="1" result="blur"/>
            <feFlood flood-opacity=".102"/>
            <feComposite operator="in" in2="blur"/>
            <feComposite in="SourceGraphic"/>
        </filter>
    </defs>
    <g data-name="그룹 486206">
        <g data-name="그룹 486199">
            <g data-name="그룹 486198">
                <g data-name="그룹 484205">
                    <g data-name="그룹 484204">
                        <g style="filter:url(#ex2ztzn3ya)">
                            <rect data-name="사각형 348906" width="40" height="66" rx="10" transform="translate(19.997 7.003)" style="fill:#f76bb8"/>
                        </g>
                        <path data-name="선 126776" transform="translate(37 14.001)" style="fill:none;stroke:#fff;stroke-linecap:round;stroke-linejoin:round;stroke-width:3px" d="M0 0h6"/>
                        <path data-name="패스 862741" d="M-4.76.16c.016-.3-.016-.576-.016-.88-.016-2.656-.032-5.5-.032-8.16a1.709 1.709 0 0 0-.048-.4 1.563 1.563 0 0 0-.1-.368.731.731 0 0 0-.172-.252 1.092 1.092 0 0 0-1.6.32 1.5 1.5 0 0 0-.16.624c-.048.9-.048 1.984-.048 2.88.016.768.032 1.488.032 2.16v1.056l-3.7-5.824-.176-.256a2.367 2.367 0 0 1-.208-.336 4.2 4.2 0 0 0-.272-.336 2.317 2.317 0 0 0-.288-.272 1.5 1.5 0 0 0-.32-.16 1.477 1.477 0 0 0-.944.128.709.709 0 0 0-.336.384 1.405 1.405 0 0 0-.176.624c-.048.88-.08 1.984-.064 2.9 0 .752 0 1.472-.016 2.144l-.016 2.32-.028 1.244v.272c-.064.752.256 1.7 1.312 1.5a.909.909 0 0 0 .416-.172 1.221 1.221 0 0 0 .384-.928V.224l.048-6.112c.432.624.832 1.392 1.2 1.968l1.344 2.032A33.583 33.583 0 0 0-6.824.928a1.267 1.267 0 0 0 1.68.3A1.358 1.358 0 0 0-4.76.16zm6.512-.976a5.8 5.8 0 0 1-2.064.368c-.784-.064-1.728-.4-1.6-1.264 1.232.032 1.952.08 2.976.032 1.168-.048 1.616-.064 1.888-.832a2.863 2.863 0 0 0-.08-1.648A3.021 3.021 0 0 0 1.24-5.792a3.788 3.788 0 0 0-3.328.08A3.412 3.412 0 0 0-3.7-3.264a4.733 4.733 0 0 0 .416 3.2 3.459 3.459 0 0 0 2.9 1.376 5.4 5.4 0 0 0 2.3-.4C2.328.736 2.9.336 2.9-.192c0-.72-.652-.768-1.148-.624zm-.688-3.1a.981.981 0 0 1 .3.7h-3.132c-.176 0 .272-.688.336-.752a1.39 1.39 0 0 1 .784-.48 1.642 1.642 0 0 1 1.072.016 1.927 1.927 0 0 1 .64.512zm12.272-1.9a.889.889 0 0 0-1.5.064 12.733 12.733 0 0 0-.656 2c-.272.848-.384 1.2-.56 1.712-.16-.512-.288-.864-.56-1.712-.256-.8-.784-2.256-1.744-1.632a3.363 3.363 0 0 0-.88 1.632c-.24.8-.384 1.184-.528 1.664-.176-.48-.32-.864-.544-1.664A7.243 7.243 0 0 0 5.628-5.8a.869.869 0 0 0-1.6.576 27.514 27.514 0 0 0 1.152 4.16c.252.872.72 2.616 1.72 2.664.74.064 1.028-1.3 1.2-1.936.288-.912.464-1.616.656-2.24.176.624.384 1.408.656 2.336.192.656.464 1.856 1.2 1.84.64 0 .848-.656 1.088-1.248.384-1.008.624-1.808.976-2.784.308-.848 1.06-2.832.66-3.392z" transform="translate(40.002 41.751)" style="fill:#fff"/>
                    </g>
                </g>
            </g>
        </g>
    </g>
    <g data-name="그룹 486310">
        <g data-name="그룹 486224" transform="translate(63.229 11.999)">
            <circle data-name="타원 8479" cx="1.778" cy="1.778" r="1.778" transform="translate(4.889)" style="fill:#dadef8"/>
            <circle data-name="타원 8480" cx="1.778" cy="1.778" r="1.778" transform="translate(4.889 9.778)" style="fill:#dadef8"/>
            <g data-name="그룹 465280" transform="rotate(90 4.222 9.111)">
                <circle data-name="타원 8481" cx="1.778" cy="1.778" r="1.778" style="fill:#dadef8"/>
                <circle data-name="타원 8482" cx="1.778" cy="1.778" r="1.778" transform="translate(0 9.778)" style="fill:#dadef8"/>
            </g>
        </g>
        <g data-name="그룹 486225" transform="translate(3.895 54.392)">
            <circle data-name="타원 8479" cx="1.778" cy="1.778" r="1.778" transform="translate(4.889)" style="fill:#dadef8"/>
            <circle data-name="타원 8480" cx="1.778" cy="1.778" r="1.778" transform="translate(4.889 9.778)" style="fill:#dadef8"/>
            <g data-name="그룹 465280" transform="rotate(90 4.222 9.111)">
                <circle data-name="타원 8481" cx="1.778" cy="1.778" r="1.778" style="fill:#dadef8"/>
                <circle data-name="타원 8482" cx="1.778" cy="1.778" r="1.778" transform="translate(0 9.778)" style="fill:#dadef8"/>
            </g>
        </g>
    </g>
</svg>
