<svg xmlns="http://www.w3.org/2000/svg" width="80" height="82" viewBox="0 0 80 82">
    <defs>
        <filter id="9aj4deibda" x="10" y="2" width="46" height="72" filterUnits="userSpaceOnUse">
            <feOffset dy="2"/>
            <feGaussianBlur stdDeviation="1" result="blur"/>
            <feFlood flood-opacity=".102"/>
            <feComposite operator="in" in2="blur"/>
            <feComposite in="SourceGraphic"/>
        </filter>
        <filter id="v8ad5rli5b" x="32" y="44" width="38" height="38" filterUnits="userSpaceOnUse">
            <feOffset dy="2"/>
            <feGaussianBlur stdDeviation="1" result="blur-2"/>
            <feFlood flood-opacity=".102"/>
            <feComposite operator="in" in2="blur-2"/>
            <feComposite in="SourceGraphic"/>
        </filter>
        <linearGradient id="7k45owa5dc" x1=".5" x2=".5" y2="1" gradientUnits="objectBoundingBox">
            <stop offset="0" stop-color="#be91ff"/>
            <stop offset="1" stop-color="#9550ff"/>
        </linearGradient>
    </defs>
    <g data-name="그룹 486288">
        <g data-name="그룹 486206">
            <g data-name="그룹 486199">
                <g data-name="그룹 486198">
                    <g data-name="그룹 484205">
                        <g data-name="그룹 484204">
                            <g style="filter:url(#9aj4deibda)">
                                <rect data-name="사각형 348906" width="40" height="66" rx="10" transform="translate(12.997 3.003)" style="fill:#e3e6f9"/>
                            </g>
                            <path data-name="선 126776" transform="translate(30 10.001)" style="fill:none;stroke:#fff;stroke-linecap:round;stroke-linejoin:round;stroke-width:3px" d="M0 0h6"/>
                        </g>
                    </g>
                </g>
            </g>
            <g data-name="그룹 486205">
                <path data-name="합치기 29" d="M1.527 21a2.7 2.7 0 0 1-2.7-2.7V18a9 9 0 0 1 6.524-8.655 5 5 0 1 1 4.952 0A9 9 0 0 1 16.827 18v.3a2.7 2.7 0 0 1-2.7 2.7z" transform="translate(25.173 19)" style="fill:#aeaae8;stroke:transparent;stroke-miterlimit:10"/>
            </g>
        </g>
        <g data-name="그룹 486287">
            <g style="filter:url(#v8ad5rli5b)">
                <circle data-name="타원 24" cx="16" cy="16" r="16" transform="translate(35 45)" style="fill:url(#7k45owa5dc)"/>
            </g>
            <path data-name="패스 862743" d="M6.456-13.608a1.807 1.807 0 0 0-1.632-1.464 1.717 1.717 0 0 0-1.8 1.584 85 85 0 0 1-.312 9.312 3.821 3.821 0 0 1-.384 1.224A2.837 2.837 0 0 1 .144-1.416 2.433 2.433 0 0 1-2.28-2.424c-.7-1.008-.816-2.64-.816-4.536 0-1.008.144-4.536 0-6.672a1.551 1.551 0 0 0-.24-.816 1.926 1.926 0 0 0-2.832-.052 5.307 5.307 0 0 0-.456 2.784c-.048 1.3 0 3.912 0 5.16-.024 2.644.264 5.02 2.184 6.892A5.969 5.969 0 0 0 .072 2.04 6.129 6.129 0 0 0 5.064-.7a10.918 10.918 0 0 0 .888-2.016c.672-2.252.864-7.82.504-10.892z" transform="translate(51 68)" style="fill:#fff"/>
        </g>
    </g>
</svg>
