<svg xmlns="http://www.w3.org/2000/svg" width="48" height="48" viewBox="0 0 48 48">
  <defs>
    <style>
      .cls-1 {
        fill: #feebeb;
        opacity: 0;
      }

      .cls-2 {
        fill: #662d91;
      }
    </style>
  </defs>
  <g id="그룹_484303" data-name="그룹 484303" transform="translate(-40 -1076)">
    <rect id="사각형_348678" data-name="사각형 348678" class="cls-1" width="48" height="48" transform="translate(40 1076)"/>
    <path id="패스_845787" data-name="패스 845787" class="cls-2" d="M27.074,623.319c.1-.562.176-1.13.305-1.685a10.093,10.093,0,0,1,2.355-4.5,3.133,3.133,0,0,1,4.913.285c1.118,1.63,2.208,3.283,3.254,4.961a2.988,2.988,0,0,1-.138,3.518,2.319,2.319,0,0,0,.28,3.309q2.273,2.273,4.548,4.544a2.3,2.3,0,0,0,3.24.252,3.08,3.08,0,0,1,3.574-.148c1.649,1.053,3.291,2.118,4.907,3.223a3.142,3.142,0,0,1,.255,4.976,10.323,10.323,0,0,1-5.9,2.561,1.972,1.972,0,0,0-.235.053H46.887a1.626,1.626,0,0,0-.207-.048,10.3,10.3,0,0,1-6.5-3.063q-5.018-5-10.022-10.016a10.215,10.215,0,0,1-2.789-5c-.124-.535-.2-1.081-.295-1.622Z" transform="translate(22.629 469.625)"/>
  </g>
</svg>
