<svg xmlns="http://www.w3.org/2000/svg" width="40" height="40" viewBox="0 0 40 40">
    <g data-name="그룹 492556">
        <g data-name="그룹 492555">
            <g data-name="그룹 484213">
                <path data-name="합치기 49" d="M.272 10v-.024L0 9.98V3.932A3.828 3.828 0 0 1 3.018 0 3.415 3.415 0 0 1 6 3.349V5.14h0V8a2 2 0 0 1-2 2z" transform="translate(26.499 7.5)" style="stroke-linejoin:round;stroke-linecap:round;stroke:#191919;stroke-width:1.5px;fill:#fff"/>
                <path data-name="합치기 72" d="m12.035 22.045-1.4-1.3a.925.925 0 0 0-.54-.23.933.933 0 0 0-.516.229l-1.408 1.3a1.253 1.253 0 0 1-1.614 0L5.293 20.87a.964.964 0 0 0-.648-.236H4.61a.959.959 0 0 0-.43.158L2.44 22a1.241 1.241 0 0 1-.709.212 1.286 1.286 0 0 1-.743-.227.741.741 0 0 1-.331-.6V4.1A3.677 3.677 0 0 1 3.689.375 3.237 3.237 0 0 1 4.15.338h18.49v.053h.017A3.673 3.673 0 0 0 19.6 4.1v10.412a2.12 2.12 0 0 1 .052.468v6.4c0 .519-.551.83-1.083.83a1.255 1.255 0 0 1-.712-.21L16.1 20.79a.967.967 0 0 0-.468-.161v.014c-.031 0-.066-.005-.1-.005a.938.938 0 0 0-.642.238l-1.256 1.171a1.239 1.239 0 0 1-1.6 0z" transform="translate(6.842 7.163)" style="stroke-linejoin:round;stroke-linecap:round;stroke:#191919;stroke-width:1.5px;fill:#fff"/>
                <g data-name="그룹 484224" style="isolation:isolate">
                    <path data-name="선 126605" style="fill:none;stroke-linecap:round;stroke:#191919;stroke-width:1.5px" d="M0 0h10.142" transform="translate(11.504 13.296)"/>
                    <path data-name="선 126607" transform="translate(11.504 17.958)" style="fill:none;stroke-linecap:round;stroke:#191919;stroke-width:1.5px" d="M0 0h6.589"/>
                </g>
                <path data-name="패스 862719" d="m5.3 5.121 5 5" transform="translate(22.199 22.38)" style="fill:none;stroke-linecap:round;stroke:#191919;stroke-width:1.5px"/>
                <path data-name="패스 862540" d="M5 0a5 5 0 1 1-5 5 5 5 0 0 1 5-5z" transform="translate(20.499 20.501)" style="stroke:#191919;stroke-width:1.5px;fill:#fff"/>
            </g>
        </g>
    </g>
</svg>
