<svg xmlns="http://www.w3.org/2000/svg" width="80" height="80" viewBox="0 0 80 80">
    <defs>
        <filter id="hekt85pb5a" x="35" y="40" width="38" height="38" filterUnits="userSpaceOnUse">
            <feOffset dy="2"/>
            <feGaussianBlur stdDeviation="1" result="blur"/>
            <feFlood flood-opacity=".102"/>
            <feComposite operator="in" in2="blur"/>
            <feComposite in="SourceGraphic"/>
        </filter>
    </defs>
    <g data-name="icon">
        <g transform="rotate(-90 38.8 28.8)">
            <path data-name="빼기 1" d="M60.6 8.231v19.6C60.6 34.566 54.363 46 41.03 46H14.72A9.862 9.862 0 0 1 4.6 36.417V9.583A9.862 9.862 0 0 1 14.72 0H51.6c5.587 0 9 2.938 9 8.231z" style="fill:#e3e6f9"/>
            <rect data-name="사각형 348869" width="30" height="24" rx="8" transform="rotate(90 14.3 22.3)" style="fill:#aeaae8"/>
            <g data-name="그룹 484108" transform="translate(44.333 9.6)">
                <rect data-name="사각형 348870" width="9" height="4" rx="2" transform="translate(-.732 .4)" style="fill:#aeaae8"/>
                <rect data-name="사각형 350205" width="9" height="4" rx="2" transform="translate(-.732 10.4)" style="fill:#aeaae8"/>
            </g>
        </g>
        <g data-name="그룹 486204">
            <g style="filter:url(#hekt85pb5a)">
                <path data-name="bg" d="M119.645 85.353a16 16 0 1 0-16 16 16 16 0 0 0 16-16z" transform="translate(-49.643 -28.346)" style="fill:#42ccb0"/>
            </g>
            <g data-name="그룹 484099">
                <path data-name="선 442" transform="translate(47.725 57.178)" style="fill:none;stroke:#fff;stroke-linecap:round;stroke-linejoin:round;stroke-width:3px" d="m0 0 3.688 3.688"/>
                <path data-name="선 443" transform="translate(51.411 52.569)" style="fill:none;stroke:#fff;stroke-linecap:round;stroke-linejoin:round;stroke-width:3px" d="M8.297 0 0 8.297"/>
            </g>
        </g>
    </g>
</svg>
