<svg xmlns="http://www.w3.org/2000/svg" width="80" height="80" viewBox="0 0 80 80">
    <path style="fill:none" d="M0 0h80v80H0z"/>
    <g data-name="icon" transform="translate(0 -4)">
        <circle cx="36" cy="36" r="36" transform="translate(4 8)" style="fill:#144393"/>
        <path d="M-321.439 163.3a4.788 4.788 0 0 1-1.05.117c-1.369 0-2.59-.5-2.717-1.906a4.7 4.7 0 0 1-.027-.513v-3.24c0-.143.018-.38.032-.506.173-1.444 1.343-1.913 2.712-1.913s2.571.461 2.708 1.913a4.81 4.81 0 0 1 .017.506v.258h-1.948v-.44a1.567 1.567 0 0 0-.026-.288.7.7 0 0 0-.767-.56.709.709 0 0 0-.771.56 1.722 1.722 0 0 0-.031.367v3.524a1.834 1.834 0 0 0 .017.287.714.714 0 0 0 .791.557.706.706 0 0 0 .788-.557 1.32 1.32 0 0 0 .019-.287v-1.115h-.792v-1.126h2.732V161a3.8 3.8 0 0 1-.029.513 1.825 1.825 0 0 1-.791 1.407zm-50.631-7.868a4.646 4.646 0 0 1 1.1-.13c1.1 0 2.609.259 2.609 1.949v.537h-1.924v-.48a.659.659 0 0 0-.718-.692.635.635 0 0 0-.706.522.9.9 0 0 0 .012.4c.212.907 3.143 1.387 3.469 3a3.671 3.671 0 0 1 .01 1.269c-.185 1.287-1.335 1.766-2.733 1.766-1.45 0-2.8-.523-2.8-2.248v-.591h2.069v.745a.691.691 0 0 0 .783.7c.512 0 .69-.254.748-.508a1.043 1.043 0 0 0-.012-.573c-.4-1-3.142-1.459-3.479-3.033a2.643 2.643 0 0 1-.014-1.043 1.766 1.766 0 0 1 .76-1.225zm9.369 7.824-1.052-7.135-1.077 7.135h-2.085l1.432-7.713h3.433l1.42 7.713zm10.261 0-.06-7.135-1.321 7.135h-1.958l-1.329-7.135-.053 7.135h-1.929l.168-7.713h3.147l.969 6.04.983-6.04h3.142l.171 7.713zm9.29-1.471c-.178 1.273-1.322 1.748-2.7 1.748-1.432 0-2.772-.515-2.772-2.229v-.586h2.049v.741a.69.69 0 0 0 .771.7.661.661 0 0 0 .745-.514.966.966 0 0 0-.017-.567c-.394-.991-3.112-1.44-3.441-3a2.528 2.528 0 0 1-.014-1.034c.2-1.25 1.312-1.693 2.667-1.693 1.083 0 2.573.26 2.573 1.924v.537h-1.9v-.479a.653.653 0 0 0-.708-.692.64.64 0 0 0-.7.514 1.02 1.02 0 0 0 .009.405c.217.894 3.116 1.372 3.446 2.974a4.1 4.1 0 0 1 0 1.252m7.255-.707a3.65 3.65 0 0 1-.009.513c-.142 1.441-1.273 1.906-2.7 1.906s-2.552-.465-2.691-1.906a12.471 12.471 0 0 1-.014-.513v-5.535h1.948v5.72a1.65 1.65 0 0 0 .017.292.7.7 0 0 0 .74.559.7.7 0 0 0 .742-.559 1.477 1.477 0 0 0 .022-.292v-5.72h1.941zm8.634 2.109h-2.753l-1.946-6.416.107 6.416h-1.9v-7.644h2.868l1.816 6.222-.106-6.222h1.91z" transform="translate(386.752 -115.305)" style="fill:#fff"/>
    </g>
</svg>
