<svg xmlns="http://www.w3.org/2000/svg" width="22" height="22" viewBox="0 0 22 22">
    <g data-name="회원정보수정 아이콘">
        <path data-name="패스 847297" d="M17.984 7.291 15.37 4.678a1.15 1.15 0 0 0-1.628 0l-8 8a1.448 1.448 0 0 0-.419.9L5 17.181a.441.441 0 0 0 .478.477l3.593-.32a1.459 1.459 0 0 0 .9-.419l8.012-8a1.152 1.152 0 0 0 .001-1.628zm-2 2.218a.5.5 0 0 1-.707 0l-2.125-2.122a.5.5 0 1 1 .707-.707l2.122 2.12a.5.5 0 0 1 0 .709z" transform="translate(-1.002 -.342)" style="fill:#662d91"/>
    </g>
</svg>
