<svg xmlns="http://www.w3.org/2000/svg" width="120" height="124.5" viewBox="0 0 120 124.5">
    <defs>
        <filter id="mdkhlde7za" x="20.501" y="5.5" width="79" height="119" filterUnits="userSpaceOnUse">
            <feOffset dy="5"/>
            <feGaussianBlur stdDeviation="2.5" result="blur"/>
            <feFlood flood-opacity=".051"/>
            <feComposite operator="in" in2="blur"/>
            <feComposite in="SourceGraphic"/>
        </filter>
        <filter id="f5811vt1cb" x="32.502" y="28.501" width="55" height="55" filterUnits="userSpaceOnUse">
            <feOffset dy="5"/>
            <feGaussianBlur stdDeviation="2.5" result="blur-2"/>
            <feFlood flood-opacity=".051"/>
            <feComposite operator="in" in2="blur-2"/>
            <feComposite in="SourceGraphic"/>
        </filter>
    </defs>
    <g data-name="그룹 484205">
        <g data-name="그룹 484204">
            <g style="filter:url(#mdkhlde7za)">
                <rect data-name="사각형 348906" width="64" height="104" rx="12" transform="translate(27.995 8.004)" style="fill:#d2d5e8"/>
            </g>
            <path data-name="선 126776" transform="translate(55.002 20.001)" style="stroke-linejoin:round;stroke-width:4px;stroke:#fff;fill:none;stroke-linecap:round" d="M0 0h10"/>
            <g data-name="그룹 486291">
                <path data-name="선 126605" transform="translate(44 82)" style="stroke-width:6px;stroke:#fff;fill:none;stroke-linecap:round" d="M0 0h32"/>
                <path data-name="선 126607" transform="translate(44.001 96)" style="stroke-width:6px;stroke:#fff;fill:none;stroke-linecap:round" d="M0 0h16"/>
            </g>
            <g data-name="그룹 486292">
                <g style="filter:url(#f5811vt1cb)">
                    <circle data-name="타원 24" cx="20" cy="20" r="20" transform="translate(40.001 31.001)" style="fill:#f76bb8"/>
                </g>
                <path data-name="패스 862730" d="M-1.75-18.228a3.745 3.745 0 0 0-.392 1.764v9.38c0 .7-.028 1.4 0 2.044a6.474 6.474 0 0 0 .2 1.316c.5 1.2 3.192 1.288 3.7.028a6.308 6.308 0 0 0 .2-2.184v-8.26c0-1.2.42-4.284-1.148-4.7a5.29 5.29 0 0 0-1.176-.084 1.673 1.673 0 0 0-1.384.696zm3.22 18A2.519 2.519 0 0 0-.462-.672a1.277 1.277 0 0 0-1.316.728 2.891 2.891 0 0 0 .028 1.82C-1.386 2.856.182 3 .994 2.66A1.869 1.869 0 0 0 1.75.336a1.752 1.752 0 0 0-.28-.56z" transform="translate(60.001 58.5)" style="fill:#fff;stroke-width:.4px;stroke:#fff"/>
            </g>
        </g>
    </g>
</svg>
