<svg xmlns="http://www.w3.org/2000/svg" width="120" height="120" viewBox="0 0 120 120">
    <defs>
        <filter id="w8vyresbfa" x=".5" y="11.5" width="105" height="89" filterUnits="userSpaceOnUse">
            <feOffset dy="5"/>
            <feGaussianBlur stdDeviation="2.5" result="blur"/>
            <feFlood flood-opacity=".051"/>
            <feComposite operator="in" in2="blur"/>
            <feComposite in="SourceGraphic"/>
        </filter>
        <filter id="9vm0p38wob" x="56.5" y="55.5" width="63" height="63" filterUnits="userSpaceOnUse">
            <feOffset dy="5"/>
            <feGaussianBlur stdDeviation="2.5" result="blur-2"/>
            <feFlood flood-opacity=".102"/>
            <feComposite operator="in" in2="blur-2"/>
            <feComposite in="SourceGraphic"/>
        </filter>
    </defs>
    <path data-name="bg" d="M145.035 98.048a28.7 28.7 0 1 0-28.7 28.7 28.7 28.7 0 0 0 28.7-28.7z" transform="translate(-29.945 -15.087)" style="fill:none"/>
    <g data-name="그룹 484264">
        <g data-name="그룹 465504">
            <g style="filter:url(#w8vyresbfa)">
                <rect data-name="사각형 341209" width="90" height="74" rx="16" transform="translate(7.998 14.002)" style="fill:#e3e6f9"/>
            </g>
            <g data-name="그룹 484240">
                <path data-name="선 126659" transform="translate(64 33.999)" style="stroke:#fff;stroke-linecap:round;stroke-linejoin:round;stroke-width:6px;fill:none" d="M0 0h17"/>
                <path data-name="선 126660" transform="translate(64 45.999)" style="stroke:#fff;stroke-linecap:round;stroke-linejoin:round;stroke-width:6px;fill:none" d="M0 0h17"/>
            </g>
            <g data-name="그룹 484248">
                <path data-name="합치기 29" d="M3.415 27.644A3.415 3.415 0 0 1 0 24.229v-1.463A11.388 11.388 0 0 1 7.824 11.95a6.5 6.5 0 1 1 7.119 0 11.388 11.388 0 0 1 7.823 10.815v1.463a3.415 3.415 0 0 1-3.416 3.416z" transform="translate(24 29.999)" style="fill:#aeaae8;stroke:transparent;stroke-miterlimit:10"/>
            </g>
        </g>
        <g data-name="그룹 486306">
            <g style="filter:url(#9vm0p38wob)">
                <circle data-name="box" cx="24" cy="24" r="24" transform="translate(64.003 58.003)" style="fill:#42ccb0"/>
            </g>
            <g data-name="그룹 484099">
                <path data-name="선 442" transform="translate(78.617 82.639)" style="stroke:#fff;stroke-linecap:round;stroke-linejoin:round;stroke-width:6px;fill:none" d="m0 0 5.617 5.617"/>
                <path data-name="선 443" transform="translate(84.232 75.618)" style="stroke:#fff;stroke-linecap:round;stroke-linejoin:round;stroke-width:6px;fill:none" d="M12.639 0 0 12.639"/>
            </g>
        </g>
    </g>
</svg>
