<svg xmlns="http://www.w3.org/2000/svg" width="92" height="18" viewBox="0 0 92 18">
    <defs>
        <clipPath id="0mf8vz4h7a">
            <path data-name="사각형 341149" style="fill:none" d="M0 0h92v18H0z"/>
        </clipPath>
    </defs>
    <path style="opacity:.9;fill:none" d="M0 0h92v18H0z"/>
    <g data-name="그룹 465155" style="clip-path:url(#0mf8vz4h7a)">
        <path data-name="패스 842240" d="M8.588 10.283V6.338c0-2.814 1.375-4.3 4.23-4.515a8.288 8.288 0 0 1 4.356.53 1.508 1.508 0 0 0 1.3-.077 8.373 8.373 0 0 1 5.892-.031 3.482 3.482 0 0 1 2.534 3.6c.011 3.157-.032 6.319.022 9.472.015.832-.276 1.01-1.038.962a2.322 2.322 0 0 1-2.428-2.645c-.017-2.444 0-4.893-.007-7.327 0-1.483-.51-1.978-1.97-1.978s-2 .539-2.009 1.971c-.011 2.935-.032 5.868.015 8.8.013.814-.171 1.111-1.06 1.094-2.43-.035-2.43.007-2.43-2.422V6.441c0-1.593-.473-2.1-1.946-2.11s-1.994.513-1.994 2.064c0 2.9-.026 5.791.017 8.687.013.8-.137 1.122-1.045 1.111-2.43-.031-2.43.016-2.43-2.416z" transform="translate(7.329 1.436)" style="fill-rule:evenodd;fill:#49474d"/>
        <path data-name="패스 842241" d="M.019 9.665a22.336 22.336 0 0 1 .146-4.11A5.9 5.9 0 0 1 4.067.685 9.829 9.829 0 0 1 11.5.793 4.789 4.789 0 0 1 14.725 5.3a4.6 4.6 0 0 1-2.971 4.416 50.079 50.079 0 0 1-5.713 1.85 8.506 8.506 0 0 0-.96.337c-.6.277-1.2.625-1.166 1.369a1.812 1.812 0 0 0 1.29 1.58 3.858 3.858 0 0 0 5.195-1.874.66.66 0 0 1 .71-.4c.532-.011 1.064 0 1.592 0 1.75 0 1.835.11 1.164 1.758a5.724 5.724 0 0 1-5.034 3.51 11.041 11.041 0 0 1-3.961-.117A5.757 5.757 0 0 1 .115 12.52a22.313 22.313 0 0 1-.1-2.854m3.865-.327a29.59 29.59 0 0 0 5.666-1.831 2.163 2.163 0 0 0 .541-3.725A3.884 3.884 0 0 0 6.128 3.1 3.17 3.17 0 0 0 3.9 5.97a33.22 33.22 0 0 0-.02 3.369" transform="translate(0 .006)" style="fill:#ffa30a;fill-rule:evenodd"/>
        <path data-name="패스 842242" d="M31.484 8.856c0 .72.013 1.432 0 2.145-.07 3.041-1.589 4.9-4.593 5.393a9.465 9.465 0 0 1-4.725-.339A4.2 4.2 0 0 1 19.05 12.3c-.057-1.694.88-2.99 2.886-3.751 1.373-.515 2.81-.88 4.215-1.329a8.129 8.129 0 0 0 1.164-.442 1.086 1.086 0 0 0 .119-1.978 3.21 3.21 0 0 0-4.675 1.252c-.154.357-.3.451-.641.438-.3-.013-.608-.005-.91-.005-1.837 0-2.006-.273-1.272-1.974a3.974 3.974 0 0 1 2.53-2.277 9.388 9.388 0 0 1 6.239.04 3.823 3.823 0 0 1 2.719 3.542c.069 1.012.011 2.026.011 3.038zM28 10.724V9.707c0-.339-.108-.519-.469-.4a25.662 25.662 0 0 0-3.883 1.247 1.684 1.684 0 0 0-1.073 1.811 1.847 1.847 0 0 0 1.718 1.564c1.874.291 3.913-.651 3.707-3.2" transform="translate(16.258 1.435)" style="fill-rule:evenodd;fill:#49474d"/>
        <path data-name="패스 842243" d="M53.211 5.971c0 1.391.03 2.786-.013 4.176-.017.662.161 1 .888.906a.863.863 0 0 1 .449.005c.536.227 1.475-.576 1.626.59.122.966-.578 2.134-1.487 2.071-1.648-.115-1.52.825-1.468 1.87a2.045 2.045 0 0 1-.892 2.055 2.3 2.3 0 0 1-1.98.192c-.554-.183-.248-.852-.254-1.3-.028-2.72-.013-2.72-2.782-2.72-1.142 0-2.284-.018-3.424 0A1.81 1.81 0 0 1 42 12.81a1.868 1.868 0 0 1 .178-2.02q3.553-4.831 7.129-9.646A2.548 2.548 0 0 1 51.1.051a1.707 1.707 0 0 1 2.1 1.861c.022 1.355.006 2.711.006 4.059m-3.14-.735c-.076-.035-.154-.068-.228-.1l-3.972 5.305c-.295.405-.167.62.335.62 1.1-.005 2.2-.02 3.307 0 .58.009.558-.363.558-.75V5.239" transform="translate(35.67 .025)" style="fill:#ffa30a;fill-rule:evenodd"/>
        <path data-name="패스 842244" d="M40.628 14.687c1.935 0 3.748.048 5.557-.026.949-.038 1.2.293 1.094 1.153a1.827 1.827 0 0 1-1.828 1.8c-2.549.044-5.092.051-7.637 0a1.9 1.9 0 0 1-1.752-2.636 4 4 0 0 1 .984-1.492c1.854-1.888 3.7-3.773 5.531-5.681a6.159 6.159 0 0 0 .953-1.254 2.414 2.414 0 0 0-.184-2.851 2.264 2.264 0 0 0-2.469-.735c-1.081.227-1.475 1.065-1.74 2.011-.119.407.182 1.111-.324 1.2A12.326 12.326 0 0 1 36.1 6.2c-.25-.015-.2-.368-.195-.585a5.083 5.083 0 0 1 2.817-4.9 6.389 6.389 0 0 1 6.21.185c2.821 1.571 3.142 5.631.671 8.324-1.381 1.509-2.847 2.928-4.269 4.389a1.883 1.883 0 0 0-.706 1.072" transform="translate(30.639)" style="fill:#ffa30a;fill-rule:evenodd"/>
        <path data-name="패스 842245" d="M37.194 15.123c.124 2.447.6 2.59-2.3 2.662-3 .071-4.057-.994-4.057-3.936 0-4.247.017-8.493-.017-12.737 0-.706.15-.97.93-.953 1.8.037 2.4.477 2.489 2.291.039.783.291.979.99.895a1.885 1.885 0 0 1 .68 0c.46.106 1.175-.35 1.331.416a1.745 1.745 0 0 1-.677 1.8 1.624 1.624 0 0 1-.925.383c-1.4-.139-1.414.667-1.383 1.7.063 1.873.013 3.754.019 5.631.007 1.8.354 2.115 2.139 1.961.26-.024.519-.075.778-.117" transform="translate(26.308 .132)" style="fill-rule:evenodd;fill:#49474d"/>
        <path data-name="패스 842246" d="M33.3 4.423c-3.1-.313-3.342-.1-3.342 2.946 0 2.632-.02 5.257.017 7.892.007.667-.167.9-.884.913-2.534.027-2.534.059-2.534-2.422 0-2.816-.013-5.637 0-8.456.015-2.3 1.14-3.426 3.47-3.534a8.705 8.705 0 0 1 1.136.013c2.715.211 2.295.06 2.133 2.649" transform="translate(22.665 1.457)" style="fill-rule:evenodd;fill:#49474d"/>
    </g>
</svg>
