<svg xmlns="http://www.w3.org/2000/svg" width="39.368" height="24.25" viewBox="0 0 39.368 24.25">
  <defs>
    <style>
      .cls-1 {
        fill: #652d8d;
      }

      .cls-2 {
        fill: #aace37;
      }
    </style>
  </defs>
  <g id="그룹_492558" data-name="그룹 492558" transform="translate(-111.571 -281.283)">
    <g id="그룹_492559" data-name="그룹 492559" transform="translate(111.571 281.283)">
      <g id="그룹_492558-2" data-name="그룹 492558" transform="translate(0 0)">
        <path id="패스_862728" data-name="패스 862728" class="cls-1" d="M303.724,341.071a1.651,1.651,0,0,0-1.649,1.649v3.809a2.394,2.394,0,1,1-4.736,0V342.72a1.61,1.61,0,0,0-1.605-1.649,1.651,1.651,0,0,0-1.649,1.649V346.6a5.593,5.593,0,0,0,5.623,5.857,5.519,5.519,0,0,0,4.043-1.718,6.067,6.067,0,0,0,1.623-4.211V342.72a1.651,1.651,0,0,0-1.649-1.649" transform="translate(-274.134 -334.536)"/>
        <path id="패스_862729" data-name="패스 862729" class="cls-2" d="M149.64,305.161a1.3,1.3,0,0,1-.414-.068l-4.448-1.127a12.09,12.09,0,0,1-5.963,1.566H123.7a12.125,12.125,0,0,1,0-24.25h5.221a1.3,1.3,0,0,1,0,2.6H123.7a9.526,9.526,0,1,0,0,19.053h15.119a9.493,9.493,0,0,0,5.111-1.486,1.3,1.3,0,0,1,1.113-.135l2.912.859-1.23-2.541a1.3,1.3,0,0,1,.136-1.113,9.528,9.528,0,0,0-8.041-14.638h-5.221a1.3,1.3,0,0,1,0-2.6h5.221a12.128,12.128,0,0,1,10.559,18.088l1.5,4.077a1.3,1.3,0,0,1-1.231,1.714" transform="translate(-111.571 -281.283)"/>
        <path id="패스_862730" data-name="패스 862730" class="cls-1" d="M190.81,345.286a1.638,1.638,0,0,0-1.166.483,2.632,2.632,0,0,1-3.719,0,2.535,2.535,0,0,1,0-3.72,2.629,2.629,0,0,1,3.719,0,1.649,1.649,0,0,0,2.332-2.332,5.926,5.926,0,1,0,0,8.385,1.649,1.649,0,0,0-1.166-2.816" transform="translate(-174.177 -331.783)"/>
      </g>
    </g>
  </g>
</svg>
