<svg xmlns="http://www.w3.org/2000/svg" width="26" height="26" viewBox="0 0 26 26">
    <path data-name="사각형 341213" style="fill:#fff" d="M0 0h26v26H0z"/>
    <g data-name="그룹 465725">
        <path data-name="패스 842338" d="M19.99 27.231v-5.062c0-1.348.39-2.516 1.414-2.876l4.369-1.5a3.7 3.7 0 0 0 .3-1.535 5.172 5.172 0 0 0-3.521-5.058L10.587 7.591l3.121-1.079a1.832 1.832 0 0 1 .561-.089 2.111 2.111 0 0 1 .583.087l12.209 3.682c2.125.683 2.917 3.134 2.917 4.46a2.693 2.693 0 0 1-1.565 2.733c-1.054.37-4.216 1.462-4.216 1.462a4.346 4.346 0 0 0-.3 1.848c0 .621-.011 3.962-.011 4.56 0 1.434-.716 2.737-2.091 2.737a2.758 2.758 0 0 1-1.807-.763" transform="translate(-5.373 -5.029)" style="fill:#ec6300"/>
        <path data-name="패스 842339" d="M16.512 16.012a5.645 5.645 0 0 1 .948 3.063v4.245c0 2.628 1.261 4.77 3.339 5.381l-3.207 1.066a2 2 0 0 1-1.652-.242 5.087 5.087 0 0 1-2.382-4.753c0-1.079-.008-2.555-.008-4.455a5.625 5.625 0 0 0-1.218-3.285 4.183 4.183 0 0 0-2.017-1.432 4.86 4.86 0 0 1-2.851-4.453c0-1.666.88-2.716 2.05-2.8a1.818 1.818 0 0 1 .669.087c.694.2 1.255.39 1.255.39a5.315 5.315 0 0 0 3.132 5.684 3.594 3.594 0 0 1 1.943 1.5" transform="translate(-5.014 -5.251)" style="fill:#da0026"/>
    </g>
</svg>
