<svg xmlns="http://www.w3.org/2000/svg" width="116" height="29" viewBox="0 0 116 29">
    <defs>
        <clipPath id="wiz07qpwsa">
            <path data-name="사각형 341699" style="fill:none" d="M0 0h116v29H0z"/>
        </clipPath>
    </defs>
    <g style="clip-path:url(#wiz07qpwsa)">
        <path data-name="패스 842299" d="M703.345.246v.81A4.608 4.608 0 0 0 700.419 0a5.013 5.013 0 0 0-4.833 5.175 5.013 5.013 0 0 0 4.833 5.175 4.607 4.607 0 0 0 2.926-1.057v.886h2.22V.246zm-2.688 8.147a3.073 3.073 0 0 1-2.9-3.219 2.917 2.917 0 1 1 5.8 0 3.073 3.073 0 0 1-2.9 3.219" transform="translate(-610.443 9.281)" style="fill:#003e92"/>
        <path data-name="패스 842300" d="M594.173 0a4.611 4.611 0 0 0-2.961 1.087V.246h-2.22v13.528h2.22V9.262a4.611 4.611 0 0 0 2.961 1.087 5.013 5.013 0 0 0 4.833-5.175A5.013 5.013 0 0 0 594.173 0m-.247 8.394a3.077 3.077 0 0 1-2.911-3.219 2.926 2.926 0 1 1 5.822 0 3.077 3.077 0 0 1-2.911 3.219" transform="translate(-515.118 7.541)" style="fill:#003e92"/>
        <path data-name="패스 842301" d="M810.572 2.339 807.725 9.1l-3.047-6.763h-2.2l4.186 9.291-1.783 4.236h2.179l5.694-13.527z" transform="translate(-706.031 5.201)" style="fill:#003e92"/>
        <path data-name="패스 842302" d="m413.816 15.289.114 6.544h-.046l-1.917-6.544h-3.095v8.251h2.049l-.115-6.769h.046l2.06 6.769h2.969v-8.251z" transform="translate(-354.044 -4.849)" style="fill:#003e92"/>
        <path data-name="패스 842303" d="M71.344 15.289 69.8 23.627h2.254l1.141-7.567h.047l1.111 7.567h2.24l-1.537-8.337z" transform="translate(-50.818 -4.849)" style="fill:#003e92"/>
        <path data-name="패스 842304" d="m155.481 15.289-1.029 6.374h-.052l-1.026-6.374h-3.4l-.184 8.337h2.085l.052-7.5h.047l1.394 7.5h2.114l1.392-7.5h.047l.053 7.5h2.086l-.184-8.337z" transform="translate(-122.357 -4.849)" style="fill:#003e92"/>
        <path data-name="패스 842305" d="M3.872 19.02a1.1 1.1 0 0 1 .016.619.722.722 0 0 1-.813.555.744.744 0 0 1-.837-.752v-.811H0v.644c0 1.86 1.463 2.418 3.029 2.418 1.512 0 2.75-.511 2.95-1.9a4.069 4.069 0 0 0-.009-1.371c-.352-1.746-3.516-2.262-3.752-3.242a1.071 1.071 0 0 1-.009-.435.689.689 0 0 1 .762-.562.712.712 0 0 1 .776.757v.513h2.08v-.583c0-1.817-1.631-2.1-2.812-2.1-1.482 0-2.692.493-2.914 1.852a2.87 2.87 0 0 0 .02 1.123c.362 1.7 3.324 2.2 3.753 3.276" transform="translate(11.6 -2.909)" style="fill:#003e92"/>
        <path data-name="패스 842306" d="M260.565 19.39a1.117 1.117 0 0 1 .016.612c-.067.275-.254.55-.8.55a.735.735 0 0 1-.83-.744v-.8h-2.216v.639c0 1.84 1.45 2.392 3 2.392 1.493 0 2.721-.5 2.917-1.882a4.039 4.039 0 0 0-.009-1.359c-.349-1.727-3.481-2.24-3.713-3.208a1.066 1.066 0 0 1-.01-.43.681.681 0 0 1 .754-.555.7.7 0 0 1 .767.745v.511h2.059v-.576c0-1.8-1.615-2.081-2.781-2.081-1.468 0-2.668.482-2.887 1.832a2.791 2.791 0 0 0 .02 1.112c.357 1.687 3.29 2.177 3.717 3.244" transform="translate(-217.986 -3.342)" style="fill:#003e92"/>
        <path data-name="패스 842307" d="M334.42 22.37a.747.747 0 0 0 .8-.6 1.642 1.642 0 0 0 .021-.319v-6.167h2.112v5.976c0 .151-.014.466-.023.55-.147 1.554-1.378 2.057-2.91 2.057s-2.763-.5-2.907-2.057a6.511 6.511 0 0 1-.02-.55v-5.976h2.107v6.166a1.742 1.742 0 0 0 .021.319.746.746 0 0 0 .8.6" transform="translate(-284.845 -4.844)" style="fill:#003e92"/>
        <path data-name="패스 842308" d="M498.681 20.37a.776.776 0 0 0 .851-.6 1.465 1.465 0 0 0 .02-.319v-1.209h-.852v-1.22h2.95v2.238c0 .157 0 .271-.027.551-.138 1.516-1.455 2.061-2.932 2.061s-2.794-.545-2.932-2.061a6.061 6.061 0 0 1-.03-.551v-3.508a5.242 5.242 0 0 1 .035-.547c.183-1.562 1.447-2.06 2.925-2.06s2.772.493 2.927 2.06a5.2 5.2 0 0 1 .015.547v.277h-2.1v-.469a1.664 1.664 0 0 0-.025-.313.76.76 0 0 0-.833-.606.772.772 0 0 0-.831.606 1.924 1.924 0 0 0-.034.39v3.813a1.976 1.976 0 0 0 .02.319.78.78 0 0 0 .852.6" transform="translate(-431.716 -3.284)" style="fill:#003e92"/>
    </g>
</svg>
