<svg xmlns="http://www.w3.org/2000/svg" width="73" height="29" viewBox="0 0 73 29">
    <defs>
        <clipPath id="btngvp59ja">
            <path data-name="사각형 341700" style="fill:none" d="M0 0h73v29H0z"/>
        </clipPath>
    </defs>
    <g style="clip-path:url(#btngvp59ja)">
        <path data-name="패스 842309" d="M3.431 9.437a.565.565 0 0 1-.563-.564V.563A.565.565 0 0 0 2.3 0H.563A.564.564 0 0 0 0 .563V9.58a1.562 1.562 0 0 0 .4.961l.87.872a1.578 1.578 0 0 0 .962.4h6.015a.565.565 0 0 0 .563-.564V10a.564.564 0 0 0-.563-.563z" transform="translate(13.906 6.992)" style="fill:#0083b4"/>
        <path data-name="패스 842310" d="M18.991 19.082a.883.883 0 0 1-.375-.082 31.377 31.377 0 0 1-.418-.187l-.092-.04a.29.29 0 0 1-.164-.254V17.29a.212.212 0 0 1 .125-.2s.632-.3.677-.326a.576.576 0 0 1 .49 0l.677.326a.214.214 0 0 1 .127.2v1.23a.292.292 0 0 1-.165.254l-.056.025-.453.2a.881.881 0 0 1-.374.081" transform="translate(6.098 -.279)" style="fill:#0083b4"/>
        <path data-name="패스 842311" d="M53.276 4.408h-1.742a.6.6 0 0 0-.539.441 5.148 5.148 0 0 0-2.081-.436 4.8 4.8 0 0 0-4.925 4.655 4.8 4.8 0 0 0 4.925 4.655 5.154 5.154 0 0 0 2.072-.432.564.564 0 0 0 .548.437h1.742a.565.565 0 0 0 .563-.563V4.971a.565.565 0 0 0-.563-.563m-4.362 7.017a2.357 2.357 0 1 1 2.357-2.357 2.36 2.36 0 0 1-2.357 2.357" transform="translate(-5.235 5.074)" style="fill:#0083b4"/>
        <path data-name="패스 842312" d="M29.442 4.413a5.155 5.155 0 0 0-2.081.435.6.6 0 0 0-.539-.44h-1.741a.564.564 0 0 0-.563.563v10.5a1.562 1.562 0 0 0 .4.961l.859.857a1.559 1.559 0 0 0 .96.4h.089a.564.564 0 0 0 .563-.562V13.3a5.138 5.138 0 0 0 2.057.426 4.8 4.8 0 0 0 4.925-4.655 4.8 4.8 0 0 0-4.925-4.655m0 7.013A2.357 2.357 0 1 1 31.8 9.068a2.36 2.36 0 0 1-2.357 2.357" transform="translate(3.237 5.074)" style="fill:#0083b4"/>
        <path data-name="패스 842313" d="M72.854 4.416h-1.742a.916.916 0 0 0-.779.563l-1.856 4.834c-.047.126-.125.126-.173 0l-1.856-4.834a.916.916 0 0 0-.779-.563h-1.742c-.31 0-.465.254-.346.563l3.37 8.779a.232.232 0 0 1-.014.146l-.149.389a1.27 1.27 0 0 1-1.257.9 2.29 2.29 0 0 1-1.018-.212.29.29 0 0 0-.377.2l-.628 1.636a.374.374 0 0 0 .113.45l.007.007a3.314 3.314 0 0 0 1.782.42c1.735 0 3.175-.69 4.064-3l1.71-4.456L73.2 4.979c.119-.31-.036-.563-.346-.563" transform="translate(-13.717 5.07)" style="fill:#0083b4"/>
    </g>
</svg>
