<svg xmlns="http://www.w3.org/2000/svg" width="24" height="24" viewBox="0 0 24 24">
    <defs>
        <clipPath id="vnru6562oa">
            <path data-name="사각형 341680" style="fill:#191919" d="M0 0h17.568v17.568H0z"/>
        </clipPath>
    </defs>
    <g data-name="그룹 465419">
        <g data-name="그룹 465418" transform="translate(3.216 3.216)" style="clip-path:url(#vnru6562oa)">
            <path data-name="패스 842337" d="M12.5 0H5.071A5.07 5.07 0 0 0 0 5.071V12.5a5.071 5.071 0 0 0 5.071 5.071H12.5a5.071 5.071 0 0 0 5.068-5.071V5.071A5.071 5.071 0 0 0 12.5 0m3.45 12.628a3.366 3.366 0 0 1-3.366 3.366h-7.6a3.367 3.367 0 0 1-3.366-3.366v-7.6a3.366 3.366 0 0 1 3.366-3.367h7.6a3.366 3.366 0 0 1 3.366 3.367z" style="fill:#191919"/>
            <path data-name="패스 842338" d="M12.161 7.68a4.559 4.559 0 1 0 4.559 4.559 4.559 4.559 0 0 0-4.559-4.559m0 7.514a2.955 2.955 0 1 1 2.955-2.955 2.955 2.955 0 0 1-2.955 2.955" transform="translate(-3.376 -3.411)" style="fill:#191919"/>
            <path data-name="패스 842339" d="M23.429 5.458A1.062 1.062 0 1 0 24.49 6.52a1.062 1.062 0 0 0-1.062-1.062" transform="translate(-9.934 -2.424)" style="fill:#191919"/>
        </g>
    </g>
</svg>
