<svg data-name="문자 아이콘" xmlns="http://www.w3.org/2000/svg" width="22" height="22" viewBox="0 0 22 22">
    <g data-name="그룹 465558">
        <path data-name="패스 842424" d="M-318.378 205.326H-332.7a2.261 2.261 0 0 0-2.261 2.261v9.043a2.261 2.261 0 0 0 2.261 2.261h14.318a2.261 2.261 0 0 0 2.261-2.261v-9.043a2.261 2.261 0 0 0-2.257-2.261zm-.494 3.56-6.341 4.439c-.008.005-.017.007-.025.012a.539.539 0 0 1-.1.051c-.015.006-.029.012-.044.016a.586.586 0 0 1-.147.022h-.009a.573.573 0 0 1-.147-.023c-.015 0-.03-.011-.045-.016a.576.576 0 0 1-.1-.051c-.008-.005-.018-.007-.026-.013l-6.406-4.522a.565.565 0 0 1-.136-.788.565.565 0 0 1 .788-.136l6.081 4.292 6.016-4.211a.565.565 0 0 1 .788.139.565.565 0 0 1-.147.789z" transform="translate(336.701 -200.907)" style="fill:#7c40ce"/>
    </g>
</svg>
