<svg xmlns="http://www.w3.org/2000/svg" width="60" height="60" viewBox="0 0 60 60">
    <g data-name="그룹 493396">
        <g data-name="그룹 493391">
            <g data-name="그룹 484235">
                <g data-name="그룹 465504">
                    <path data-name="합치기 38" d="M3.362.468 8.3 4.6a10.062 10.062 0 0 1 1.7-.143h14a10 10 0 0 1 10 10V20a10 10 0 0 1-10 10H10A10 10 0 0 1 0 20v-5.543c0-.195.006-.389.017-.581a1.674 1.674 0 0 1-.009-.188L.083 1.85A1.93 1.93 0 0 1 2.076 0a1.982 1.982 0 0 1 1.286.468z" transform="rotate(180 28.499 25.5)" style="stroke:#191919;stroke-linecap:round;stroke-linejoin:round;stroke-width:2px;fill:#eff1f5"/>
                    <path d="M10.677-8.833a1.454 1.454 0 0 0-.077-.277 1.2 1.2 0 0 1-.046-.138l-3.195-7.864-.092-.246c-.046-.123-.108-.215-.154-.353a1.849 1.849 0 0 0-.169-.353 2.93 2.93 0 0 0-.23-.323.792.792 0 0 0-.261-.2 1.585 1.585 0 0 0-1 0 .792.792 0 0 0-.261.2 1.73 1.73 0 0 0-.23.323 1.849 1.849 0 0 0-.169.353c-.046.138-.108.23-.154.353l-.092.246-3.193 7.864a1.2 1.2 0 0 1-.046.138 1.454 1.454 0 0 0-.077.276 2.752 2.752 0 0 0-.031.369.553.553 0 0 0 .108.338.751.751 0 0 0 .307.261 1.171 1.171 0 0 0 .814.154.926.926 0 0 0 .384-.2c.031-.031.061-.046.077-.077.015-.015.046-.061.077-.077a1.1 1.1 0 0 0 .2-.292c.061-.092.108-.184.169-.292a1.55 1.55 0 0 0 .108-.23c.031-.077.046-.169.077-.246l.323-.753c1.4.015 2.826 0 4.224 0l.323.753a1.51 1.51 0 0 0 .077.246.778.778 0 0 0 .108.23c.061.108.108.2.154.292a1.773 1.773 0 0 0 .215.292c.031.015.061.061.077.077.015.031.046.046.077.077a.926.926 0 0 0 .384.2 1.171 1.171 0 0 0 .814-.154.751.751 0 0 0 .307-.261.553.553 0 0 0 .108-.338 2.752 2.752 0 0 0-.035-.368zm-3.364-3.088H4.595l.276-.676c.261-.584.538-1.229.845-1.889.077-.184.169-.384.23-.568.077.184.169.384.246.568.307.66.584 1.306.845 1.889z" transform="translate(34.924 47.036)" style="fill:#191919"/>
                </g>
            </g>
            <g data-name="그룹 465504">
                <path data-name="합치기 39" d="M10 30A10 10 0 0 1 0 20v-5.542a10 10 0 0 1 10-10h14a10.07 10.07 0 0 1 1.7.143L30.636.469a1.991 1.991 0 0 1 3.279 1.381l.076 11.84a1.671 1.671 0 0 1-.009.188q.017.289.017.581V20A10 10 0 0 1 24 30z" transform="rotate(180 18.999 19.5)" style="stroke:#191919;stroke-linecap:round;stroke-linejoin:round;stroke-width:2px;fill:#eff1f5"/>
                <path data-name="A" d="M11.053-7.444a2.014 2.014 0 0 0-.439-.562c-.088-.105-.456-.4-.807-.737l.316-.843c.649-2.37.439-5.793-1.211-7.654-1.036-1.175-2.612-1.736-4.933-1.017-1.913.579-2.616 3.23-2.738 5-.14 1.878.246 4.336 1.633 5.793a4.284 4.284 0 0 0 4.405 1.126 3.723 3.723 0 0 0 1.4-.79l.492.421a2.4 2.4 0 0 0 .369.263 1.4 1.4 0 0 0 .369.228.893.893 0 0 0 .351.07.738.738 0 0 0 .386-.088 1.4 1.4 0 0 0 .3-.263.773.773 0 0 0 .193-.439.876.876 0 0 0-.086-.508zm-6.81-1.825a5.94 5.94 0 0 1-.86-3.7c.07-1.123.474-2.668 1.439-3.177a1.847 1.847 0 0 1 2.651.685 6.851 6.851 0 0 1 .6 5.038c-.105-.088-.211-.176-.3-.263a7.282 7.282 0 0 0-.369-.334 3.033 3.033 0 0 0-.369-.228.57.57 0 0 0-.351-.123.855.855 0 0 0-.439.088c-.105.07-.193.158-.316.246a1 1 0 0 0-.228.474.806.806 0 0 0 .088.527 1.851 1.851 0 0 0 .4.632c.07.088.4.386.72.7a2.006 2.006 0 0 1-2.666-.565z" transform="translate(14.435 33.855)" style="fill:#191919"/>
            </g>
        </g>
    </g>
</svg>
