<svg xmlns="http://www.w3.org/2000/svg" width="80" height="80" viewBox="0 0 80 80">
    <defs>
        <filter id="wn7j8kmooa" x="2" y="13" width="69" height="47" filterUnits="userSpaceOnUse">
            <feOffset dy="2"/>
            <feGaussianBlur stdDeviation="1" result="blur"/>
            <feFlood flood-opacity=".102"/>
            <feComposite operator="in" in2="blur"/>
            <feComposite in="SourceGraphic"/>
        </filter>
        <filter id="8q7u6hpmrb" x="40" y="36" width="38" height="38" filterUnits="userSpaceOnUse">
            <feOffset dy="2"/>
            <feGaussianBlur stdDeviation="1" result="blur-2"/>
            <feFlood flood-opacity=".102"/>
            <feComposite operator="in" in2="blur-2"/>
            <feComposite in="SourceGraphic"/>
        </filter>
    </defs>
    <g data-name="그룹 484209">
        <g style="filter:url(#wn7j8kmooa)">
            <rect data-name="사각형 348809" width="63" height="41" rx="10" transform="translate(4.999 13.998)" style="fill:#dadef8"/>
        </g>
        <path data-name="패스 862626" d="M0 0h63v4H0z" transform="translate(5 25.5)" style="fill:#aeaae8"/>
        <g data-name="그룹 484168">
            <path data-name="선 444" transform="translate(16 45)" style="fill:none;stroke:#fff;stroke-linecap:round;stroke-width:3px" d="M0 0h8"/>
        </g>
        <g data-name="그룹 486245">
            <g style="filter:url(#8q7u6hpmrb)">
                <path data-name="bg" d="M119.645 85.353a16 16 0 1 0-16 16 16 16 0 0 0 16-16z" transform="translate(-44.64 -32.35)" style="fill:#6f98f8"/>
            </g>
            <g data-name="그룹 484163">
                <g data-name="그룹 484115">
                    <path data-name="패스 862496" d="M554.405 439.6c.178.017 12 0 12 0l-2.374-2.195" transform="translate(-501.404 -391.394)" style="stroke-linejoin:round;fill:none;stroke:#fff;stroke-linecap:round;stroke-width:3px"/>
                    <path data-name="패스 862497" d="M554.405 437.414c.178-.017 12 0 12 0l-2.374 2.195" transform="translate(-501.404 -389.192)" style="stroke-linejoin:round;fill:none;stroke:#fff;stroke-linecap:round;stroke-width:3px"/>
                </g>
                <g data-name="그룹 484116">
                    <path data-name="패스 862496" d="M566.4 439.6c-.178.017-12 0-12 0l2.374-2.195" transform="translate(-501.403 -381.823)" style="stroke-linejoin:round;fill:none;stroke:#fff;stroke-linecap:round;stroke-width:3px"/>
                    <path data-name="패스 862497" d="M566.4 437.414c-.178-.017-12 0-12 0l2.374 2.195" transform="translate(-501.403 -379.621)" style="stroke-linejoin:round;fill:none;stroke:#fff;stroke-linecap:round;stroke-width:3px"/>
                </g>
            </g>
        </g>
    </g>
</svg>
