<svg xmlns="http://www.w3.org/2000/svg" width="80" height="80" viewBox="0 0 80 80">
    <defs>
        <linearGradient id="tdiwbrje9b" x1=".5" x2=".5" y2="1" gradientUnits="objectBoundingBox">
            <stop offset="0" stop-color="#be91ff"/>
            <stop offset="1" stop-color="#9550ff"/>
        </linearGradient>
        <filter id="5qju6fw6fa" x="2" y="13" width="69" height="47" filterUnits="userSpaceOnUse">
            <feOffset dy="2"/>
            <feGaussianBlur stdDeviation="1" result="blur"/>
            <feFlood flood-opacity=".102"/>
            <feComposite operator="in" in2="blur"/>
            <feComposite in="SourceGraphic"/>
        </filter>
    </defs>
    <g data-name="그룹 484209">
        <g style="filter:url(#5qju6fw6fa)">
            <rect data-name="사각형 348809" width="63" height="41" rx="10" transform="translate(4.999 13.998)" style="fill:#dadef8"/>
        </g>
        <path data-name="패스 862626" d="M0 0h63v4H0z" transform="translate(5 25.5)" style="fill:#aeaae8"/>
        <g data-name="그룹 484168">
            <path data-name="선 444" transform="translate(16 45)" style="fill:none;stroke:#fff;stroke-linecap:round;stroke-width:3px" d="M0 0h8"/>
        </g>
        <g data-name="그룹 486321" transform="translate(43 37)">
            <circle data-name="타원 24" cx="16" cy="16" r="16" style="fill:url(#tdiwbrje9b)"/>
            <path data-name="패스 862745" d="M6.456-13.608a1.807 1.807 0 0 0-1.632-1.464 1.717 1.717 0 0 0-1.8 1.584 85 85 0 0 1-.312 9.312 3.821 3.821 0 0 1-.384 1.224A2.837 2.837 0 0 1 .144-1.416 2.433 2.433 0 0 1-2.28-2.424c-.7-1.008-.816-2.64-.816-4.536 0-1.008.144-4.536 0-6.672a1.551 1.551 0 0 0-.24-.816 1.926 1.926 0 0 0-2.832-.052 5.307 5.307 0 0 0-.456 2.784c-.048 1.3 0 3.912 0 5.16-.024 2.644.264 5.02 2.184 6.892A5.969 5.969 0 0 0 .072 2.04 6.129 6.129 0 0 0 5.064-.7a10.918 10.918 0 0 0 .888-2.016c.672-2.252.864-7.82.504-10.892z" transform="translate(16 23)" style="fill:#fff"/>
        </g>
    </g>
</svg>
