<svg xmlns="http://www.w3.org/2000/svg" width="80" height="80" viewBox="0 0 80 80">
    <defs>
        <clipPath id="949yetorca">
            <path data-name="사각형 350233" style="fill:none" d="M0 0h38v12.002H0z"/>
        </clipPath>
    </defs>
    <path style="fill:none" d="M0 0h80v80H0z"/>
    <g data-name="그룹 492573" transform="translate(9.252 -1.887)">
        <path data-name="패스 70056" d="M30 0c16.569 0 30 11.325 30 30.915S30 78 30 78 0 50.7 0 30.915 13.431 0 30 0z" transform="translate(.748 2.888)" style="fill:#d2d5e8"/>
        <circle data-name="타원 8423" cx="25" cy="25" r="25" transform="translate(5.747 7.888)" style="fill:#fff"/>
        <g data-name="그룹 492558" transform="translate(11.748 26.571)" style="clip-path:url(#949yetorca)">
            <path data-name="패스 862728" d="M9.925 10.777V5.146H5.078l.34 2.128h2.008v2.059a3.035 3.035 0 0 1-1.559.367c-2 0-3-1.527-3-3.7s.97-3.639 2.966-3.639a5.709 5.709 0 0 1 3.083.989L9.3.854A7.152 7.152 0 0 0 5.766 0C2.2 0 0 2.427 0 6.016 0 9.588 2.029 12 5.7 12a7.615 7.615 0 0 0 4.225-1.224" style="fill:#0065b2;fill-rule:evenodd"/>
            <path data-name="패스 862729" d="M30.743 8.38c0-1.843-1-2.715-3.517-3.638-1.443-.551-1.763-.837-1.763-1.427 0-.536.42-.9 1.294-.9a6.325 6.325 0 0 1 3.014.934l.436-2.41A7.364 7.364 0 0 0 26.72.168c-2.211 0-3.954 1.187-3.954 3.418 0 1.91 1 2.667 3.318 3.553 1.627.622 1.961.925 1.961 1.577 0 .687-.57 1.039-1.393 1.039a8.231 8.231 0 0 1-3.67-1.071l-.418 2.446A9.505 9.505 0 0 0 26.6 12c2.3 0 4.141-1.1 4.141-3.619" transform="translate(-11.394 -.085)" style="fill:#0065b2;fill-rule:evenodd"/>
            <path data-name="패스 862730" d="M45.956 7.843C47.29 6.966 49.1 5.825 49.1 3.651c0-2.386-2.021-3.472-3.9-3.472a4.5 4.5 0 0 0-4.091 2.575l2.162 1.012a2.2 2.2 0 0 1 1.742-1.2A1.315 1.315 0 0 1 46.3 3.925c0 .668-.753 1.173-1.69 1.811-1.485 1.012-3.334 2.272-3.334 4.86a6.828 6.828 0 0 0 .121 1.184h7.709V9.462H44.35c0-.508.737-1.048 1.605-1.619" transform="translate(-20.759 -.09)" style="fill:#12b5d3"/>
            <path data-name="패스 862731" d="M68.277 9.726a1.11 1.11 0 1 1 1.11-1.11 1.112 1.112 0 0 1-1.11 1.11" transform="translate(-33.916 -3.789)" style="fill:#fff"/>
            <path data-name="패스 862732" d="M65.126 7.174a2.287 2.287 0 0 0-.676-.12 1.334 1.334 0 0 0-1.334 1.334 1.32 1.32 0 0 0 .684 1.164c.185.1.653.246.786.316a1.781 1.781 0 1 1-2.613 1.72l-2.386.519a4.293 4.293 0 1 0 5.539-4.933m-.676 2.1a.887.887 0 1 1 .887-.887.888.888 0 0 1-.887.887" transform="translate(-30.088 -3.562)" style="fill:#12b5d3"/>
            <path data-name="패스 862733" d="m60.611.5-.47 5.357h2.4l.306-3.045H65.6A2.179 2.179 0 0 0 67.828.5z" transform="translate(-30.368 -.252)" style="fill:#12b5d3"/>
        </g>
    </g>
</svg>
