<svg xmlns="http://www.w3.org/2000/svg" xmlns:xlink="http://www.w3.org/1999/xlink" width="80" height="81" viewBox="0 0 80 81">
  <defs>
    <filter id="사각형_348906" x="12" y="3" width="46" height="72" filterUnits="userSpaceOnUse">
      <feOffset dy="2" input="SourceAlpha"/>
      <feGaussianBlur stdDeviation="1" result="blur"/>
      <feFlood flood-opacity="0.102"/>
      <feComposite operator="in" in2="blur"/>
      <feComposite in="SourceGraphic"/>
    </filter>
    <filter id="패스_862461" x="39" y="44" width="31" height="37" filterUnits="userSpaceOnUse">
      <feOffset dy="2" input="SourceAlpha"/>
      <feGaussianBlur stdDeviation="1" result="blur-2"/>
      <feFlood flood-opacity="0.102"/>
      <feComposite operator="in" in2="blur-2"/>
      <feComposite in="SourceGraphic"/>
    </filter>
  </defs>
  <g id="icon" transform="translate(-228 -147)">
    <rect id="area" width="80" height="80" transform="translate(228 147)" fill="#ff7676" opacity="0"/>
    <g id="그룹_486199" data-name="그룹 486199" transform="translate(-0.25)">
      <g id="그룹_486198" data-name="그룹 486198" transform="translate(-3.75 -2)">
        <g id="그룹_484205" data-name="그룹 484205" transform="translate(246.667 152.333)">
          <g id="그룹_484204" data-name="그룹 484204" transform="translate(0 0)">
            <g transform="matrix(1, 0, 0, 1, -14.67, -3.33)" filter="url(#사각형_348906)">
              <rect id="사각형_348906-2" data-name="사각형 348906" width="40" height="66" rx="10" transform="translate(15 4)" fill="#e3e6f9"/>
            </g>
            <line id="선_126776" data-name="선 126776" x2="6" transform="translate(17.333 7.668)" fill="none" stroke="#fff" stroke-linecap="round" stroke-linejoin="round" stroke-width="2"/>
            <path id="패스_862735" data-name="패스 862735" d="M-5.22-3.69A3.429,3.429,0,0,0-7.362-5.778a13.85,13.85,0,0,0-3.2-.522c-.7-.09-1.53-.342-1.584-1.116-.09-1.08.756-1.638,1.8-1.764a3.9,3.9,0,0,1,2.556.54c.5.36,1.134,1.134,1.89.648.918-.558.09-1.782-.522-2.268a6.072,6.072,0,0,0-3.87-1.008,4.924,4.924,0,0,0-3.15,1.008c-1.584,1.512-1.476,4.626.72,5.544a16.546,16.546,0,0,0,3.492.63c1.026.252,1.71.576,1.71,1.71,0,1.386-1.818,2.214-3.4,1.674a2.955,2.955,0,0,1-1.35-1.206,1.338,1.338,0,0,0-1.53-.594A1.153,1.153,0,0,0-14.4-.846,4.071,4.071,0,0,0-12.708.99C-10.26,2.34-5.976,1.4-5.2-1.3A4.332,4.332,0,0,0-5.22-3.69ZM2.268-.918A6.521,6.521,0,0,1-.054-.5C-.936-.576-2-.954-1.854-1.926c1.386.036,2.2.09,3.348.036,1.314-.054,1.818-.072,2.124-.936a3.221,3.221,0,0,0-.09-1.854A3.4,3.4,0,0,0,1.692-6.516a4.262,4.262,0,0,0-3.744.09A3.838,3.838,0,0,0-3.87-3.672,5.324,5.324,0,0,0-3.4-.072,3.892,3.892,0,0,0-.144,1.476a6.072,6.072,0,0,0,2.592-.45C2.916.828,3.564.378,3.564-.216,3.564-1.026,2.826-1.08,2.268-.918ZM1.494-4.41a1.1,1.1,0,0,1,.342.792H-1.692c-.2,0,.306-.774.378-.846A1.563,1.563,0,0,1-.432-5a1.847,1.847,0,0,1,1.206.018A2.168,2.168,0,0,1,1.494-4.41ZM7.578.108A1.275,1.275,0,0,0,7.6-.162c0-.09-.018-.18-.018-.27v-3.78c0-.738.018-1.494.018-2.3.018-.828.018-1.494-.018-2.268v-.072c0-.234-.018-.846-.036-1.08a1.54,1.54,0,0,0-.18-.666A.851.851,0,0,0,7-11a1.429,1.429,0,0,0-.576-.144,1.442,1.442,0,0,0-.486.054.941.941,0,0,0-.414.18.64.64,0,0,0-.2.288,1.557,1.557,0,0,0-.108.414,2.728,2.728,0,0,0-.036.414V.288a1.21,1.21,0,0,0,.054.324,1.607,1.607,0,0,0,.108.36.614.614,0,0,0,.252.306.919.919,0,0,0,.486.18A1.343,1.343,0,0,0,7,1.35a.8.8,0,0,0,.324-.324L7.38.918a.393.393,0,0,0,.054-.09L7.542.45A2.46,2.46,0,0,1,7.578.108ZM13.86-6.066a6.622,6.622,0,0,0-1.368-.162v-.45a2.9,2.9,0,0,1,.162-1.368c.288-.342.864-.144,1.278-.234.486-.108.576-.522.594-.954a1.126,1.126,0,0,0-.72-.954,3.331,3.331,0,0,0-2.394.126c-1.134.522-1.026,2.178-1.1,3.834-.072,0-.45.018-.5.018a1.119,1.119,0,0,0-.9.288,1.023,1.023,0,0,0-.036,1.188c.27.27.936.216,1.494.234,0,1.242-.018,2.646-.018,3.888V.432a2.688,2.688,0,0,0,.036.306c.036.108.072.252.108.36a.816.816,0,0,0,.234.306.967.967,0,0,0,.414.18,1.149,1.149,0,0,0,.846-.108.85.85,0,0,0,.288-.324.256.256,0,0,0,.036-.108.293.293,0,0,0,.054-.108.745.745,0,0,0,.09-.342,7.477,7.477,0,0,0,.054-.882V-4.446a6.481,6.481,0,0,0,1.188-.09.749.749,0,0,0,.612-.684A.69.69,0,0,0,13.86-6.066Z" transform="translate(20.333 31.667)" fill="#9f70e4"/>
          </g>
        </g>
      </g>
      <g id="유심" transform="translate(-1812.001 -5003.268)">
        <g transform="matrix(1, 0, 0, 1, 2040.25, 5150.27)" filter="url(#패스_862461)">
          <path id="패스_862461-2" data-name="패스 862461" d="M5.208,0H12.5A12.45,12.45,0,0,1,25,12.4V25.833A5.188,5.188,0,0,1,19.792,31H5.208A5.188,5.188,0,0,1,0,25.833V5.167A5.188,5.188,0,0,1,5.208,0Z" transform="translate(42 45)" fill="#f76bb8"/>
        </g>
        <rect id="사각형_348813" data-name="사각형 348813" width="15" height="12" rx="3" transform="translate(2087.25 5209.268)" fill="#fff"/>
      </g>
    </g>
  </g>
</svg>
