<svg xmlns="http://www.w3.org/2000/svg" width="40" height="40" viewBox="0 0 40 40">
    <g data-name="그룹 492571">
        <g data-name="그룹 492570">
            <g data-name="타원 8766" transform="translate(5.999 6.022)" style="fill:#fff;stroke:#191919;stroke-width:1.5px">
                <circle cx="14" cy="14" r="14" style="stroke:none"/>
                <circle cx="14" cy="14" r="13.25" style="fill:none"/>
            </g>
            <path data-name="알뜰모바일 뉴다이렉트몰 (H1)" d="M8.318-21.322a4.73 4.73 0 0 0-.461-.338 2.47 2.47 0 0 0-.556-.253 1.8 1.8 0 0 0-.556-.186c-.191-.034-.365-.068-.572-.1a10.953 10.953 0 0 0-.762-.084c-.238-.017-.492-.034-.778-.068a14.748 14.748 0 0 0-2.1.034H2.5a.984.984 0 0 0-.747.22.775.775 0 0 0-.175.27c-.032.118-.064.253-.1.372a3.408 3.408 0 0 0-.048.422v9.343a2.034 2.034 0 0 0 .175.828.717.717 0 0 0 .62.456 1.441 1.441 0 0 0 .89-.1c.413-.253.429-.76.492-1.183v-3.5a3.641 3.641 0 0 1 .429-.017c.4-.017.651-.034 1.1-.068a7.393 7.393 0 0 0 2.621-.591 2.72 2.72 0 0 0 1.673-2.416 3.974 3.974 0 0 0-1.112-3.041zm-.953 2.788C7.254-17.267 5.618-17.1 4.6-17.081l-.985.017c0-.389 0-.794.016-1.2 0-.743 0-1.352-.016-2.044a3.143 3.143 0 0 1 .445.017c.238.017 1 .034 1.239.051 1.034.134 2.13.607 2.066 1.706z" transform="translate(15.559 36.404)" style="fill:#191919"/>
        </g>
    </g>
</svg>
