<svg xmlns="http://www.w3.org/2000/svg" width="122.5" height="121.5" viewBox="0 0 122.5 121.5">
    <defs>
        <filter id="0bgwb6ohwa" x="29.007" y="9" width="77.993" height="97" filterUnits="userSpaceOnUse">
            <feOffset dy="5"/>
            <feGaussianBlur stdDeviation="2.5" result="blur"/>
            <feFlood flood-opacity=".102"/>
            <feComposite operator="in" in2="blur"/>
            <feComposite in="SourceGraphic"/>
        </filter>
        <filter id="ojgb1v2ibb" x="0" y="39" width="62.001" height="67" filterUnits="userSpaceOnUse">
            <feOffset dy="5"/>
            <feGaussianBlur stdDeviation="2.5" result="blur-2"/>
            <feFlood flood-opacity=".102"/>
            <feComposite operator="in" in2="blur-2"/>
            <feComposite in="SourceGraphic"/>
        </filter>
        <filter id="ql9uvz7mec" x="59.5" y="58.5" width="63" height="63" filterUnits="userSpaceOnUse">
            <feOffset dy="5"/>
            <feGaussianBlur stdDeviation="2.5" result="blur-3"/>
            <feFlood flood-opacity=".102"/>
            <feComposite operator="in" in2="blur-3"/>
            <feComposite in="SourceGraphic"/>
        </filter>
    </defs>
    <path data-name="사각형 340932" transform="translate(31.191 10.348)" style="fill:none" d="M0 0h70.033v100.348H0z"/>
    <g data-name="그룹 486296">
        <g data-name="그룹 485981">
            <g style="filter:url(#0bgwb6ohwa)">
                <path data-name="빼기 19" d="M787.3 2769h-42.393a4.606 4.606 0 0 0 4.594-4.6v-2.4a23.016 23.016 0 0 0-16.336-22.02 12.014 12.014 0 0 0 4.514-14.352 35.8 35.8 0 0 1 10.257-5.054A17.976 17.976 0 0 1 740.5 2706a18 18 0 1 1 33.972 8.308 18.161 18.161 0 0 1-5.407 6.267A35.965 35.965 0 0 1 794.5 2755v6.8a7.208 7.208 0 0 1-7.2 7.2z" transform="translate(-695.5 -2676)" style="stroke:transparent;stroke-miterlimit:10;fill:#e3e6f9"/>
            </g>
            <g style="filter:url(#ojgb1v2ibb)">
                <path data-name="합치기 76" d="M6.6 59A4.6 4.6 0 0 1 2 54.4V52a23.009 23.009 0 0 1 16.336-22.019 12 12 0 1 1 13.329 0A23.009 23.009 0 0 1 48 52v2.4a4.6 4.6 0 0 1-4.6 4.6z" transform="translate(6 34)" style="fill:#aeaae8;stroke:transparent;stroke-miterlimit:10"/>
            </g>
        </g>
        <g data-name="그룹 486050">
            <g style="filter:url(#ql9uvz7mec)">
                <circle data-name="box" cx="24" cy="24" r="24" transform="translate(67.003 61.004)" style="fill:#42ccb0"/>
            </g>
            <g data-name="그룹 484099">
                <path data-name="선 442" transform="translate(81.617 85.64)" style="stroke:#fff;stroke-linecap:round;stroke-linejoin:round;stroke-width:5px;fill:none" d="m0 0 5.617 5.617"/>
                <path data-name="선 443" transform="translate(87.232 78.619)" style="stroke:#fff;stroke-linecap:round;stroke-linejoin:round;stroke-width:5px;fill:none" d="M12.639 0 0 12.639"/>
            </g>
        </g>
    </g>
</svg>
