<svg xmlns="http://www.w3.org/2000/svg" width="20" height="20" viewBox="0 0 20 20">
    <path d="M13.754 12.052c-.863-.714-1.734-1.378-2.473-1.933s-1-.452-1.6.222a1.3 1.3 0 0 1-1.954.264 9.7 9.7 0 0 1-2.467-2.84l-.275-.408a1.221 1.221 0 0 1 .106-1.849 1.372 1.372 0 0 0 .139-1.784c-.241-.371-.48-.745-.718-1.119C4.094 1.951 3.677 1.3 3.244.654A1.151 1.151 0 0 0 1.4.328 3.541 3.541 0 0 0 .005 3.135a9.01 9.01 0 0 0 .727 3.694 15.459 15.459 0 0 0 6.951 7.959 7.569 7.569 0 0 0 2.477.864 4.772 4.772 0 0 0 .722.058 3.978 3.978 0 0 0 2.928-1.341 1.649 1.649 0 0 0 .589-1.216 1.52 1.52 0 0 0-.646-1.1" transform="translate(2.799 2.144)" style="fill:#191919;stroke:#191919"/>
    <path style="fill:none" d="M0 0h20v20H0z"/>
</svg>
