<svg xmlns="http://www.w3.org/2000/svg" width="20" height="20" viewBox="0 0 20 20">
    <path style="fill:transparent" d="M0 0h20v20H0z"/>
    <path data-name="icon" d="M10.716 9.39c-.672-.556-1.351-1.074-1.927-1.506s-.783-.352-1.245.173a1.011 1.011 0 0 1-1.523.205A7.554 7.554 0 0 1 4.1 6.05l-.214-.318a.951.951 0 0 1 .082-1.441A1.069 1.069 0 0 0 4.074 2.9a99.203 99.203 0 0 1-.559-.872C3.19 1.52 2.865 1.009 2.528.51A.9.9 0 0 0 1.09.255 2.759 2.759 0 0 0 0 2.442a7.02 7.02 0 0 0 .57 2.879 12.045 12.045 0 0 0 5.416 6.2 5.9 5.9 0 0 0 1.93.673 3.718 3.718 0 0 0 .563.045A3.1 3.1 0 0 0 10.76 11.2a1.285 1.285 0 0 0 .459-.948 1.184 1.184 0 0 0-.5-.858" transform="translate(4.846 4.335)" style="fill:#fff;stroke:#fff"/>
    <path data-name="area" style="fill:none" d="M0 0h20v20H0z"/>
</svg>
