<svg xmlns="http://www.w3.org/2000/svg" width="80" height="80" viewBox="0 0 80 80">
    <defs>
        <linearGradient id="oo1ybsqjmb" x1=".5" x2=".5" y2="1" gradientUnits="objectBoundingBox">
            <stop offset="0" stop-color="#be91ff"/>
            <stop offset="1" stop-color="#9550ff"/>
        </linearGradient>
        <filter id="caq2a8k5ba" x="8.5" y="3.5" width="63" height="75" filterUnits="userSpaceOnUse">
            <feOffset dy="2"/>
            <feGaussianBlur stdDeviation="1" result="blur"/>
            <feFlood flood-opacity=".102"/>
            <feComposite operator="in" in2="blur"/>
            <feComposite in="SourceGraphic"/>
        </filter>
    </defs>
    <g data-name="그룹 486253">
        <g style="filter:url(#caq2a8k5ba)" data-name="그룹 484154">
            <path data-name="합치기 86" d="M6.053 67.977a6.72 6.72 0 0 1-6.72-6.72v-2.28a28.01 28.01 0 0 1 17.878-26.114 18 18 0 1 1 20.245 0 28.01 28.01 0 0 1 17.877 26.114v2.28a6.72 6.72 0 0 1-6.719 6.72z" transform="translate(12.667 5.023)" style="stroke:transparent;stroke-miterlimit:10;fill:url(#oo1ybsqjmb)"/>
        </g>
        <path data-name="패스 862736" d="M.92.322C.943-.161.9-.667.9-1.1.9-3.17.877-5.47.877-7.54c0-1.7-.046-3.4-.046-5.106a5.257 5.257 0 0 0-.046-.575 4.006 4.006 0 0 0-.115-.506 1.2 1.2 0 0 0-.276-.391.95.95 0 0 0-.529-.253 4.523 4.523 0 0 0-.6-.046c-.989.023-1.955 1.61-2.392 2.323-1.013 1.675-1.542 2.48-2.186 3.469a7.44 7.44 0 0 1-.667.989C-6.532-8.4-7.13-9.5-7.935-10.787a20.618 20.618 0 0 0-1.518-2.277c-.391-.414-.8-1.2-1.426-1.311a4.857 4.857 0 0 0-.6-.046 1.427 1.427 0 0 0-.736.207 1.246 1.246 0 0 0-.483.552 2.33 2.33 0 0 0-.207.9q-.138 1.932-.138 3.933v3.079l-.023 3.542-.023 1.794c0 .414.023.828.046 1.242A1.687 1.687 0 0 0-12.4 2 1.484 1.484 0 0 0-10.1.736c.092-.023.115-9.683.138-9.8a25.266 25.266 0 0 0 2.668 4c.276.345.782.92 1.288.874.874-.069 1.4-.69 3.8-4.669a10.738 10.738 0 0 1 .023 1.173c.023 1.081.023.989.023 1.978l.023 3.519v1.798c.023.805-.092 1.886.759 2.415a1.566 1.566 0 0 0 1.173.092 1.016 1.016 0 0 0 .6-.253 1.132 1.132 0 0 0 .3-.414A3.782 3.782 0 0 0 .92.322zm11.96-8.6a1.083 1.083 0 0 0-.529-.483 4.284 4.284 0 0 0-.551-.209 1.348 1.348 0 0 0-.6.046.875.875 0 0 0-.391.23 3.67 3.67 0 0 0-.368.437c-.046.115-.138.207-.184.322A14.1 14.1 0 0 0 9.5-6.371c-.207.437-.414.9-.644 1.38l-1.2 2.53c-.6-1.288-1.242-2.691-1.817-3.91a6.2 6.2 0 0 0-1.055-1.955 1.369 1.369 0 0 0-2.231.115 2.025 2.025 0 0 0 .276 2.116C3.818-4.278 4.784-1.932 5.589 0c.115.276.276.644.437.989L4.347 4.623c-.046 0-.069.069-.115.184-.046.092-.069.253-.138.414-.023.161-.046.322-.069.506a1.349 1.349 0 0 0 .092.529 1.049 1.049 0 0 0 .437.46 1.48 1.48 0 0 0 1.081.368 1.6 1.6 0 0 0 1.127-.828 4 4 0 0 1 .23-.437c.414-.759.759-1.519 1.15-2.319l1.1-2.369c.138-.23.23-.483.345-.713.414-.9.874-1.817 1.357-2.806a93.624 93.624 0 0 0 1.288-2.806l.046-.115c.138-.276.483-1.058.6-1.357a2.125 2.125 0 0 0 .184-.92 1.047 1.047 0 0 0-.182-.694z" transform="translate(41 61)" style="fill:#fff"/>
    </g>
</svg>
