<svg xmlns="http://www.w3.org/2000/svg" width="80" height="80" viewBox="0 0 80 80">
    <g data-name="그룹 464810">
        <path data-name="패스 842202" d="M51.434 52.473a18.207 18.207 0 0 0 8.494 8.472 1.742 1.742 0 0 0 1.721-.131l5.445-3.637a1.72 1.72 0 0 1 1.655-.152L78.941 61.4a1.721 1.721 0 0 1 1.045 1.808 10.454 10.454 0 0 1-10.367 9.125A29.619 29.619 0 0 1 40 42.716a10.453 10.453 0 0 1 9.123-10.366 1.721 1.721 0 0 1 1.81 1.045l4.378 10.214a1.742 1.742 0 0 1-.131 1.633l-3.637 5.532a1.742 1.742 0 0 0-.109 1.699z" transform="translate(-20 -12.336)" style="fill:none;stroke:#191919;stroke-linecap:round;stroke-linejoin:round;stroke-width:3px"/>
    </g>
</svg>
