<svg id="icon" xmlns="http://www.w3.org/2000/svg" xmlns:xlink="http://www.w3.org/1999/xlink" width="80" height="80" viewBox="0 0 80 80">
  <defs>
    <filter id="합치기_69" x="6.999" y="28" width="66" height="43.999" filterUnits="userSpaceOnUse">
      <feOffset dy="2" input="SourceAlpha"/>
      <feGaussianBlur stdDeviation="1" result="blur"/>
      <feFlood flood-opacity="0.102"/>
      <feComposite operator="in" in2="blur"/>
      <feComposite in="SourceGraphic"/>
    </filter>
    <linearGradient id="linear-gradient" x1="0.5" x2="0.5" y2="1" gradientUnits="objectBoundingBox">
      <stop offset="0" stop-color="#be91ff"/>
      <stop offset="1" stop-color="#9550ff"/>
    </linearGradient>
    <filter id="합치기_64" x="5.998" y="13" width="68.001" height="31.003" filterUnits="userSpaceOnUse">
      <feOffset dy="2" input="SourceAlpha"/>
      <feGaussianBlur stdDeviation="1" result="blur-2"/>
      <feFlood flood-opacity="0.102"/>
      <feComposite operator="in" in2="blur-2"/>
      <feComposite in="SourceGraphic"/>
    </filter>
  </defs>
  <rect id="area" width="80" height="80" fill="#ff7676" opacity="0"/>
  <rect id="area-2" data-name="area" width="64" height="64" transform="translate(8 8)" fill="#ff7676" opacity="0"/>
  <g id="icon-2" data-name="icon" transform="translate(11.999 13)">
    <g transform="matrix(1, 0, 0, 1, -12, -13)" filter="url(#합치기_69)">
      <path id="합치기_69-2" data-name="합치기 69" d="M10297-5879a2,2,0,0,1-2-2,2,2,0,0,1,2-2h2v-34h52v34h2a2,2,0,0,1,2,2,2,2,0,0,1-2,2Z" transform="translate(-10285 5946)" fill="#dadef8"/>
    </g>
    <g id="사각형_348802" data-name="사각형 348802" transform="translate(13 33)" fill="#fff" stroke="#dadef8" stroke-width="2">
      <path d="M8,0H22a8,8,0,0,1,8,8V20a0,0,0,0,1,0,0H0a0,0,0,0,1,0,0V8A8,8,0,0,1,8,0Z" stroke="none"/>
      <path d="M8,1H22a7,7,0,0,1,7,7V19a0,0,0,0,1,0,0H1a0,0,0,0,1,0,0V8A7,7,0,0,1,8,1Z" fill="none"/>
    </g>
    <g id="사각형_348803" data-name="사각형 348803" transform="translate(26.501 33)" fill="#dadef8" stroke="#dadef8" stroke-width="1">
      <rect width="3" height="19" stroke="none"/>
      <rect x="0.5" y="0.5" width="2" height="18" fill="none"/>
    </g>
    <g id="사각형_348922" data-name="사각형 348922" transform="translate(14 54) rotate(-90)" fill="#dadef8" stroke="#dadef8" stroke-width="1">
      <rect width="4" height="28" stroke="none"/>
      <rect x="0.5" y="0.5" width="3" height="27" fill="none"/>
    </g>
    <g id="그룹_484298" data-name="그룹 484298" transform="translate(0 -1)">
      <g transform="matrix(1, 0, 0, 1, -12, -12)" filter="url(#합치기_64)">
        <path id="합치기_64-2" data-name="합치기 64" d="M45.761,21.567a9.111,9.111,0,0,1-14.509-.335,9.112,9.112,0,0,1-14.763,0A9.111,9.111,0,0,1,0,15.891V12.345q0-.43.039-.85Q0,11.047,0,10.589A10.59,10.59,0,0,1,10.589,0h40.82A10.59,10.59,0,0,1,62,10.589q0,.46-.039.911.038.417.039.845v3.546a9.111,9.111,0,0,1-16.238,5.675Z" transform="translate(9 14)" fill="url(#linear-gradient)"/>
      </g>
      <rect id="사각형_348927" data-name="사각형 348927" width="4.034" height="18" rx="2.017" transform="translate(19 12.086) rotate(-90)" fill="#fff"/>
    </g>
  </g>
</svg>
