<svg xmlns="http://www.w3.org/2000/svg" width="120" height="124.5" viewBox="0 0 120 124.5">
    <defs>
        <linearGradient id="iqb4y71g9b" x1=".5" x2=".5" y2="1" gradientUnits="objectBoundingBox">
            <stop offset="0" stop-color="#be91ff"/>
            <stop offset="1" stop-color="#9550ff"/>
        </linearGradient>
        <filter id="epp8mipnla" x="20.5" y="5.5" width="79" height="119" filterUnits="userSpaceOnUse">
            <feOffset dy="5"/>
            <feGaussianBlur stdDeviation="2.5" result="blur"/>
            <feFlood flood-opacity=".051"/>
            <feComposite operator="in" in2="blur"/>
            <feComposite in="SourceGraphic"/>
        </filter>
    </defs>
    <path data-name="사각형 340932" transform="translate(30.191 10.348)" style="fill:none" d="M0 0h70.033v100.348H0z"/>
    <g data-name="그룹 484269">
        <g data-name="그룹 484268">
            <g style="filter:url(#epp8mipnla)">
                <path data-name="패스 862706" d="M12 0h40a12 12 0 0 1 12 12v80a12 12 0 0 1-12 12H12A12 12 0 0 1 0 92V12A12 12 0 0 1 12 0z" transform="translate(28 8.001)" style="fill:#e3e6f9"/>
            </g>
            <path data-name="선 126777" transform="translate(55.002 20.001)" style="stroke:#fff;stroke-linecap:round;stroke-linejoin:round;stroke-width:4px;fill:none" d="M0 0h10"/>
            <g data-name="그룹 486163" transform="translate(40 50)">
                <circle data-name="타원 24" cx="20" cy="20" r="20" style="fill:url(#iqb4y71g9b)"/>
                <path data-name="패스 862729" d="M8.608-18.144A2.409 2.409 0 0 0 6.432-20.1a2.29 2.29 0 0 0-2.4 2.112 113.339 113.339 0 0 1-.416 12.42A5.094 5.094 0 0 1 3.1-3.936 3.782 3.782 0 0 1 .192-1.888 3.245 3.245 0 0 1-3.04-3.232c-.928-1.344-1.088-3.52-1.088-6.048 0-1.344.192-6.048 0-8.9a2.067 2.067 0 0 0-.32-1.088 2.568 2.568 0 0 0-3.776-.064c-.7 1.024-.576 2.592-.608 3.712-.064 1.728 0 5.216 0 6.88-.032 3.524.352 6.692 2.912 9.188A7.959 7.959 0 0 0 .1 2.72 8.171 8.171 0 0 0 6.752-.928a14.557 14.557 0 0 0 1.184-2.688c.896-3.008 1.152-10.432.672-14.528z" transform="translate(20 30)" style="fill:#fff"/>
            </g>
        </g>
    </g>
</svg>
