<svg xmlns="http://www.w3.org/2000/svg" width="120" height="120" viewBox="0 0 120 120">
    <path style="fill:transparent" d="M0 0h120v120H0z"/>
    <g data-name="그룹 465113">
        <g data-name="그룹 464872" transform="translate(30.301 18.766)">
            <path data-name="합치기 22" d="M73.128 40.3H6a6 6 0 0 1-6-6V6a6 6 0 0 1 6-6h72.5a6 6 0 0 1 6 6v29.088h0v15.073z" style="fill:#fff;stroke:#191919;stroke-linecap:round;stroke-linejoin:round;stroke-width:4px"/>
            <circle data-name="타원 8483" cx="6" cy="6" r="6" transform="translate(15.1 14.6)" style="fill:#cfb8f4"/>
            <circle data-name="타원 8484" cx="6" cy="6" r="6" transform="translate(36.1 14.6)" style="fill:#cfb8f4"/>
            <circle data-name="타원 8485" cx="6" cy="6" r="6" transform="translate(57.1 14.6)" style="fill:#cfb8f4"/>
        </g>
        <g data-name="그룹 464873" transform="translate(5.2 67.262)">
            <path data-name="합치기 22" d="M4 33.971a4 4 0 0 1-4-4V10.679a4 4 0 0 1 4-4h39.447L50.2 0v29.972a4 4 0 0 1-4 4z" transform="rotate(180 25.101 16.985)" style="fill:#cfb8f4"/>
            <circle data-name="타원 8486" cx="3.107" cy="3.107" r="3.107" transform="translate(11.184 10.653)" style="fill:#191919"/>
            <circle data-name="타원 8487" cx="3.107" cy="3.107" r="3.107" transform="translate(22.367 10.653)" style="fill:#191919"/>
            <circle data-name="타원 8488" cx="3.107" cy="3.107" r="3.107" transform="translate(33.551 10.653)" style="fill:#191919"/>
        </g>
    </g>
</svg>
