<svg xmlns="http://www.w3.org/2000/svg" width="41" height="16" viewBox="0 0 41 16">
    <defs>
        <clipPath id="yub1251x5a">
            <path data-name="사각형 341212" style="fill:none" d="M0 0h40.533v16H0z"/>
        </clipPath>
    </defs>
    <path style="opacity:.525;fill:none" d="M0 0h41v16H0z"/>
    <g data-name="그룹 465662" style="clip-path:url(#yub1251x5a)">
        <path data-name="패스 842299" d="M126 21h3.251a4.086 4.086 0 0 1 1.336.2 2.592 2.592 0 0 1 .939.545 2.19 2.19 0 0 1 .555.831 2.911 2.911 0 0 1 .183 1.04v.266a2.79 2.79 0 0 1-.2 1.046 2.452 2.452 0 0 1-.573.856 2.726 2.726 0 0 1-.938.583 3.613 3.613 0 0 1-1.3.216h-2v3.563H126zm1.25 1.091v3.4h1.793q1.97 0 1.969-1.636v-.228a1.388 1.388 0 0 0-.473-1.16 2.149 2.149 0 0 0-1.357-.374z" transform="translate(-105.515 -17.571)" style="fill:#191919"/>
        <path data-name="패스 842300" d="M172.541 40.9a2.482 2.482 0 0 1-1.66-.52 1.779 1.779 0 0 1-.612-1.433v-.342a1.9 1.9 0 0 1 .593-1.446 2.744 2.744 0 0 1 1.919-.558h1.755V36.2a1.412 1.412 0 0 0-.335-1.033 1.5 1.5 0 0 0-1.092-.336 2.687 2.687 0 0 0-1.054.19 5.84 5.84 0 0 0-.928.507l-.606-.913a5.832 5.832 0 0 1 1.136-.615 3.827 3.827 0 0 1 1.465-.26 3.643 3.643 0 0 1 1.061.146 2.377 2.377 0 0 1 .827.431 2 2 0 0 1 .543.7 2.15 2.15 0 0 1 .2.932V40.8h-1.174v-.837h-.013a1.324 1.324 0 0 1-.271.349 1.958 1.958 0 0 1-.373.273 2.574 2.574 0 0 1-.6.234 3.166 3.166 0 0 1-.777.082m2-3.259h-1.73a1.525 1.525 0 0 0-1.029.279.989.989 0 0 0-.309.774v.178a.81.81 0 0 0 .354.736 1.526 1.526 0 0 0 .846.228 2.578 2.578 0 0 0 .789-.108 1.975 1.975 0 0 0 .612-.323 1.1 1.1 0 0 0 .36-.437 1.627 1.627 0 0 0 .107-.64z" transform="translate(-142.588 -28.231)" style="fill:#191919"/>
        <path data-name="패스 842301" d="m213.708 40.057 1.818-5.542h1.288l-3.586 9.8-1.111-.393.9-2.371-2.517-7.036h1.326l1.831 5.542z" transform="translate(-176.28 -28.88)" style="fill:#191919"/>
        <path data-name="사각형 341211" style="fill:#00c73c" d="M0 0h15.931v16H0z"/>
        <path data-name="패스 842302" d="m29.749 33.893-2.57-3.793v3.791H24.5v-7.322h2.717l2.57 3.791v-3.791h2.679v7.324z" transform="translate(-20.517 -22.231)" style="fill:#fff"/>
    </g>
</svg>
