<svg xmlns="http://www.w3.org/2000/svg" width="80" height="80" viewBox="0 0 80 80">
    <g data-name="그룹 464810">
        <path data-name="패스 842173" d="m37.706 48.724-2.513-2.513-12.249-12.249-2.513-2.513-.582-.582a8.776 8.776 0 0 1 0-12.4l2.361-2.361a2.331 2.331 0 0 1 3.292 0l6 6a2.331 2.331 0 0 1 0 3.292l-2.594 2.594 12.253 12.251 2.594-2.594a2.331 2.331 0 0 1 3.292 0l6 6a2.331 2.331 0 0 1 0 3.292l-2.361 2.361a8.776 8.776 0 0 1-12.4 0z" transform="translate(4.492 6.352)" style="fill:none;stroke:#191919;stroke-linecap:round;stroke-linejoin:round;stroke-width:4px"/>
    </g>
</svg>
