<svg xmlns="http://www.w3.org/2000/svg" width="80" height="80" viewBox="0 0 80 80">
    <defs>
        <clipPath id="edsiai1oza">
            <path data-name="사각형 350235" style="fill:none" d="M0 0h44v8.654H0z"/>
        </clipPath>
    </defs>
    <path style="fill:none" d="M0 0h80v80H0z"/>
    <g data-name="그룹 492576" transform="translate(9.252 -1.887)">
        <path data-name="패스 70056" d="M30 0c16.569 0 30 11.325 30 30.915S30 78 30 78 0 50.7 0 30.915 13.431 0 30 0z" transform="translate(.748 2.888)" style="fill:#d2d5e8"/>
        <circle data-name="타원 8423" cx="25" cy="25" r="25" transform="translate(5.747 7.888)" style="fill:#fff"/>
        <g data-name="그룹 492572" transform="translate(8.748 28.388)" style="clip-path:url(#edsiai1oza)">
            <path data-name="패스 862734" d="M596.849 36.782v2.6c0 .518-.194.959-.748.959s-.748-.441-.748-.959v-2.6h-1.524V39.5a2.289 2.289 0 0 0 4.543 0v-2.718z" transform="translate(-559.008 -34.625)" style="fill:#d9000d"/>
            <path data-name="패스 862735" d="M4.128 10.255V7.522H1.579v2.734H0V3.718h1.579v2.475h2.549V3.718h1.579v6.537z" transform="translate(0 -3.5)" style="fill:#d9000d"/>
            <path data-name="패스 862736" d="M114.365 39.158a2.433 2.433 0 0 1-2.549-2.465 2.556 2.556 0 0 1 5.106 0 2.436 2.436 0 0 1-2.558 2.465m0-3.638a1.091 1.091 0 0 0-1.08 1.173 1.093 1.093 0 1 0 1.08-1.173" transform="translate(-105.259 -32.255)" style="fill:#d9000d"/>
            <path data-name="패스 862737" d="M218.008 39.3v-2.508c0-.526-.12-.969-.656-.969-.517 0-.766.48-.766 1V39.3h-1.514v-2.618c0-.527-.2-.859-.656-.859-.48 0-.757.433-.757.987v2.49h-1.524v-4.6h1.465v.637h.018a1.536 1.536 0 0 1 1.382-.761 1.448 1.448 0 0 1 1.385.785 1.644 1.644 0 0 1 1.468-.785 1.682 1.682 0 0 1 1.672 1.884v2.84z" transform="translate(-199.695 -32.549)" style="fill:#d9000d"/>
            <path data-name="패스 862738" d="M356.915 38.214a2.419 2.419 0 0 1-2.063.944 2.448 2.448 0 1 1-.046-4.894 2.257 2.257 0 0 1 2.309 2.5c0 .12 0 .25-.009.36h-3.334a1.056 1.056 0 0 0 1.1.869 1.208 1.208 0 0 0 .994-.452zm-1.195-2.029a.836.836 0 0 0-.905-.877 1 1 0 0 0-1.044.877z" transform="translate(-331.663 -32.255)" style="fill:#d9000d"/>
            <path data-name="패스 862739" d="M684.9 35.769a1.436 1.436 0 0 0-.961-.416c-.286 0-.572.1-.572.369s.249.333.84.462c.7.157 1.468.508 1.468 1.4 0 1.163-1.025 1.57-1.967 1.57a2.966 2.966 0 0 1-2-.711l.849-.9a1.563 1.563 0 0 0 1.127.517c.25 0 .545-.1.545-.4s-.287-.379-.914-.526-1.339-.471-1.339-1.339c0-1.1 1.034-1.542 1.911-1.542a2.76 2.76 0 0 1 1.847.647z" transform="translate(-641.735 -32.255)" style="fill:#d9000d"/>
            <path data-name="사각형 350234" transform="translate(32.291)" style="fill:#d9000d" d="M0 0h1.533v6.755H0z"/>
            <path data-name="패스 862740" d="M450.919 41.2v-2.4h.018a1.732 1.732 0 0 0 1.395.637 2.442 2.442 0 0 0 .009-4.857 1.824 1.824 0 0 0-1.468.693h-.027v-.564H449.4v6.5zm1.053-5.389a1.187 1.187 0 0 1 0 2.364 1.184 1.184 0 0 1 0-2.364" transform="translate(-423.052 -32.549)" style="fill:#d9000d"/>
        </g>
    </g>
</svg>
