<svg xmlns="http://www.w3.org/2000/svg" width="40" height="40" viewBox="0 0 40 40">
    <g data-name="그룹 492461">
        <g data-name="그룹 492471">
            <g data-name="그룹 486018">
                <path data-name="패스 853520" d="M247.2 369.74v8.539a3.354 3.354 0 0 1-3.018 3.256 3.08 3.08 0 0 1-2.981-2.773v-8.739c0-.064-.043-.485.482-.485h5.5" transform="translate(-235.204 -351.51)" style="stroke-linejoin:round;stroke-linecap:round;stroke:#191919;stroke-width:1.5px;fill:none"/>
            </g>
            <path data-name="합치기 88" d="M.453 23A3.268 3.268 0 0 1 0 22.965a3.413 3.413 0 0 0 2.822-3.412V6.067h0V4a4 4 0 0 1 4-4H16a4 4 0 0 1 4 4v15.554a3.362 3.362 0 0 1-2.759 3.412 2.783 2.783 0 0 1-.418.034z" transform="translate(9 7.025)" style="fill:#fff;stroke-linejoin:round;stroke-linecap:round;stroke:#191919;stroke-width:1.5px"/>
            <path data-name="패스 862719" d="m5.3 5.121 5 5" transform="translate(23.7 22.904)" style="stroke-linecap:round;stroke:#191919;stroke-width:1.5px;fill:none"/>
            <path data-name="패스 862540" d="M5 0a5 5 0 1 1-5 5 5 5 0 0 1 5-5z" transform="translate(22 21.025)" style="fill:#fff;stroke:#191919;stroke-width:1.5px"/>
            <g data-name="그룹 492552">
                <path data-name="선 126605" transform="translate(16.5 13.026)" style="stroke-linecap:round;stroke:#191919;stroke-width:1.5px;fill:none" d="M0 0h8"/>
                <path data-name="선 126607" transform="translate(16.5 17.026)" style="stroke-linecap:round;stroke:#191919;stroke-width:1.5px;fill:none" d="M0 0h4"/>
            </g>
        </g>
    </g>
</svg>
