<svg xmlns="http://www.w3.org/2000/svg" width="120" height="120" viewBox="0 0 120 120">
    <defs>
        <linearGradient id="l2l0lfir8b" x1=".5" x2=".5" y2="1" gradientUnits="objectBoundingBox">
            <stop offset="0" stop-color="#be91ff"/>
            <stop offset="1" stop-color="#9550ff"/>
        </linearGradient>
        <filter id="jkkz7pzmwa" x="7.5" y="12.5" width="105" height="105" filterUnits="userSpaceOnUse">
            <feOffset dy="5"/>
            <feGaussianBlur stdDeviation="2.5" result="blur"/>
            <feFlood flood-opacity=".051"/>
            <feComposite operator="in" in2="blur"/>
            <feComposite in="SourceGraphic"/>
        </filter>
    </defs>
    <g data-name="그룹 484408">
        <g style="filter:url(#jkkz7pzmwa)">
            <path data-name="패스 862699" d="M45 0A45 45 0 1 1 0 45 45 45 0 0 1 45 0z" transform="translate(15.001 14.998)" style="fill:url(#l2l0lfir8b)"/>
        </g>
        <g data-name="그룹 484464">
            <path data-name="알뜰모바일 뉴다이렉트몰 (H1)" d="M7.072-21.624c-1.428.408-2.822.986-4.25 1.462-1.322.408-2.278 1.19-2.108 2.618.136 1.394 1.258 1.666 2.448 1.53.374 0 2.72-.374 2.856-.782 0 6.052-.1 11.7.2 17.646 0 .748.034 1.666.85 1.938a3.142 3.142 0 0 0 2.652-.2c.952-.68.714-1.972.714-2.924v-17.378a10.941 10.941 0 0 0-.2-3.5C9.86-22 8.6-22 7.922-21.828c-.272.034-.544.136-.85.204zm15.4 24.616c6.12 0 9.486-5.236 9.486-12.886 0-4.692-.782-7.344-2.448-9.112a8.1 8.1 0 0 0-6.358-2.516c-5.066 0-8.5 3.536-8.5 8.262 0 4.556 3.2 7.48 8.058 7.48A9.718 9.718 0 0 0 27.37-7c.442 3.026-1.8 6.222-4.794 6.222a5.344 5.344 0 0 1-3.57-1.054c-.816-.748-1.5-1.632-2.686-.918-1.836 1.088-.68 2.89.51 3.978a8.194 8.194 0 0 0 5.644 1.764zm.782-20.4a4.858 4.858 0 0 1 2.55.884 3.872 3.872 0 0 1 .612 5.406c-1.462 1.7-4.624 2.244-6.392.646-1.972-1.734-1.53-5.644.952-6.63a6.724 6.724 0 0 1 2.28-.306z" transform="translate(29.875 70.404)" style="fill:#fff"/>
            <g data-name="icon_+">
                <path data-name="패스 842328" d="M2.192 0h14.616A2.361 2.361 0 0 1 19 2.5 2.361 2.361 0 0 1 16.808 5H2.192A2.361 2.361 0 0 1 0 2.5 2.361 2.361 0 0 1 2.192 0z" transform="rotate(-90 74.285 -3.882)" style="fill:#fff"/>
                <path data-name="패스 842329" d="M1.192 0h14.616A2.361 2.361 0 0 1 18 2.5 2.361 2.361 0 0 1 15.808 5H1.192A2.361 2.361 0 0 1-1 2.5 2.361 2.361 0 0 1 1.192 0z" transform="translate(72.041 58.529)" style="fill:#fff"/>
            </g>
        </g>
    </g>
</svg>
