<svg xmlns="http://www.w3.org/2000/svg" width="80" height="80" viewBox="0 0 80 80">
    <defs>
        <linearGradient id="inx28ieq5b" x1=".5" x2=".5" y2="1" gradientUnits="objectBoundingBox">
            <stop offset="0" stop-color="#be91ff"/>
            <stop offset="1" stop-color="#9550ff"/>
        </linearGradient>
        <filter id="uar8bic7za" x="11" y="3" width="46" height="72" filterUnits="userSpaceOnUse">
            <feOffset dy="2"/>
            <feGaussianBlur stdDeviation="1" result="blur"/>
            <feFlood flood-opacity=".102"/>
            <feComposite operator="in" in2="blur"/>
            <feComposite in="SourceGraphic"/>
        </filter>
    </defs>
    <path data-name="사각형 340932" transform="translate(20.127 6.898)" style="fill:none" d="M0 0h46.689v66.898H0z"/>
    <g data-name="그룹 484269">
        <g data-name="그룹 484268">
            <g style="filter:url(#uar8bic7za)">
                <rect data-name="사각형 350226" width="40" height="66" rx="10" transform="translate(14 3.996)" style="fill:#e3e6f9"/>
            </g>
            <path data-name="선 126807" transform="translate(31 11)" style="stroke:#fff;stroke-linecap:round;stroke-linejoin:round;stroke-width:3px;fill:none" d="M0 0h6"/>
            <path data-name="패스 862737" d="M-7.952-10.176c-.672.192-1.328.464-2 .688-.624.192-1.072.56-.992 1.232.064.656.592.784 1.152.72.176 0 1.28-.176 1.344-.368 0 2.848-.048 5.5.1 8.3 0 .352.016.784.4.912a1.478 1.478 0 0 0 1.248-.1c.448-.32.336-.928.336-1.376v-8.168a5.149 5.149 0 0 0-.1-1.648c-.176-.368-.768-.368-1.088-.288-.128.016-.256.064-.4.096zm6.256 0c-.672.192-1.328.464-2 .688-.624.192-1.072.56-.992 1.232.064.656.592.784 1.152.72.176 0 1.28-.176 1.344-.368 0 2.848-.048 5.5.1 8.3 0 .352.016.784.4.912a1.478 1.478 0 0 0 1.248-.1C0 .9-.112.288-.112-.16v-8.176a5.149 5.149 0 0 0-.1-1.648c-.176-.368-.768-.368-1.088-.288-.124.016-.252.064-.4.096zm10.288.384c-.256-.368-.768-.336-1.28-.1A3.272 3.272 0 0 0 6.16-8.656c-.4.576-.9 1.088-1.312 1.664-.768 1.1-1.5 2.256-2.32 3.344-.432.56-1.056 1.408-.3 1.984a3.142 3.142 0 0 0 1.856.3H6.9A10.574 10.574 0 0 1 6.96.288c.032.352.1.864.48.992a1.673 1.673 0 0 0 .976-.08c.464-.3.416-1.088.416-1.552V-1.44c.032.064.656.016.72.016.592-.032 1.088-.24 1.088-.912-.032-.564-.656-.764-1.12-.764h-.688v-1.36c0-.864-.016-1.728-.016-2.592a21.715 21.715 0 0 0-.08-2.288 1.055 1.055 0 0 0-.144-.452zM7.008-3.168H4.352l2.656-3.744z" transform="translate(34 40.332)" style="fill:#7c76ce;stroke:#7c76ce;stroke-width:.4px"/>
            <g data-name="그룹 486252" transform="translate(36 46)">
                <circle data-name="타원 24" cx="16" cy="16" r="16" style="fill:url(#inx28ieq5b)"/>
                <path data-name="패스 862746" d="M6.456-13.608a1.807 1.807 0 0 0-1.632-1.464 1.717 1.717 0 0 0-1.8 1.584 85 85 0 0 1-.312 9.312 3.821 3.821 0 0 1-.384 1.224A2.837 2.837 0 0 1 .144-1.416 2.433 2.433 0 0 1-2.28-2.424c-.7-1.008-.816-2.64-.816-4.536 0-1.008.144-4.536 0-6.672a1.551 1.551 0 0 0-.24-.816 1.926 1.926 0 0 0-2.832-.052 5.307 5.307 0 0 0-.456 2.784c-.048 1.3 0 3.912 0 5.16-.024 2.644.264 5.02 2.184 6.892A5.969 5.969 0 0 0 .072 2.04 6.129 6.129 0 0 0 5.064-.7a10.918 10.918 0 0 0 .888-2.016c.672-2.252.864-7.82.504-10.892z" transform="translate(16 23)" style="fill:#fff"/>
            </g>
        </g>
    </g>
</svg>
