<svg xmlns="http://www.w3.org/2000/svg" width="20" height="20" viewBox="0 0 20 20">
    <g data-name="그룹 481243">
        <path data-name="패스 842407" d="M8.112.068A.673.673 0 0 0 7.4.145L3.32 3.352H.774A.775.775 0 0 0 0 4.126v4.858a.775.775 0 0 0 .774.774H3.32l4.08 3.208a.677.677 0 0 0 1.1-.532V.677a.672.672 0 0 0-.388-.609M.58 8.984V4.126a.194.194 0 0 1 .193-.193H3.13v5.245H.774a.194.194 0 0 1-.194-.194m7.333 3.449a.1.1 0 0 1-.157.076L3.71 9.327V3.784L7.757.6a.1.1 0 0 1 .157.076z" transform="translate(1.5 3.501)" style="fill:none;stroke:#666"/>
        <path data-name="패스 842408" d="M677.8 252.122a.29.29 0 0 1-.207-.493 3.354 3.354 0 0 0-.044-4.742.29.29 0 1 1 .406-.414 3.934 3.934 0 0 1 .052 5.563.289.289 0 0 1-.207.087" transform="translate(-665.878 -239.223)" style="fill:none;stroke:#666"/>
        <path data-name="패스 842409" d="M780.885 152.1a.29.29 0 0 1-.206-.494 5.523 5.523 0 0 0-.045-7.809.29.29 0 1 1 .408-.413 6.1 6.1 0 0 1 .05 8.63.289.289 0 0 1-.206.086" transform="translate(-766.838 -137.666)" style="fill:none;stroke:#666"/>
        <path data-name="패스 842410" d="M885.344 50.757a.29.29 0 0 1-.206-.494 7.723 7.723 0 0 0-.046-10.918.29.29 0 0 1 .409-.412 8.3 8.3 0 0 1 .049 11.739.29.29 0 0 1-.206.086" transform="translate(-869.15 -34.769)" style="fill:none;stroke:#666"/>
    </g>
</svg>
