<svg xmlns="http://www.w3.org/2000/svg" width="40" height="40" viewBox="0 0 40 40">
    <g data-name="그룹 492574">
        <g data-name="그룹 484269">
            <g data-name="그룹 484268" transform="translate(9.261 4.911)">
                <rect data-name="사각형 350226" width="18" height="26" rx="4" transform="translate(-.261 .088)" style="stroke:#191919;fill:#fff;stroke-width:1.5px"/>
                <path data-name="선 126807" transform="translate(7.238 3.087)" style="stroke-linecap:round;stroke-linejoin:round;fill:none;stroke:#191919" d="M0 0h3"/>
                <g data-name="그룹 486252" transform="translate(9.565 17.261)">
                    <circle data-name="타원 24" cx="7" cy="7" r="7" transform="translate(.174 -.173)" style="stroke-linecap:round;stroke-linejoin:round;stroke:#191919;fill:#fff;stroke-width:1.5px"/>
                    <path data-name="패스 862744" d="M-1.219-14.478a.748.748 0 0 0-.676-.606.711.711 0 0 0-.745.656 35.205 35.205 0 0 1-.129 3.857 1.582 1.582 0 0 1-.159.507 1.175 1.175 0 0 1-.9.636 1.008 1.008 0 0 1-1-.417 3.5 3.5 0 0 1-.338-1.879c0-.417.06-1.879 0-2.763a.642.642 0 0 0-.1-.338.8.8 0 0 0-1.173-.02 2.2 2.2 0 0 0-.189 1.153c-.02.537 0 1.62 0 2.137a3.618 3.618 0 0 0 .9 2.853A2.472 2.472 0 0 0-3.863-8 2.538 2.538 0 0 0-1.8-9.131a4.522 4.522 0 0 0 .368-.835 15.411 15.411 0 0 0 .213-4.512z" transform="translate(11.068 18.422)" style="fill:#191919"/>
                </g>
                <g data-name="그룹 492573">
                    <path data-name="합치기 29" d="M1.183 8.87A1.182 1.182 0 0 1 0 7.687V7.6a3.944 3.944 0 0 1 2.457-3.658 2.25 2.25 0 1 1 2.968 0A3.944 3.944 0 0 1 7.885 7.6v.092A1.182 1.182 0 0 1 6.7 8.87z" transform="translate(4.738 6.088)" style="fill:#bfbfbf"/>
                </g>
            </g>
        </g>
    </g>
</svg>
