<svg xmlns="http://www.w3.org/2000/svg" xmlns:xlink="http://www.w3.org/1999/xlink" width="80" height="82" viewBox="0 0 80 82">
  <defs>
    <clipPath id="clip-path">
      <rect id="사각형_341147" data-name="사각형 341147" width="44" height="8.462" fill="none"/>
    </clipPath>
  </defs>
  <g id="ico_pin_7_eleven" transform="translate(-569 -923.781)">
    <rect id="전화_icon" width="80" height="80" transform="translate(569 924.781)" fill="none"/>
    <g id="그룹_492575" data-name="그룹 492575" transform="translate(578.252 922.894)">
      <g id="패스_70056" data-name="패스 70056" transform="translate(0.748 2.888)" fill="#be91fd" stroke-linecap="round" stroke-linejoin="round">
        <path d="M 30.00244522094727 79.35420989990234 L 29.32701110839844 78.73965454101562 C 29.25144386291504 78.67089080810547 21.68371200561523 71.75673675537109 14.22166633605957 62.50612258911133 C 9.826533317565918 57.05754470825195 6.321077823638916 51.86956787109375 3.802655458450317 47.08629989624023 C 0.6158444285392761 41.03356552124023 -1 35.59276580810547 -1 30.9150333404541 C -1 21.23507690429688 2.143711090087891 13.07544422149658 8.091278076171875 7.318233489990234 C 10.87948894500732 4.619266510009766 14.203200340271 2.531155586242676 17.97006607055664 1.111899971961975 C 21.68944358825684 -0.2894555628299713 25.73690032958984 -1 30 -1 C 34.25667953491211 -1 38.30532073974609 -0.2796111106872559 42.03346633911133 1.141166687011719 C 45.79485702514648 2.574611186981201 49.11794281005859 4.678477764129639 51.9104118347168 7.394333362579346 C 54.79051208496094 10.19542217254639 57.03166580200195 13.57875537872314 58.5716438293457 17.45036697387695 C 60.18297958374023 21.50138854980469 61 26.03156661987305 61 30.9150333404541 C 61 35.54773330688477 59.3840446472168 40.96055603027344 56.1970100402832 47.00316619873047 C 53.67886734008789 51.777587890625 50.17378997802734 56.96814346313477 45.77915573120117 62.43065643310547 C 38.31790161132812 71.70496368408203 30.75121116638184 78.66796875 30.67565536499023 78.73722076416016 L 30.00244522094727 79.35420989990234 Z" stroke="none"/>
        <path d="M 30 0 C 13.43145751953125 0 0 11.12631988525391 0 30.91503524780273 C 0 50.70372772216797 30 78 30 78 C 30 78 60 50.50518798828125 60 30.91503524780273 C 60 11.32488250732422 46.56854248046875 0 30 0 M 30 -2 C 34.37883758544922 -2 38.54728317260742 -1.257553100585938 42.38957595825195 0.2067184448242188 C 46.27904510498047 1.688980102539062 49.71688079833984 3.866050720214844 52.60761260986328 6.677467346191406 C 55.58928298950195 9.57733154296875 57.90849304199219 13.07750701904297 59.50083541870117 17.08077621459961 C 61.15916442871094 21.24991607666016 62 25.90443420410156 62 30.91503524780273 C 62 35.71198654174805 60.34518814086914 41.28178787231445 57.08152770996094 47.46968078613281 C 54.53355407714844 52.3006591796875 50.99302291870117 57.54515075683594 46.55830383300781 63.0574951171875 C 39.04951858520508 72.39089202880859 31.66211700439453 79.18959045410156 31.35130500793457 79.47443389892578 C 30.58875465393066 80.17331695556641 29.41909408569336 80.17542266845703 28.65402412414551 79.47930908203125 C 28.34313011169434 79.19643402099609 20.95370483398438 72.44449615478516 13.44332885742188 63.13397598266602 C 9.007621765136719 57.63509368896484 5.466327667236328 52.39262390136719 2.917800903320312 47.55217742919922 C -0.3454132080078125 41.35431671142578 -2 35.75677490234375 -2 30.91503524780273 C -2 25.85902404785156 -1.159366607666016 21.17684555053711 0.4985427856445312 16.99855422973633 C 2.089813232421875 12.98823547363281 4.410377502441406 9.48956298828125 7.395763397216797 6.5997314453125 C 10.28281021118164 3.805084228515625 13.72190475463867 1.643867492675781 17.61749267578125 0.176116943359375 C 21.44996643066406 -1.267845153808594 25.61604690551758 -2 30 -2 Z" stroke="none" fill="#5817b1"/>
      </g>
      <circle id="타원_8423" data-name="타원 8423" cx="25" cy="25" r="25" transform="translate(5.747 7.888)" fill="#fff"/>
      <g id="그룹_492570" data-name="그룹 492570" transform="translate(-23818.252 12111.388)">
        <path id="패스_842226" data-name="패스 842226" d="M104.532,4.277l.011,8.094h3.377V10.608h-1.5V9.02h1.452V7.488h-1.452V5.905h1.545V4.256Z" transform="translate(23732.662 -12086.946)" fill="#3a7928"/>
        <path id="패스_842227" data-name="패스 842227" d="M216.329,4.4h3.418V6.024H218.2V7.6h1.453V9.105H218.2v1.568h1.5v1.743h-3.371Z" transform="translate(23631.762 -12087.08)" fill="#3a7928"/>
        <path id="패스_842228" data-name="패스 842228" d="M340.156,4.257v8.115h3.37V10.609h-1.5V9.02h1.455V7.489h-1.455V5.906h1.548V4.257Z" transform="translate(23520.006 -12086.946)" fill="#3a7928"/>
        <path id="패스_842229" data-name="패스 842229" d="M164.487,4.9h1.8v6.314h1.266v1.712H164.5Z" transform="translate(23678.504 -12087.54)" fill="#3a7928"/>
        <path id="패스_842230" data-name="패스 842230" d="M269.819,4.468h1.587l.725,6,.877-6h1.355l-1.079,8.057h-2.673Z" transform="translate(23583.746 -12087.144)" fill="#3a7928"/>
        <g id="그룹_465153" data-name="그룹 465153" transform="translate(23827 -12083)">
          <g id="그룹_465152" data-name="그룹 465152" transform="translate(0 0)" clip-path="url(#clip-path)">
            <path id="패스_842231" data-name="패스 842231" d="M397.507,2.718H399.9v.459a7.581,7.581,0,0,1,2.142-.7,2.067,2.067,0,0,1,1.716,1.356v6.755h-2.33V4.625a.9.9,0,0,0-1.528.056v5.85h-2.389Z" transform="translate(-359.755 -2.238)" fill="#3a7928"/>
            <rect id="사각형_341146" data-name="사각형 341146" width="2.837" height="1.666" transform="translate(6.205 3.494)" fill="#3a7928"/>
            <path id="패스_842232" data-name="패스 842232" d="M0,.916H4.95A6.525,6.525,0,0,0,2.617,2.908H.006Z" transform="translate(0 -0.826)" fill="#ec6500"/>
            <path id="패스_842233" data-name="패스 842233" d="M20.825,0S16.11,1.279,16.747,8.462h2.214s-.47-5.662,1.864-6.289Z" transform="translate(-15.103 0)" fill="#d9000d"/>
          </g>
        </g>
      </g>
    </g>
  </g>
</svg>
