<svg xmlns="http://www.w3.org/2000/svg" width="80" height="80" viewBox="0 0 80 80">
    <defs>
        <clipPath id="4xhgmkxyca">
            <path data-name="사각형 341149" style="fill:none" d="M0 0h45v8.918H0z"/>
        </clipPath>
    </defs>
    <path style="fill:none" d="M0 0h80v80H0z"/>
    <g data-name="그룹 492574" transform="translate(9.252 -1.887)">
        <path data-name="패스 70056" d="M30 0c16.569 0 30 11.325 30 30.915S30 78 30 78 0 50.7 0 30.915 13.431 0 30 0z" transform="translate(.748 2.888)" style="fill:#d2d5e8"/>
        <circle data-name="타원 8423" cx="25" cy="25" r="25" transform="translate(5.747 7.888)" style="fill:#fff"/>
        <g data-name="그룹 492568">
            <g data-name="그룹 465155" transform="translate(8.248 27.888)" style="clip-path:url(#4xhgmkxyca)">
                <path data-name="패스 842240" d="M8.587 5.964V4.01a1.986 1.986 0 0 1 2.072-2.237 4.02 4.02 0 0 1 2.134.262.731.731 0 0 0 .636-.035 4.06 4.06 0 0 1 2.887-.015 1.724 1.724 0 0 1 1.241 1.786c.005 1.564-.015 3.131.011 4.693.007.412-.135.5-.509.477a1.145 1.145 0 0 1-1.19-1.311c-.008-1.211 0-2.424 0-3.63 0-.735-.25-.98-.965-.98s-.982.267-.984.976c-.005 1.454-.015 2.907.007 4.358.006.4-.084.55-.519.542-1.191-.017-1.191 0-1.191-1.2V4.064c0-.789-.232-1.039-.954-1.045s-.977.254-.977 1.023c0 1.435-.013 2.869.008 4.3.006.394-.067.556-.512.55C8.587 8.878 8.587 8.9 8.587 7.7z" transform="translate(-.788 -.158)" style="fill-rule:evenodd;fill:#49474d"/>
                <path data-name="패스 842241" d="M.009 4.792a11.188 11.188 0 0 1 .072-2.036A2.918 2.918 0 0 1 1.993.343 4.767 4.767 0 0 1 5.635.4a2.371 2.371 0 0 1 1.58 2.229 2.278 2.278 0 0 1-1.456 2.188 24.345 24.345 0 0 1-2.8.916 4.137 4.137 0 0 0-.47.167c-.294.137-.589.31-.571.678a.9.9 0 0 0 .632.783 1.882 1.882 0 0 0 2.544-.928.323.323 0 0 1 .348-.2c.261-.005.521 0 .78 0 .857 0 .9.054.57.871a2.806 2.806 0 0 1-2.466 1.742 5.351 5.351 0 0 1-1.941-.058A2.84 2.84 0 0 1 .056 6.206a11.177 11.177 0 0 1-.047-1.414M1.9 4.631a14.385 14.385 0 0 0 2.776-.907 1.077 1.077 0 0 0 .265-1.845A1.887 1.887 0 0 0 3 1.537a1.568 1.568 0 0 0-1.088 1.424 16.641 16.641 0 0 0-.012 1.67" transform="translate(0 -.001)" style="fill:#ffa30a;fill-rule:evenodd"/>
                <path data-name="패스 842242" d="M25.141 5.257c0 .357.006.709 0 1.063a2.486 2.486 0 0 1-2.25 2.672 4.589 4.589 0 0 1-2.315-.168 2.076 2.076 0 0 1-1.526-1.86 1.871 1.871 0 0 1 1.414-1.858c.673-.255 1.377-.436 2.065-.658a3.956 3.956 0 0 0 .57-.219.541.541 0 0 0 .058-.979 1.564 1.564 0 0 0-2.29.62c-.075.177-.149.223-.314.217-.146-.006-.3 0-.446 0-.9 0-.983-.135-.623-.978a1.955 1.955 0 0 1 1.24-1.128A4.552 4.552 0 0 1 23.78 2a1.891 1.891 0 0 1 1.332 1.755c.034.5.005 1 .005 1.5zm-1.708.925v-.5c0-.164-.053-.257-.23-.2a12.474 12.474 0 0 0-1.9.618.835.835 0 0 0-.526.9.909.909 0 0 0 .842.775 1.443 1.443 0 0 0 1.816-1.586" transform="translate(-1.749 -.158)" style="fill-rule:evenodd;fill:#49474d"/>
                <path data-name="패스 842243" d="M47.385 2.974c0 .689.015 1.38-.006 2.069-.008.328.079.5.435.449a.418.418 0 0 1 .22 0c.262.113.723-.285.8.292.06.479-.283 1.057-.728 1.026-.807-.057-.745.409-.719.926a1.018 1.018 0 0 1-.437 1.018 1.118 1.118 0 0 1-.97.1c-.272-.091-.122-.422-.124-.644-.014-1.348-.006-1.348-1.363-1.348-.559 0-1.119-.009-1.677 0a.885.885 0 0 1-.916-.5.934.934 0 0 1 .087-1q1.736-2.394 3.487-4.78a1.246 1.246 0 0 1 .876-.541.84.84 0 0 1 1.033.922c.011.671 0 1.343 0 2.011m-1.538-.364-.112-.051-1.946 2.628c-.144.2-.082.307.164.307.54 0 1.08-.01 1.62 0 .284 0 .273-.18.273-.371V2.61" transform="translate(-3.837 -.003)" style="fill:#ffa30a;fill-rule:evenodd"/>
                <path data-name="패스 842244" d="M38.215 7.276c.948 0 1.836.024 2.723-.013.465-.019.588.145.536.571a.9.9 0 0 1-.9.892 99.318 99.318 0 0 1-3.742 0 .938.938 0 0 1-.858-1.306 1.981 1.981 0 0 1 .482-.739c.908-.935 1.813-1.869 2.71-2.814a3.049 3.049 0 0 0 .467-.621 1.207 1.207 0 0 0-.091-1.412 1.1 1.1 0 0 0-1.21-.364c-.529.113-.723.528-.853 1-.058.2.089.55-.159.593a5.973 5.973 0 0 1-1.33.015c-.123-.007-.1-.183-.1-.29A2.523 2.523 0 0 1 37.279.356a3.1 3.1 0 0 1 3.044.091 2.658 2.658 0 0 1 .329 4.124c-.677.747-1.395 1.45-2.092 2.174a.933.933 0 0 0-.346.531" transform="translate(-3.296)" style="fill:#ffa30a;fill-rule:evenodd"/>
                <path data-name="패스 842245" d="M33.943 7.573c.061 1.212.3 1.283-1.126 1.319-1.469.035-1.988-.492-1.988-1.95 0-2.1.008-4.208-.008-6.31 0-.35.074-.48.456-.472.88.018 1.177.236 1.22 1.135.019.388.143.485.485.443a.914.914 0 0 1 .333 0c.225.053.576-.173.652.206a.87.87 0 0 1-.331.894.791.791 0 0 1-.453.19c-.687-.069-.693.331-.678.842.031.928.006 1.86.009 2.79 0 .891.173 1.048 1.048.972.127-.012.254-.037.381-.058" transform="translate(-2.83 -.015)" style="fill-rule:evenodd;fill:#49474d"/>
                <path data-name="패스 842246" d="M29.86 3.074c-1.519-.155-1.637-.051-1.637 1.459 0 1.3-.01 2.6.008 3.91 0 .331-.082.444-.433.452-1.241.014-1.241.029-1.241-1.2 0-1.395-.006-2.793 0-4.189a1.559 1.559 0 0 1 1.7-1.751 4.219 4.219 0 0 1 .557.006c1.33.1 1.124.03 1.045 1.312" transform="translate(-2.438 -.161)" style="fill-rule:evenodd;fill:#49474d"/>
            </g>
        </g>
    </g>
</svg>
