<svg xmlns="http://www.w3.org/2000/svg" width="120" height="120" viewBox="0 0 120 120">
    <path data-name="icon" style="fill:#fff" d="M0 0h120v120H0z"/>
    <g data-name="그룹 464683" transform="translate(28.555 13.732)">
        <rect data-name="사각형 340931" width="62" height="92" rx="10" transform="translate(.445 .268)" style="stroke-linecap:round;stroke-linejoin:round;stroke:#191919;stroke-width:4px;fill:none"/>
        <path data-name="선 440" transform="translate(1.444 77.268)" style="stroke-linecap:round;stroke-linejoin:round;stroke:#191919;stroke-width:4px;fill:none" d="M0 0h61"/>
        <path data-name="선 441" transform="translate(26.444 85.268)" style="stroke-linecap:round;stroke-linejoin:round;stroke:#191919;stroke-width:4px;fill:none" d="M0 0h10"/>
    </g>
    <g data-name="사각형 341023" transform="translate(8 36)" style="stroke:#191919;stroke-width:4px;fill:#fff">
        <rect width="104" height="40" rx="8" style="stroke:none"/>
        <rect x="2" y="2" width="100" height="36" rx="6" style="fill:none"/>
    </g>
    <path data-name="패스 1" d="M354.766 414.889h2.308V422c0 1.767.589 2.832 2.1 2.832 1.781 0 2.433-.844 2.433-3.134v-6.81h2.309v6.952c0 3.34-1.7 4.772-4.727 4.772-2.976 0-4.423-1.416-4.423-4.9z" transform="translate(-335.204 -364.193)" style="fill:#e0007a"/>
    <path data-name="패스 2" d="M374.2 410.345h1.92v2.855h2.84v1.808h-2.84v2.824h-1.92v-2.824h-2.84V413.2h2.84z" transform="translate(-341.552 -362.353)" style="fill:#e0007a"/>
    <path data-name="패스 3" d="M452.928 421.679a1.765 1.765 0 0 1-1.865 1.869h-3.089a1.7 1.7 0 0 1-1.915-1.858v-6.7h2.022v2.655h2.825v-2.655h2.022zm-2.364.172c.228 0 .342-.12.342-.361v-2.168h-2.825v2.168a.317.317 0 0 0 .357.361z" transform="translate(-369.962 -364.196)" style="fill:#e0007a"/>
    <path data-name="패스 4" d="M471.394 414.21a3.558 3.558 0 1 0 3.642 3.557 3.6 3.6 0 0 0-3.642-3.557m0 5.4a1.839 1.839 0 1 1 1.839-1.839 1.839 1.839 0 0 1-1.839 1.839" transform="translate(-378.208 -363.877)" style="fill:#e0007a"/>
    <path data-name="패스 5" d="M459.687 426.451v-11.972h2.036v3.659h2.051v1.712h-2.051v6.6z" transform="translate(-375.124 -364.034)" style="fill:#e0007a"/>
    <path data-name="패스 6" d="M479.882 433.992h-7.234a1.467 1.467 0 0 1-1.557-1.49v-1.2a1.4 1.4 0 0 1 1.449-1.452h5.1a.226.226 0 0 0 .249-.259v-.48a.221.221 0 0 0-.24-.229h-6.278V427.3h6.987a1.38 1.38 0 0 1 1.568 1.39v1.226a1.352 1.352 0 0 1-1.5 1.415h-5.076c-.139 0-.207.073-.207.22v.571q0 .267.282.267h6.457z" transform="translate(-379.486 -369.104)" style="fill:#e0007a"/>
    <path data-name="사각형 3" transform="translate(98.424 50.497)" style="fill:#e0007a" d="M0 0h1.977v7.013H0z"/>
    <path data-name="패스 7" d="M421.952 420.26h-5.015v-2.471h1.563a1.689 1.689 0 0 0 1.758-1.778v-5.5h-8.631v5.407a1.8 1.8 0 0 0 2 1.871h1.333v2.471h-8.028a10.622 10.622 0 0 1-9.637 6.105h-.011a10.6 10.6 0 0 1-7.484-3.065 10.3 10.3 0 0 1-3.093-7.389 10.534 10.534 0 0 1 10.593-10.437h.014a10.605 10.605 0 0 1 7.488 3.068 10.337 10.337 0 0 1 2.668 10.31h1.816a12.043 12.043 0 0 0-3.243-11.531 12.358 12.358 0 0 0-8.728-3.575h-.015a12.277 12.277 0 0 0-12.346 12.16 12.01 12.01 0 0 0 3.606 8.612 12.355 12.355 0 0 0 8.727 3.578h.015a12.387 12.387 0 0 0 10.781-6.248h13.875zm-7.889-4.144a.417.417 0 0 1-.446-.438v-3.509h4.662v3.482c0 .373-.2.466-.519.466z" transform="translate(-346.658 -359.745)" style="fill:#e0007a"/>
    <path data-name="패스 8" d="M396.026 417.085a3.005 3.005 0 1 0-3 2.932 2.97 2.97 0 0 0 3-2.932m-4.521 0a1.516 1.516 0 1 1 1.517 1.516 1.517 1.517 0 0 1-1.517-1.516" transform="translate(-348.626 -363.846)" style="fill:#662c91"/>
    <path data-name="패스 9" d="M406.874 423.47h8.588c0-.109.009-.218.01-.328 0-.327-.017-.649-.046-.966h-8.552z" transform="translate(-355.04 -366.966)" style="fill:#662c91"/>
    <path data-name="패스 10" d="M403.324 414.372h-1.655v5.783h1.655v-2.481h1.654v-1.412h-1.655z" transform="translate(-353.065 -363.932)" style="fill:#662c91"/>
    <path data-name="패스 11" d="M412.648 417.13h-1.776c-.171 0-.271-.08-.271-.281v-1.131h1.593v-1.282h-3.236v2.577a1.328 1.328 0 0 0 1.337 1.411h5.824a10.259 10.259 0 0 0-.3-1.295h-1.277a.272.272 0 0 1-.3-.288v-1.124h1.023a10.3 10.3 0 0 0-.729-1.282h-1.888v2.695" transform="translate(-355.836 -363.946)" style="fill:#662c91"/>
    <path data-name="패스 12" d="M403.324 416.264v-1.892h-1.655v5.783h1.655v-2.481h1.654v-1.412z" transform="translate(-353.065 -363.932)" style="fill:#662c91"/>
    <path data-name="패스 13" d="M399.838 426a1.062 1.062 0 0 0-1.061-1.061h-6.147v1.308h5.34a.189.189 0 0 1 .189.189v.4a.186.186 0 0 1-.206.213h-4.339a1.059 1.059 0 0 0-1.06 1.06v1.291a1.06 1.06 0 0 0 1.059 1.06h6.149v-1.321h-5.282q-.233 0-.232-.22v-.463a.189.189 0 0 1 .189-.19h4.343a1.059 1.059 0 0 0 1.059-1.06z" transform="translate(-349.591 -368.092)" style="fill:#662c91"/>
    <path data-name="패스 14" d="M409 425.53v1.2h5.548a9.075 9.075 0 0 1-.251.79h-4.314a1.059 1.059 0 0 0-1.06 1.06v1.04a1.06 1.06 0 0 0 1.061 1.059h4.155a10.376 10.376 0 0 0 .792-1.2h-4.122a.2.2 0 0 1-.219-.218v-.41a.188.188 0 0 1 .189-.188h4.563a10.275 10.275 0 0 0 .853-3.134z" transform="translate(-355.822 -368.319)" style="fill:#662c91"/>
</svg>
