<svg xmlns="http://www.w3.org/2000/svg" width="80" height="80" viewBox="0 0 80 80">
    <defs>
        <clipPath id="upd3acy3pa">
            <path data-name="사각형 341150" style="fill:none" d="M0 0h65.902v64.036H0z"/>
        </clipPath>
    </defs>
    <path style="fill:none" d="M0 0h80v80H0z"/>
    <g data-name="icon" transform="translate(7 8)" style="clip-path:url(#upd3acy3pa)">
        <path data-name="패스 842225" d="M12.9 9.231h8.914a2.674 2.674 0 0 1 2.674 2.674v8.915a2.674 2.674 0 0 1-2.674 2.674H12.9a2.674 2.674 0 0 1-2.674-2.674v-8.915A2.674 2.674 0 0 1 12.9 9.231" transform="translate(.869 .869)" style="fill:#cfb8f4"/>
        <rect data-name="사각형 341149" width="12" height="12" rx="1" transform="translate(12.226 11.231)" style="stroke-width:2px;stroke:#191919;fill:none"/>
        <path data-name="선 126639" transform="translate(12.226 35.231)" style="stroke-linecap:round;stroke-width:2px;stroke:#191919;fill:none" d="M0 0h19"/>
        <path data-name="선 126640" transform="translate(12.226 43.231)" style="stroke-linecap:round;stroke-width:2px;stroke:#191919;fill:none" d="M0 0h12"/>
        <path data-name="패스 842226" d="m38.137 59.06-5.014.926a1.083 1.083 0 0 1-1.262-1.263l.925-5.014a2.076 2.076 0 0 1 .577-1.093l24.164-24.163a1.727 1.727 0 0 1 2.443 0l3.423 3.423a1.728 1.728 0 0 1 0 2.445L39.232 58.485a2.072 2.072 0 0 1-1.09.573" style="fill-rule:evenodd;fill:#cfb8f4"/>
        <path data-name="패스 842227" d="m38.137 59.06-5.014.926a1.083 1.083 0 0 1-1.262-1.263l.925-5.014a2.076 2.076 0 0 1 .577-1.093l24.164-24.163a1.727 1.727 0 0 1 2.443 0l3.423 3.423a1.728 1.728 0 0 1 0 2.445L39.232 58.485a2.072 2.072 0 0 1-1.095.575z" style="stroke:#141414;stroke-miterlimit:10;stroke-width:2px;fill:none"/>
        <path data-name="선 126641" transform="translate(53.289 32.691)" style="stroke:#141414;stroke-miterlimit:10;stroke-width:2px;fill:none" d="m0 0 5.868 5.868"/>
        <path data-name="패스 842228" d="M47.872 26.358V8a6 6 0 0 0-6-6H8a6 6 0 0 0-6 6v48.036a6 6 0 0 0 6 6h11.589" style="stroke-linejoin:round;stroke-linecap:round;stroke-width:2px;stroke:#191919;fill:none"/>
    </g>
</svg>
