<svg xmlns="http://www.w3.org/2000/svg" width="120" height="120" viewBox="0 0 120 120">
    <defs>
        <filter id="cwdj6dx4aa" x=".5" y="11.5" width="105" height="89" filterUnits="userSpaceOnUse">
            <feOffset dy="5"/>
            <feGaussianBlur stdDeviation="2.5" result="blur"/>
            <feFlood flood-opacity=".051"/>
            <feComposite operator="in" in2="blur"/>
            <feComposite in="SourceGraphic"/>
        </filter>
        <filter id="za99oe54sb" x="56.5" y="55.5" width="63" height="63" filterUnits="userSpaceOnUse">
            <feOffset dy="5"/>
            <feGaussianBlur stdDeviation="2.5" result="blur-2"/>
            <feFlood flood-opacity=".102"/>
            <feComposite operator="in" in2="blur-2"/>
            <feComposite in="SourceGraphic"/>
        </filter>
    </defs>
    <path data-name="bg" d="M145.035 98.048a28.7 28.7 0 1 0-28.7 28.7 28.7 28.7 0 0 0 28.7-28.7z" transform="translate(-29.945 -15.087)" style="fill:none"/>
    <g data-name="그룹 484264">
        <g data-name="그룹 465504">
            <g style="filter:url(#cwdj6dx4aa)">
                <rect data-name="사각형 341209" width="90" height="74" rx="16" transform="translate(7.998 14.002)" style="fill:#d2d5e8"/>
            </g>
            <g data-name="그룹 484240">
                <path data-name="선 126659" transform="translate(64 33.999)" style="stroke-linejoin:round;stroke:#fff;stroke-linecap:round;stroke-width:6px;fill:none" d="M0 0h17"/>
                <path data-name="선 126660" transform="translate(64 45.999)" style="stroke-linejoin:round;stroke:#fff;stroke-linecap:round;stroke-width:6px;fill:none" d="M0 0h17"/>
            </g>
            <g data-name="그룹 484248">
                <path data-name="합치기 29" d="M3.415 27.644A3.415 3.415 0 0 1 0 24.229v-1.463A11.388 11.388 0 0 1 7.824 11.95a6.5 6.5 0 1 1 7.119 0 11.388 11.388 0 0 1 7.823 10.815v1.463a3.415 3.415 0 0 1-3.416 3.416z" transform="translate(24 29.999)" style="stroke:transparent;stroke-miterlimit:10;fill:#fff"/>
            </g>
        </g>
        <g data-name="그룹 486293">
            <g style="filter:url(#za99oe54sb)">
                <path data-name="bg" d="M135.645 93.353a24 24 0 1 0-24 24 24 24 0 0 0 24-24z" transform="translate(-23.636 -11.346)" style="fill:#7c76ce"/>
            </g>
            <g data-name="그룹 484083">
                <path data-name="선 466" transform="rotate(-45 148.64 -51.569)" style="stroke:#fff;stroke-linecap:round;stroke-width:6px;fill:none" d="M0 0h22.627"/>
                <path data-name="선 126605" transform="rotate(-135 66.64 25.118)" style="stroke:#fff;stroke-linecap:round;stroke-width:6px;fill:none" d="M0 0h22.627"/>
            </g>
        </g>
    </g>
</svg>
