<svg xmlns="http://www.w3.org/2000/svg" width="56" height="18" viewBox="0 0 56 18">
    <defs>
        <clipPath id="2zu2ctsj8a">
            <path data-name="사각형 341148" style="fill:none" d="M0 0h56v18H0z"/>
        </clipPath>
    </defs>
    <path style="opacity:.525;fill:none" d="M0 0h56v18H0z"/>
    <g data-name="그룹 465154" style="clip-path:url(#2zu2ctsj8a)">
        <path data-name="패스 842234" d="M14.626 16.164V7.718H7.484l.5 3.191h2.959V14a4.41 4.41 0 0 1-2.3.556c-2.941 0-4.42-2.291-4.42-5.554 0-3.246 1.429-5.458 4.372-5.458a8.313 8.313 0 0 1 4.544 1.483l.57-3.744A10.4 10.4 0 0 0 8.5 0C3.235 0 0 3.64 0 9.023 0 14.38 2.99 18 8.4 18a11.08 11.08 0 0 0 6.227-1.835" style="fill:#0065b2;fill-rule:evenodd"/>
        <path data-name="패스 842235" d="M34.617 12.485c0-2.764-1.479-4.072-5.183-5.456-2.127-.827-2.6-1.255-2.6-2.14 0-.8.619-1.348 1.907-1.348a9.2 9.2 0 0 1 4.442 1.4l.643-3.617A10.7 10.7 0 0 0 28.689.168c-3.259 0-5.827 1.78-5.827 5.127 0 2.865 1.48 4 4.889 5.329 2.4.933 2.89 1.388 2.89 2.366 0 1.03-.84 1.558-2.052 1.558a11.973 11.973 0 0 1-5.408-1.606l-.616 3.668a13.8 13.8 0 0 0 5.95 1.3c3.387 0 6.1-1.656 6.1-5.428" transform="translate(-6.102 -.043)" style="fill:#0065b2;fill-rule:evenodd"/>
        <path data-name="패스 842236" d="M48.25 11.674c1.967-1.316 4.638-3.028 4.638-6.287 0-3.578-2.979-5.208-5.747-5.208a6.635 6.635 0 0 0-6.028 3.862L44.3 5.558a3.254 3.254 0 0 1 2.567-1.806 1.956 1.956 0 0 1 1.89 2.048c0 1-1.11 1.759-2.491 2.717-2.189 1.518-4.913 3.407-4.913 7.29a10.416 10.416 0 0 0 .178 1.775h11.36V14.1h-7.007c0-.762 1.086-1.572 2.366-2.428" transform="translate(-11.118 -.046)" style="fill:#12b5d3"/>
        <path data-name="패스 842237" d="M68.8 10.836a1.666 1.666 0 1 1 1.64-1.666 1.653 1.653 0 0 1-1.64 1.666" transform="translate(-18.165 -1.932)" style="fill:#fff"/>
        <path data-name="패스 842238" d="M67.75 7.234a3.318 3.318 0 0 0-1-.18 2.006 2.006 0 0 0-.95 3.746c.272.156.963.368 1.158.474a2.675 2.675 0 0 1 1.388 2.355 2.622 2.622 0 0 1-5.238.225l-3.516.778a6.316 6.316 0 0 0 12.524-1.252 6.458 6.458 0 0 0-4.366-6.146m-1 3.15a1.33 1.33 0 1 1 1.307-1.331 1.321 1.321 0 0 1-1.307 1.331" transform="translate(-16.115 -1.816)" style="fill:#12b5d3"/>
        <path data-name="패스 842239" d="m60.834.5-.693 8.035h3.538l.451-4.566h4.063A3.246 3.246 0 0 0 71.469.5z" transform="translate(-16.265 -.129)" style="fill:#12b5d3"/>
    </g>
</svg>
