<svg xmlns="http://www.w3.org/2000/svg" width="72.536" height="70" viewBox="0 0 72.536 70"><g transform="translate(7.266 6.343)"><rect width="70" height="70" transform="translate(-7.266 -6.343)" fill="#bcbcbc" opacity="0"/><rect width="49.745" height="49.745" transform="translate(2.132 3.132)" fill="#fff"/><path d="M0-.75H49.745L50.5,0V49.745l-.75.75H0l-.75-.75V0ZM49,.75H.75V49H49Z" transform="translate(2.132 3.132)"/><path d="M.75,49.745H-.75V0H.75Z" transform="translate(27.005 3.132)"/><path d="M49.745.75H0V-.75H49.745Z" transform="translate(2.132 28.005)"/><path d="M.53,50.276-.53,49.215,49.215-.53,50.276.53Z" transform="translate(2.132 3.132)"/><path d="M49.215,50.276-.53.53.53-.53,50.276,49.215Z" transform="translate(2.132 3.132)"/><path d="M41.753,40.131,29.719,33.183l12.034-6.948,12.034,6.948Z" transform="translate(-14.51 -11.926)" fill="#2c9cf1"/><path d="M41.378,40.78,29.344,33.832v-1.3l12.034-6.948h.75l12.034,6.948v1.3L42.128,40.78Zm-10.159-7.6,10.534,6.082,10.534-6.082L41.753,27.1Z" transform="translate(-14.51 -11.926)"/><path d="M41.753,59.817,29.719,52.87v-13.9l12.034,6.948Z" transform="translate(-14.51 -17.717)" fill="#2c9cf1"/><path d="M41.378,60.467,29.344,53.519l-.375-.65v-13.9l1.125-.65,12.034,6.948.375.65v13.9Zm-10.909-8.03L41,58.518V46.355L30.469,40.273Z" transform="translate(-14.51 -17.717)"/><path d="M63.818,52.87,51.783,59.817v-13.9l12.034-6.948Z" transform="translate(-24.541 -17.717)" fill="#2c9cf1"/><path d="M52.158,60.467l-1.125-.65v-13.9l.375-.65,12.034-6.948,1.125.65v13.9l-.375.65Zm.375-14.112V58.518l10.534-6.082V40.273Z" transform="translate(-24.541 -17.717)"/><g transform="translate(-1 0)"><rect width="5.174" height="5.174" transform="translate(0.545 0.545)" fill="#fff"/><path d="M0-.75H5.174l.75.75V5.174l-.75.75H0l-.75-.75V0ZM4.424.75H.75V4.424H4.424Z" transform="translate(0.545 0.545)"/><rect width="5.174" height="5.174" transform="translate(0.545 49.545)" fill="#fff"/><path d="M0-.75H5.174l.75.75V5.174l-.75.75H0l-.75-.75V0ZM4.424.75H.75V4.424H4.424Z" transform="translate(0.545 49.545)"/><rect width="5.174" height="5.174" transform="translate(0.545 25.545)" fill="#fff"/><path d="M0-.75H5.174l.75.75V5.174l-.75.75H0l-.75-.75V0ZM4.424.75H.75V4.424H4.424Z" transform="translate(0.545 25.545)"/><rect width="5.174" height="5.174" transform="translate(25.545 0.545)" fill="#fff"/><path d="M0-.75H5.174l.75.75V5.174l-.75.75H0l-.75-.75V0ZM4.424.75H.75V4.424H4.424Z" transform="translate(25.545 0.545)"/><rect width="5.174" height="5.174" transform="translate(25.545 49.545)" fill="#fff"/><path d="M0-.75H5.174l.75.75V5.174l-.75.75H0l-.75-.75V0ZM4.424.75H.75V4.424H4.424Z" transform="translate(25.545 49.545)"/><rect width="5.174" height="5.174" transform="translate(50.545 0.545)" fill="#fff"/><path d="M0-.75H5.174l.75.75V5.174l-.75.75H0l-.75-.75V0ZM4.424.75H.75V4.424H4.424Z" transform="translate(50.545 0.545)"/><rect width="5.174" height="5.174" transform="translate(50.545 49.545)" fill="#fff"/><path d="M0-.75H5.174l.75.75V5.174l-.75.75H0l-.75-.75V0ZM4.424.75H.75V4.424H4.424Z" transform="translate(50.545 49.545)"/><rect width="5.174" height="5.174" transform="translate(50.545 25.545)" fill="#fff"/><path d="M0-.75H5.174l.75.75V5.174l-.75.75H0l-.75-.75V0ZM4.424.75H.75V4.424H4.424Z" transform="translate(50.545 25.545)"/></g><path d="M101.169,68.116,86.246,67.088,96.458,78.019,96.213,73.1l7.6,3.618.982-2.064-7.6-3.618Z" transform="translate(-40.208 -30.498)" fill="#fff"/><path d="M86.3,66.34l14.923,1.028.392,1.353-2.962,2.173,6.471,3.079.355,1-.982,2.064-1,.355-6.471-3.079.182,3.67-1.3.549L85.7,67.6Zm12.776,2.384-10.98-.756,7.513,8.043-.143-2.877,1.071-.714,6.927,3.3.337-.709-6.927-3.3-.121-1.282Z" transform="translate(-40.208 -30.498)"/></g></svg>