<svg xmlns="http://www.w3.org/2000/svg" width="70" height="70" viewBox="0 0 70 70">
  <g id="illust_icon3" transform="translate(1.732 6.833)">
    <rect id="사각형_2420" data-name="사각형 2420" width="70" height="70" transform="translate(-1.732 -6.833)" fill="#bcbcbc" opacity="0"/>
    <rect id="사각형_2414" data-name="사각형 2414" width="50.072" height="36.732" rx="6.49" transform="translate(8.556 6.442)" fill="#fff"/>
    <path id="사각형_2414_-_윤곽선" data-name="사각형 2414 - 윤곽선" d="M6.49-.75H43.582a7.248,7.248,0,0,1,7.24,7.24V30.242a7.248,7.248,0,0,1-7.24,7.24H6.49a7.248,7.248,0,0,1-7.24-7.24V6.49A7.248,7.248,0,0,1,6.49-.75ZM43.582,35.982a5.746,5.746,0,0,0,5.74-5.74V6.49A5.746,5.746,0,0,0,43.582.75H6.49A5.746,5.746,0,0,0,.75,6.49V30.242a5.746,5.746,0,0,0,5.74,5.74Z" transform="translate(8.556 6.442)"/>
    <rect id="사각형_2415" data-name="사각형 2415" width="44.508" height="31.169" rx="5" transform="translate(11.338 9.225)" fill="#2c9cf1"/>
    <path id="패스_6592" data-name="패스 6592" d="M59.8,99.3H33.246a3.171,3.171,0,0,0-3.171,3.171v.8h32.9v-.8A3.171,3.171,0,0,0,59.8,99.3Z" transform="translate(-13.342 -48.053)" fill="#fff"/>
    <path id="패스_6592_-_윤곽선" data-name="패스 6592 - 윤곽선" d="M33.246,98.552H59.8a3.926,3.926,0,0,1,3.921,3.921v.8l-.75.75h-32.9l-.75-.75v-.8A3.926,3.926,0,0,1,33.246,98.552Zm28.98,3.975v-.055a2.424,2.424,0,0,0-2.421-2.421H33.246a2.424,2.424,0,0,0-2.421,2.421v.055Z" transform="translate(-13.342 -48.053)"/>
    <path id="패스_6594" data-name="패스 6594" d="M61.162,92.894h-15l1.613-7.346H59.549Z" transform="translate(-20.478 -41.95)" fill="#fff"/>
    <path id="패스_6594_-_윤곽선" data-name="패스 6594 - 윤곽선" d="M61.162,93.644h-15l-.733-.911,1.613-7.346.733-.589H59.549l.733.589,1.613,7.346Zm-14.069-1.5H60.23L58.946,86.3H48.377Z" transform="translate(-20.478 -41.95)"/>
    <path id="패스_6596" data-name="패스 6596" d="M49.854,15.042,37.577,7.954,49.854.866,62.13,7.954Z" transform="translate(-16.67 -1.385)" fill="#fff"/>
    <path id="패스_6596_-_윤곽선" data-name="패스 6596 - 윤곽선" d="M49.479,15.691,37.2,8.6V7.3L49.479.216h.75L62.5,7.3V8.6L50.229,15.691Zm-10.4-7.737,10.777,6.222L60.63,7.954,49.854,1.732Z" transform="translate(-16.67 -1.385)"/>
    <path id="패스_6598" data-name="패스 6598" d="M49.854,34.868,37.577,27.78V13.6l12.277,7.088Z" transform="translate(-16.67 -7.036)" fill="#fff"/>
    <path id="패스_6598_-_윤곽선" data-name="패스 6598 - 윤곽선" d="M49.479,35.518,37.2,28.43l-.375-.65V13.6l1.125-.65,12.277,7.088.375.65V34.868Zm-11.152-8.17L49.1,33.569V21.126L38.327,14.9Z" transform="translate(-16.67 -7.036)"/>
    <path id="패스_6600" data-name="패스 6600" d="M71.918,27.78,59.641,34.868V20.693L71.918,13.6Z" transform="translate(-26.458 -7.036)" fill="#fff"/>
    <path id="패스_6600_-_윤곽선" data-name="패스 6600 - 윤곽선" d="M60.016,35.518l-1.125-.65V20.693l.375-.65,12.277-7.088,1.125.65V27.78l-.375.65Zm.375-14.392V33.569l10.777-6.222V14.9Z" transform="translate(-26.458 -7.036)"/>
    <rect id="사각형_2417" data-name="사각형 2417" width="37.584" height="3.287" transform="translate(14.391 32.514)" fill="#fff"/>
    <path id="사각형_2417_-_윤곽선" data-name="사각형 2417 - 윤곽선" d="M0-.75H37.584l.75.75V3.287l-.75.75H0l-.75-.75V0ZM36.834.75H.75V2.537H36.834Z" transform="translate(14.391 32.514)"/>
  </g>
</svg>
