<svg xmlns="http://www.w3.org/2000/svg" width="70" height="70" viewBox="0 0 70 70"><g transform="translate(1.646 17.315)"><rect width="70" height="70" transform="translate(-1.646 -17.315)" fill="#bcbcbc" opacity="0"/><path d="M35.392,37.1v-.645H55.838V.75h-35V37.1a9.373,9.373,0,0,0,5.714,8.65h3.125a9.372,9.372,0,0,0,5.715-8.65" transform="translate(-1.443 -5.737)" fill="#fff"/><path d="M29.828,46.5H26.4l-.14-.059A10.123,10.123,0,0,1,20.088,37.1V0h36.5V37.206H36.141a10.1,10.1,0,0,1-6.174,9.236ZM26.707,45h2.816a8.6,8.6,0,0,0,5.12-7.9V35.706H55.088V1.5h-33.5V37.1A8.6,8.6,0,0,0,26.707,45Z" transform="translate(-1.443 -5.737)"/><path d="M39.881,53.741v.694a10.111,10.111,0,0,1-5.8,9.306h27.2a10.111,10.111,0,0,0,5.8-9.306v-.694Z" transform="translate(-7.022 -23.728)" fill="#fff"/><path d="M39.131,52.991h28.7v1.444a11.267,11.267,0,0,1-1.74,6.057,10.34,10.34,0,0,1-4.507,3.934l-.146.065H34.078l-.305-1.435a9.339,9.339,0,0,0,5.358-8.621Zm27.2,1.5h-25.7a11.263,11.263,0,0,1-1.74,6,10.628,10.628,0,0,1-2.2,2.5H61.112A9.349,9.349,0,0,0,66.328,54.491Z" transform="translate(-7.022 -23.728)"/><path d="M60.428,21.2h0a10,10,0,0,0-10-10v10h10Z" transform="translate(-9.943 -9.092)" fill="#fff"/><path d="M49.678,21.95V10.45h.75A10.75,10.75,0,0,1,61.178,21.2v.75Zm1.5-9.97v8.47h8.47a9.252,9.252,0,0,0-8.47-8.47Z" transform="translate(-9.943 -9.092)"/><path d="M42.121,25.436v-10a10,10,0,1,0,10,10h-10Z" transform="translate(-5.065 -10.452)" fill="#ea630a"/><path d="M42.121,36.186a10.75,10.75,0,0,1,0-21.5h.75v10h10v.75a10.748,10.748,0,0,1-10.75,10.751Zm-.75-19.97a9.251,9.251,0,1,0,9.971,9.97H41.371Z" transform="translate(-5.065 -10.452)"/><g transform="translate(5.757 14.534)"><path d="M16.31,29.5H3.718A2.967,2.967,0,0,0,.75,32.471v8.26A2.968,2.968,0,0,0,3.718,43.7H7.246v5.534l4.67-5.534H16.31a2.968,2.968,0,0,0,2.966-2.968v-8.26A2.967,2.967,0,0,0,16.31,29.5Z" transform="translate(-0.75 -29.503)" fill="#fff"/><path d="M3.718,28.753H16.31a3.722,3.722,0,0,1,3.716,3.718v8.26a3.721,3.721,0,0,1-3.716,3.718H12.265L6.5,51.285V44.449H3.718A3.722,3.722,0,0,1,0,40.731v-8.26A3.722,3.722,0,0,1,3.718,28.753Zm12.592,14.2a2.22,2.22,0,0,0,2.216-2.218v-8.26a2.22,2.22,0,0,0-2.216-2.218H3.718A2.221,2.221,0,0,0,1.5,32.471v8.26a2.22,2.22,0,0,0,2.218,2.218H8v4.233l3.572-4.233Z" transform="translate(-0.75 -29.503)"/><path d="M6.65.75H0V-.75H6.65Z" transform="translate(5.938 4.592)"/><path d="M6.65.75H0V-.75H6.65Z" transform="translate(5.938 8.708)"/></g></g></svg>