<svg xmlns="http://www.w3.org/2000/svg" width="60" height="60" viewBox="0 0 60 60">
    <g data-name="그룹 493398">
        <g data-name="그룹 493389">
            <g data-name="그룹 486168">
                <g data-name="그룹 486164">
                    <path data-name="빼기 23" d="M42 0v12.3c0 6.118-9.4 11.068-21 11.068S0 18.415 0 12.3V0z" transform="translate(9 29.634)" style="stroke:#191919;stroke-linecap:round;stroke-linejoin:round;stroke-width:2px;fill:#eff1f5"/>
                </g>
                <g data-name="그룹 486167">
                    <path data-name="빼기 23" d="M42 0v12.3c0 6.118-9.4 11.068-21 11.068S0 18.415 0 12.3V0z" transform="translate(9 17.952)" style="stroke:#191919;stroke-linecap:round;stroke-linejoin:round;stroke-width:2px;fill:#eff1f5"/>
                </g>
                <g data-name="그룹 486169" transform="translate(9 6.999)">
                    <ellipse data-name="타원 8799" cx="21" cy="11.683" rx="21" ry="11.683" style="stroke:#191919;stroke-linecap:round;stroke-linejoin:round;stroke-width:2px;fill:#eff1f5"/>
                    <g transform="translate(11.004 8.574)">
                        <rect data-name="사각형 350152" width="4.62" height="2" rx="1" transform="translate(15.372 2.266)" style="fill:#191919"/>
                        <path data-name="패스 862599" d="m366.795 486.187 3.448 7.156 3.864-7.156 3.933 7.156 3.359-7.156" transform="translate(-363.974 -486.187)" style="fill:none;stroke:#191919;stroke-linecap:round;stroke-linejoin:round;stroke-width:2px"/>
                        <rect data-name="사각형 350201" width="5.04" height="2" rx="1" transform="translate(0 2.267)" style="fill:#191919"/>
                    </g>
                </g>
            </g>
        </g>
    </g>
</svg>
