<svg xmlns="http://www.w3.org/2000/svg" width="150" height="150" viewBox="0 0 150 150">
    <defs>
        <clipPath id="7g8wuvwq9a">
            <path data-name="합치기 91" d="M129.636 138v-4.182h4.182V138zm-8.364 0v-4.182h4.182V138zm-20.909 0v-4.182h4.182V138zM92 138v-4.182h4.182V138zm-4.182 0v-4.182H92V138zm-8.364 0v-4.182h4.182V138zm-8.364 0v-4.182h4.182V138zm-20.909 0v-4.182h4.182V138zM46 138v-4.182h4.182V138zm-4.182 0v-4.182H46V138zm-4.182 0v-4.182h4.182V138zM0 138v-29.273h29.273V138zm4.182-4.182h20.909v-20.909H4.182zm117.091 0v-4.182h4.182v4.182zm-4.182 0v-4.182h4.182v4.182zm-16.727 0v-4.182h4.182v4.182zm-4.182 0v-4.182h4.182v4.182zm-4.182 0v-4.182h4.182v4.182zm-12.545 0v-4.182h4.182v4.182zm-8.364 0v-4.182h4.182v4.182zm-16.727 0v-4.182h4.182v4.182zm-4.182 0v-4.182h4.182v4.182zm-4.182 0v-4.182h4.182v4.182zm-4.182 0v-4.182H46v4.182zm-8.364 0v-4.182h4.182v4.182zm100.364-4.182v-4.182H138v4.182zm-8.364 0v-4.182h4.182v4.182zm-4.182 0v-4.182h4.182v4.182zm-4.182 0v-4.182h4.182v4.182zm-4.182 0v-4.182h4.182v4.182zm-20.909 0v-4.182h4.182v4.182zm-8.364 0v-4.182h4.182v4.182zm-8.364 0v-4.182h4.182v4.182zm-8.364 0v-4.182h4.182v4.182zm-4.182 0v-4.182h4.182v4.182zm-4.182 0v-4.182h4.182v4.182zm-20.909 0v-4.182h4.182v4.182zm-4.182 0v-4.182h4.182v4.182zm-16.727 0v-4.182h4.182v4.182zm-4.182 0v-4.182h4.182v4.182zm-4.182 0v-4.182h4.182v4.182zm121.273-4.182v-4.182h4.182v4.182zm-4.182 0v-4.182h4.182v4.182zm-4.182 0v-4.182h4.182v4.182zm-8.364 0v-4.182h4.182v4.182zm-8.364 0v-4.182h4.182v4.182zm-8.364 0v-4.182h4.182v4.182zm-8.364 0v-4.182H92v4.182zm-4.182 0v-4.182h4.182v4.182zm-12.545 0v-4.182h4.182v4.182zm-4.182 0v-4.182h4.182v4.182zm-4.182 0v-4.182h4.182v4.182zm-4.182 0v-4.182h4.182v4.182zm-4.182 0v-4.182h4.182v4.182zm-4.182 0v-4.182h4.182v4.182zm-4.182 0v-4.182h4.182v4.182zm-4.182 0v-4.182H46v4.182zm-4.182 0v-4.182h4.182v4.182zm-20.909 0v-4.182h4.182v4.182zm-4.182 0v-4.182h4.182v4.182zm-4.182 0v-4.182h4.182v4.182zm125.455-4.182v-4.182H138v4.182zm-4.182 0v-4.182h4.182v4.182zm-12.545 0v-4.182h4.182v4.182zm-4.182 0v-4.182h4.182v4.182zm-4.182 0v-4.182h4.182v4.182zm-4.182 0v-4.182h4.182v4.182zm-4.182 0v-4.182h4.182v4.182zm-8.364 0v-4.182h4.182v4.182zm-12.545 0v-4.182h4.182v4.182zm-4.182 0v-4.182h4.182v4.182zm-4.182 0v-4.182h4.182v4.182zm-4.182 0v-4.182h4.182v4.182zm-16.727 0v-4.182h4.182v4.182zm-8.364 0v-4.182H46v4.182zm-25.091 0v-4.182h4.182v4.182zm-4.182 0v-4.182h4.182v4.182zm-4.182 0v-4.182h4.182v4.182zm121.273-4.182v-4.182h4.182v4.182zm-4.182 0v-4.182h4.182v4.182zm-4.182 0v-4.182h4.182v4.182zm-4.182 0v-4.182h4.182v4.182zm-16.727 0v-4.182h4.182v4.182zm-4.182 0v-4.182h4.182v4.182zm-4.182 0v-4.182h4.182v4.182zm-8.364 0v-4.182h4.182v4.182zm-8.364 0v-4.182h4.182v4.182zm-12.545 0v-4.182h4.182v4.182zm-4.182 0v-4.182h4.182v4.182zm-4.182 0v-4.182h4.182v4.182zm-8.364 0v-4.182h4.182v4.182zm-4.182 0v-4.182H46v4.182zm-4.182 0v-4.182h4.182v4.182zm92-4.182v-4.182h4.182v4.182zm-4.182 0v-4.182h4.182v4.182zm-8.364 0v-4.182h4.182v4.182zm-8.364 0v-4.182h4.182v4.182zm-8.364 0v-4.182h4.182v4.182zm-4.182 0v-4.182h4.182v4.182zm-4.182 0v-4.182h4.182v4.182zm-4.182 0v-4.182H92v4.182zm-8.364 0v-4.182h4.182v4.182zm-8.364 0v-4.182h4.182v4.182zm-4.182 0v-4.182h4.182v4.182zm-4.182 0v-4.182h4.182v4.182zm-4.182 0v-4.182h4.182v4.182zm-16.727 0v-4.182H46v4.182zm-4.182 0v-4.182h4.182v4.182zm96.182-4.182v-4.182H138v4.182zm-8.364 0v-4.182h4.182v4.182zm-8.364 0v-4.182h4.182v4.182zm-16.727 0v-4.182h4.182v4.182zm-8.364 0v-4.182h4.182v4.182zm-4.182 0v-4.182H92v4.182zm-20.909 0v-4.182h4.182v4.182zm-4.182 0v-4.182h4.182v4.182zm-8.364 0v-4.182h4.182v4.182zm-4.182 0v-4.182h4.182v4.182zm-8.364 0v-4.182H46v4.182zm87.818-4.182v-4.182h4.182v4.182zm-4.182 0v-4.182h4.182v4.182zm-4.182 0v-4.182h4.182v4.182zm-4.182 0v-4.182h4.182v4.182zm-4.182 0v-4.182h4.182v4.182zm-4.182 0v-4.182h4.182v4.182zm-4.182 0v-4.182h4.182v4.182zm-4.182 0v-4.182h4.182v4.182zm-4.182 0v-4.182h4.182v4.182zm-4.182 0v-4.182h4.182v4.182zm-8.364 0v-4.182h4.182v4.182zm-4.182 0v-4.182h4.182v4.182zm-16.727 0v-4.182h4.182v4.182zm-8.364 0v-4.182h4.182v4.182zm-8.364 0v-4.182h4.182v4.182zm-12.545 0v-4.182h4.182v4.182zm-4.182 0v-4.182h4.182v4.182zm-4.182 0v-4.182h4.182v4.182zm-12.545 0v-4.182h4.182v4.182zm-4.182 0v-4.182h4.182v4.182zm-4.182 0v-4.182h4.198v4.182zm129.636-4.182v-4.18H138v4.182zm-4.182 0v-4.18h4.182v4.182zm-4.182 0v-4.18h4.182v4.182zm-4.182 0v-4.18h4.182v4.182zm-4.182 0v-4.18h4.182v4.182zm-4.182 0v-4.18h4.182v4.182zm-4.182 0v-4.18h4.182v4.182zm-8.364 0v-4.18h4.182v4.182zm-4.182 0v-4.18h4.182v4.182zm-4.182 0v-4.18h4.182v4.182zm-4.182 0v-4.18H92v4.182zm-16.727 0v-4.18h4.182v4.182zm-4.182 0v-4.18h4.182v4.182zm-4.182 0v-4.18h4.182v4.182zm-12.545 0v-4.18h4.182v4.182zm-4.182 0v-4.18h4.182v4.182zm-4.182 0v-4.18H46v4.182zm-4.182 0v-4.18H41.8v4.182zm-8.364 0v-4.18h4.182v4.182zm-25.091 0v-4.18h4.201v4.182zm-4.182 0v-4.18h4.201v4.182zm129.636-4.182V92h4.182v4.182zm-8.364 0V92h4.182v4.182zm-4.182 0V92h4.182v4.182zm-8.364 0V92h4.182v4.182zm-4.182 0V92h4.182v4.182zm-4.182 0V92h4.182v4.182zm-8.364 0V92h4.182v4.182zm-4.182 0V92H92v4.182zm-20.909 0V92h4.182v4.182zm-12.545 0V92h4.182v4.182zm-4.182 0V92h4.182v4.182zm-25.091 0V92h4.182v4.182zm-4.182 0V92h4.182v4.182zm-8.364 0V92h4.182v4.182zm-8.364 0V92h4.204v4.182zM0 96.182V92h4.182v4.182zM133.818 92v-4.182H138V92zm-20.909 0v-4.182h4.182V92zm-25.091 0v-4.182H92V92zm-4.182 0v-4.182h4.182V92zm-8.364 0v-4.182h4.182V92zm-8.364 0v-4.182h4.182V92zm-4.182 0v-4.182h4.182V92zm-8.364 0v-4.182h4.182V92zm-16.726 0v-4.182h4.182V92zm-4.182 0v-4.182h4.182V92zM4.182 92v-4.182h4.182V92zm129.636-4.182v-4.182H138v4.182zm-4.182 0v-4.182h4.182v4.182zm-4.182 0v-4.182h4.182v4.182zm-4.182 0v-4.182h4.182v4.182zm-4.182 0v-4.182h4.182v4.182zm-4.182 0v-4.182h4.182v4.182zm-4.182 0v-4.182h4.182v4.182zm-12.545 0v-4.182h4.182v4.182zm-4.182 0v-4.182h4.182v4.182zm-4.182 0v-4.182H92v4.182zm-12.545 0v-4.182h4.182v4.182zm-4.182 0v-4.182h4.182v4.182zm-4.182 0v-4.182h4.182v4.182zm-4.182 0v-4.182h4.182v4.182zm-16.726 0v-4.182h4.182v4.182zm-8.364 0v-4.182h4.182v4.182zm-12.545 0v-4.182h4.182v4.182zm-4.182 0v-4.182h4.182v4.182zm-4.182 0v-4.182h4.182v4.182zm-12.545 0v-4.182h4.182v4.182zm-4.182 0v-4.182h4.182v4.182zm108.727-4.182v-4.181h4.182v4.182zm-4.182 0v-4.181h4.182v4.182zm-4.182 0v-4.181h4.182v4.182zm-12.545 0v-4.181H92v4.182zm-25.091 0v-4.181h4.182v4.182zm-4.182 0v-4.181h4.182v4.182zm-4.182 0v-4.181h4.182v4.182zm-4.182 0v-4.181h4.182v4.182zm-12.545 0v-4.181h4.182v4.182zm-8.364 0v-4.181h4.182v4.182zm-8.364 0v-4.181h4.182v4.182zM0 83.636v-4.181h4.182v4.182zm133.818-4.182v-4.181H138v4.182zm-29.273 0v-4.181h4.182v4.182zM92 79.455v-4.182h4.182v4.182zm-4.182 0v-4.182H92v4.182zm-4.182 0v-4.182h4.182v4.182zm-4.182 0v-4.182h4.182v4.182zm-4.182 0v-4.182h4.182v4.182zm-12.545 0v-4.182h4.182v4.182zm-4.182 0v-4.182h4.182v4.182zm-4.182 0v-4.182h4.182v4.182zm-4.182 0v-4.182h4.182v4.182zm-4.182 0v-4.182h4.182v4.182zm-8.364 0v-4.182h4.182v4.182zm-4.182 0v-4.182h4.182v4.182zm-4.182 0v-4.182h4.182v4.182zm-4.182 0v-4.182h4.182v4.182zm-20.909 0v-4.182h4.184v4.182zm-4.18 0v-4.182h4.182v4.182zm133.818-4.182v-4.182H138v4.182zm-4.182 0v-4.182h4.182v4.182zm-12.545 0v-4.182h4.182v4.182zm-4.182 0v-4.182h4.182v4.182zm-12.545 0v-4.182h4.182v4.182zm-12.545 0v-4.182H92v4.182zm-16.727 0v-4.182h4.182v4.182zm-8.364 0v-4.182h4.182v4.182zm-4.182 0v-4.182h4.182v4.182zm-4.182 0v-4.182h4.182v4.182zm-12.545 0v-4.182H46v4.182zm-8.364 0v-4.182h4.182v4.182zm-4.182 0v-4.182h4.182v4.182zm-20.909 0v-4.182h4.182v4.182zm-8.364 0v-4.182h4.182v4.182zm112.909-4.182v-4.182h4.182v4.182zm-12.545 0v-4.182h4.182v4.182zm-4.182 0v-4.182h4.182v4.182zm-20.909 0v-4.182h4.182v4.182zm-4.182 0v-4.182h4.182v4.182zm-4.182 0v-4.182h4.182v4.182zm-16.727 0v-4.182h4.182v4.182zm-8.364 0v-4.182H46v4.182zm-4.182 0v-4.182h4.182v4.182zm-12.545 0v-4.182h4.182v4.182zm-4.182 0v-4.182h4.182v4.182zm-8.364 0v-4.182h4.182v4.182zm-8.364 0v-4.182h4.183v4.182zm121.273-4.182v-4.182h4.182v4.182zm-8.364 0v-4.182h4.182v4.182zm-4.182 0v-4.182h4.182v4.182zm-4.182 0v-4.182h4.182v4.182zm-4.182 0v-4.182h4.182v4.182zm-12.544 0v-4.182h4.182v4.182zm-4.182 0v-4.182H92v4.182zm-4.182 0v-4.182h4.182v4.182zm-4.182 0v-4.182h4.182v4.182zm-4.182 0v-4.182h4.182v4.182zm-4.182 0v-4.182h4.182v4.182zm-4.182 0v-4.182h4.182v4.182zm-8.364 0v-4.182h4.182v4.182zm-20.909 0v-4.182h4.182v4.182zm-8.364 0v-4.182h4.182v4.182zm-8.364 0v-4.182h4.182v4.182zm-12.545 0v-4.182h4.182v4.182zm-4.182 0v-4.182h4.184v4.182zm-4.18 0v-4.182h4.182v4.182zm121.273-4.182v-4.182h4.182v4.182zm-8.364 0v-4.182h4.182v4.182zm-8.364 0v-4.182h4.182v4.182zm-12.545 0v-4.182h4.182v4.182zm-8.364 0v-4.182h4.182v4.182zm-4.182 0v-4.182h4.182v4.182zm-4.182 0v-4.182h4.182v4.182zm-4.182 0v-4.182h4.182v4.182zm-4.182 0v-4.182h4.182v4.182zm-4.182 0v-4.182h4.182v4.182zm-4.182 0v-4.182h4.182v4.182zm-12.544 0v-4.182h4.182v4.182zm-16.727 0v-4.182h4.182v4.182zm-4.182 0v-4.182h4.182v4.182zm-12.545 0v-4.182h4.182v4.182zm-4.182 0v-4.182h4.182v4.182zm-4.182 0v-4.182h4.182v4.182zm-4.182 0v-4.182h4.182v4.182zm133.818-4.182v-4.181H138v4.182zm-8.364 0v-4.181h4.182v4.182zm-4.182 0v-4.181h4.182v4.182zm-4.182 0v-4.181h4.182v4.182zm-4.182 0v-4.181h4.182v4.182zm-12.545 0v-4.181h4.182v4.182zm-4.182 0v-4.181h4.182v4.182zm-4.182 0v-4.181h4.182v4.182zm-16.727 0v-4.181h4.182v4.182zm-4.182 0v-4.181h4.182v4.182zm-4.182 0v-4.181h4.182v4.182zm-8.364 0v-4.181h4.182v4.182zm-8.364 0v-4.181h4.182v4.182zm-8.364 0v-4.181H46v4.182zm-4.182 0v-4.181h4.182v4.182zm-4.182 0v-4.181h4.182v4.182zm-12.545 0v-4.181h4.182v4.182zm-4.182 0v-4.181h4.182v4.182zm-8.364 0v-4.181h4.182v4.182zm108.727-4.182v-4.181h4.182v4.182zm-8.364 0v-4.181h4.182v4.182zm-4.182 0v-4.181h4.182v4.182zm-8.364 0v-4.181h4.182v4.182zm-20.909 0v-4.181h4.182v4.182zm-8.364 0v-4.181h4.182v4.182zm-12.545 0v-4.181h4.182v4.182zm-4.182 0v-4.181h4.182v4.182zm-8.364 0v-4.181H46v4.182zm-8.364 0v-4.181h4.182v4.182zm-8.364 0v-4.181h4.182v4.182zm-8.364 0v-4.181h4.182v4.182zm-12.545 0v-4.181h4.187v4.182zm121.273-4.182V46h4.182v4.182zm-4.182 0V46h4.182v4.182zm-20.909 0V46h4.182v4.182zm-8.364 0V46h4.182v4.182zm-4.182 0V46H92v4.182zm-4.182 0V46h4.182v4.182zm-4.182 0V46h4.182v4.182zm-12.545 0V46h4.182v4.182zm-8.364 0V46h4.182v4.182zM46 50.182V46h4.182v4.182zm-16.727 0V46h4.182v4.182zm-20.909 0V46h4.182v4.182zm-4.182 0V46h4.182v4.182zM125.455 46v-4.182h4.182V46zm-4.182 0v-4.182h4.182V46zm-8.364 0v-4.182h4.182V46zm-16.727 0v-4.182h4.182V46zM92 46v-4.182h4.182V46zm-4.182 0v-4.182H92V46zm-4.182 0v-4.182h4.182V46zm-12.545 0v-4.182h4.182V46zm-4.182 0v-4.182h4.182V46zm-4.182 0v-4.182h4.182V46zm-4.182 0v-4.182h4.182V46zm-8.364 0v-4.182h4.182V46zM46 46v-4.182h4.182V46zm-8.364 0v-4.182h4.182V46zm-12.545 0v-4.182h4.182V46zm-4.182 0v-4.182h4.182V46zm-4.182 0v-4.182h4.182V46zm-4.182 0v-4.182h4.182V46zm-8.363 0v-4.182h4.182V46zm129.636-4.182v-4.182H138v4.182zm-4.182 0v-4.182h4.182v4.182zm-4.182 0v-4.182h4.182v4.182zm-4.182 0v-4.182h4.182v4.182zm-4.182 0v-4.182h4.182v4.182zm-16.727 0v-4.182h4.182v4.182zm-4.182 0v-4.182h4.182v4.182zm-4.182 0v-4.182h4.182v4.182zm-20.909 0v-4.182h4.182v4.182zm-4.182 0v-4.182h4.182v4.182zm-16.727 0v-4.182h4.182v4.182zm-4.182 0v-4.182h4.182v4.182zm-16.727 0v-4.182h4.182v4.182zm-16.727 0v-4.182h4.182v4.182zm-4.182 0v-4.182h4.182v4.182zm-4.182 0v-4.182h4.183v4.182zm125.455-4.182v-4.181h4.182v4.182zm-4.182 0v-4.181h4.182v4.182zm-4.182 0v-4.181h4.182v4.182zm-8.364 0v-4.181h4.182v4.182zm-8.364 0v-4.181h4.182v4.182zm-29.273 0v-4.181h4.182v4.182zm-4.182 0v-4.181h4.182v4.182zm-16.727 0v-4.181h4.182v4.182zm-4.182 0v-4.181h4.182v4.182zm-4.182 0v-4.181h4.182v4.182zm-4.182 0v-4.181H46v4.182zm-4.182 0v-4.181h4.182v4.182zm-12.545 0v-4.181h4.182v4.182zm-16.727 0v-4.181h4.182v4.182zm-4.182 0v-4.181h4.184v4.182zm96.182-4.182v-4.181h4.182v4.182zm-25.091 0v-4.181h4.182v4.182zm-12.545 0v-4.181h4.182v4.182zm-8.364 0v-4.181h4.182v4.182zm-4.182 0v-4.181h4.182v4.182zm-4.182 0v-4.181h4.182v4.182zm-8.364 0v-4.181h4.182v4.182zm71.091-4.182V0H138v29.273zm4.182-4.182h20.909V4.182h-20.907zm-12.545 4.182v-4.181h4.182v4.182zm-8.364 0v-4.181h4.182v4.182zm-8.364 0v-4.181h4.182v4.182zm-8.364 0v-4.181h4.182v4.182zm-8.364 0v-4.181h4.182v4.182zm-8.364 0v-4.181h4.182v4.182zm-8.364 0v-4.181h4.182v4.182zm-8.364 0v-4.181H46v4.182zm-8.364 0v-4.181h4.182v4.182zM0 29.273V0h29.273v29.273zm4.182-4.182h20.909V4.182H4.182zm87.818 0v-4.182h4.182v4.182zm-16.727 0v-4.182h4.182v4.182zm-8.364 0v-4.182h4.182v4.182zm-8.364 0v-4.182h4.182v4.182zm-4.182 0v-4.182h4.182v4.182zm-8.364 0v-4.182h4.182v4.182zm-8.364 0v-4.182h4.182v4.182zm-4.182 0v-4.182h4.182v4.182zm92-4.182v-4.182h4.182v4.182zm-4.182 0v-4.182h4.182v4.182zm-4.182 0v-4.182h4.182v4.182zm-16.727 0v-4.182h4.182v4.182zm-4.182 0v-4.182h4.182v4.182zm-16.727 0v-4.182h4.182v4.182zm-4.182 0v-4.182h4.182v4.182zm-4.182 0v-4.182h4.182v4.182zm-4.182 0v-4.182h4.182v4.182zm-4.182 0v-4.182h4.182v4.182zm-4.182 0v-4.182h4.182v4.182zm-8.364 0v-4.182h4.182v4.182zm-33.455 0v-4.182h4.182v4.182zm-4.182 0v-4.182h4.182v4.182zm-4.182 0v-4.182h4.182v4.182zm117.091-4.182v-4.182h4.182v4.182zm-4.182 0v-4.182h4.182v4.182zm-4.182 0v-4.182h4.182v4.182zm-50.182 0v-4.182h4.182v4.182zm-4.182 0v-4.182h4.182v4.182zm-12.545 0v-4.182h4.182v4.182zm-4.182 0v-4.182h4.182v4.182zm-4.182 0v-4.182H46v4.182zm-4.182 0v-4.182h4.182v4.182zm-4.182 0v-4.182h4.182v4.182zm-16.727 0v-4.182h4.182v4.182zm-4.182 0v-4.182h4.182v4.182zm-4.182 0v-4.182h4.182v4.182zm117.091-4.182V8.364h4.182v4.182zm-4.182 0V8.364h4.182v4.182zm-4.182 0V8.364h4.182v4.182zm-16.727 0V8.364h4.182v4.182zm-4.182 0V8.364h4.182v4.182zm-4.182 0V8.364h4.182v4.182zm-4.182 0V8.364H92v4.182zm-8.364 0V8.364h4.182v4.182zm-4.182 0V8.364h4.182v4.182zm-16.727 0V8.364h4.182v4.182zm-4.182 0V8.364h4.182v4.182zm-12.545 0V8.364H46v4.182zm-4.182 0V8.364h4.182v4.182zm-4.182 0V8.364h4.182v4.182zm-16.727 0V8.364h4.182v4.182zm-4.182 0V8.364h4.182v4.182zm-4.182 0V8.364h4.182v4.182zm87.824-4.181V4.182h4.182v4.182zm-8.364 0V4.182H92v4.182zm-8.364 0V4.182h4.182v4.182zm-4.182 0V4.182h4.182v4.182zm-4.182 0V4.182h4.182v4.182zm-12.545 0V4.182h4.182v4.182zm-4.182 0V4.182h4.182v4.182zm-4.182 0V4.182h4.182v4.182zm-4.181 0V4.182h4.182v4.182zm-4.182 0V4.182H46v4.182zm-8.364 0V4.182h4.182v4.182zm66.909-4.182V0h4.182v4.182zm-12.545 0V0H92v4.182zm-12.545 0V0h4.182v4.182zm-8.364 0V0h4.182v4.182zm-16.727 0V0h4.182v4.182zm-4.182 0V0h4.182v4.182z" transform="translate(-.25 -.25)" style="fill:none"/>
        </clipPath>
    </defs>
    <g data-name="qr">
        <path data-name="사각형 341578" style="fill:#fff" d="M0 0h150v150H0z"/>
        <g data-name="qr" transform="translate(6.25 6.25)" style="clip-path:url(#7g8wuvwq9a)">
            <path data-name="사각형 352481" d="M-.25-.25h140v140h-140z"/>
        </g>
    </g>
</svg>
