<svg xmlns="http://www.w3.org/2000/svg" width="121.002" height="29.499" viewBox="0 0 121.002 29.499">
    <path data-name="패스 856209" d="M70.461 100.554h-2.489l-1.364-4.287h-4.741l-1.3 4.287h-2.422l4.7-14.589h2.9zM66.2 94.468l-1.233-3.806q-.2-.586-.738-2.75h-.043c-.145.62-.373 1.537-.693 2.75l-1.211 3.806z" transform="translate(-24.144 -79.747)" style="fill:#191919"/>
    <path data-name="패스 856210" d="M74.883 93.1a5.987 5.987 0 0 1-1.449 4.242 4.248 4.248 0 0 1-3.227 1.386 3.223 3.223 0 0 1-2.986-1.494h-.045v5.542h-2.335V91.43q0-1.687-.089-3.463h2.057l.13 1.667h.043a4.157 4.157 0 0 1 6.655-.412 5.794 5.794 0 0 1 1.246 3.878zm-2.381.086a4.349 4.349 0 0 0-.691-2.532 2.393 2.393 0 0 0-2.036-1.041 2.425 2.425 0 0 0-1.569.574 2.661 2.661 0 0 0-.92 1.5 3.139 3.139 0 0 0-.11.712v1.755a2.807 2.807 0 0 0 .7 1.936 2.339 2.339 0 0 0 1.831.79 2.4 2.4 0 0 0 2.055-1.015 4.48 4.48 0 0 0 .738-2.682z" transform="translate(-16.566 -77.772)" style="fill:#191919"/>
    <path data-name="패스 856211" d="M80.488 93.1a5.978 5.978 0 0 1-1.451 4.242 4.243 4.243 0 0 1-3.225 1.386 3.227 3.227 0 0 1-2.988-1.494h-.041v5.542h-2.337V91.43q0-1.687-.089-3.463h2.057l.13 1.667h.045a4.157 4.157 0 0 1 6.655-.412 5.816 5.816 0 0 1 1.244 3.878zm-2.381.086a4.333 4.333 0 0 0-.693-2.532 2.386 2.386 0 0 0-2.034-1.044 2.431 2.431 0 0 0-1.572.574 2.684 2.684 0 0 0-.92 1.5 3.1 3.1 0 0 0-.106.712v1.755a2.8 2.8 0 0 0 .7 1.936 2.331 2.331 0 0 0 1.828.79 2.391 2.391 0 0 0 2.055-1.015 4.48 4.48 0 0 0 .742-2.679z" transform="translate(-10.138 -77.772)" style="fill:#191919"/>
    <path data-name="패스 856212" d="M86.173 96.58a3.891 3.891 0 0 1-1.293 3.029 5.745 5.745 0 0 1-3.974 1.278 6.932 6.932 0 0 1-3.782-.911l.542-1.947a6.4 6.4 0 0 0 3.378.933 3.2 3.2 0 0 0 2.059-.6 1.947 1.947 0 0 0 .732-1.593 2.027 2.027 0 0 0-.6-1.5 5.644 5.644 0 0 0-2.014-1.129q-3.831-1.428-3.83-4.182a3.708 3.708 0 0 1 1.343-2.951 5.3 5.3 0 0 1 3.566-1.143 7.1 7.1 0 0 1 3.312.691l-.585 1.906a5.745 5.745 0 0 0-2.791-.669 2.835 2.835 0 0 0-1.926.6 1.736 1.736 0 0 0-.585 1.321 1.781 1.781 0 0 0 .671 1.427 7.483 7.483 0 0 0 2.122 1.127 7.187 7.187 0 0 1 2.77 1.775 3.721 3.721 0 0 1 .885 2.538z" transform="translate(-2.373 -79.864)" style="fill:#191919"/>
    <path data-name="패스 856213" d="M88.334 91.009h-2.575v5.108q0 1.949 1.364 1.949a4.22 4.22 0 0 0 1.038-.108l.065 1.775a5.33 5.33 0 0 1-1.818.259 2.807 2.807 0 0 1-2.165-.844 4.151 4.151 0 0 1-.779-2.837v-5.3h-1.535v-1.755h1.535v-1.928l2.295-.691v2.619h2.575z" transform="translate(3.147 -78.968)" style="fill:#191919"/>
    <path data-name="패스 856214" d="M95.811 93.094a5.7 5.7 0 0 1-1.384 3.949 4.973 4.973 0 0 1-3.856 1.588 4.718 4.718 0 0 1-3.689-1.524 5.526 5.526 0 0 1-1.373-3.842 5.633 5.633 0 0 1 1.416-3.965 4.926 4.926 0 0 1 3.821-1.548 4.817 4.817 0 0 1 3.722 1.526 5.459 5.459 0 0 1 1.343 3.816zm-2.426.075a4.668 4.668 0 0 0-.626-2.475 2.312 2.312 0 0 0-2.1-1.25 2.341 2.341 0 0 0-2.141 1.25 4.754 4.754 0 0 0-.628 2.52 4.661 4.661 0 0 0 .628 2.472 2.4 2.4 0 0 0 4.22-.021 4.658 4.658 0 0 0 .646-2.496z" transform="translate(7.24 -77.68)" style="fill:#191919"/>
    <path data-name="패스 856215" d="M96.824 90a4.081 4.081 0 0 0-.738-.066 2.224 2.224 0 0 0-1.906.925 3.457 3.457 0 0 0-.583 2.061v5.473h-2.336l.019-7.146q0-1.8-.089-3.283h2.039l.086 1.995h.063a3.574 3.574 0 0 1 1.17-1.652 2.844 2.844 0 0 1 1.688-.559 3.736 3.736 0 0 1 .587.043z" transform="translate(13.726 -77.68)" style="fill:#191919"/>
    <path data-name="패스 856216" d="M103.663 92.7a5.39 5.39 0 0 1-.086 1.051h-7.014a3.018 3.018 0 0 0 1.019 2.361 3.5 3.5 0 0 0 2.295.728 7.8 7.8 0 0 0 2.834-.492l.367 1.61a8.846 8.846 0 0 1-3.527.642 5.117 5.117 0 0 1-3.843-1.428 5.241 5.241 0 0 1-1.4-3.83 5.951 5.951 0 0 1 1.3-3.928 4.5 4.5 0 0 1 3.678-1.674 3.93 3.93 0 0 1 3.443 1.674 5.6 5.6 0 0 1 .934 3.286zm-2.23-.6a3.132 3.132 0 0 0-.453-1.781 2.049 2.049 0 0 0-1.863-.965 2.223 2.223 0 0 0-1.861.946 3.458 3.458 0 0 0-.693 1.8z" transform="translate(17.34 -77.691)" style="fill:#191919"/>
    <g>
        <path data-name="패스 856207" d="M63.148 91.582a6.7 6.7 0 0 1 3.194-5.626 6.857 6.857 0 0 0-5.407-2.926c-2.275-.239-4.481 1.36-5.64 1.36-1.182 0-2.967-1.338-4.886-1.3a7.2 7.2 0 0 0-6.063 3.7c-2.618 4.539-.665 11.211 1.847 14.879 1.255 1.8 2.721 3.805 4.642 3.735 1.878-.077 2.582-1.2 4.85-1.2 2.245 0 2.9 1.2 4.863 1.153 2.015-.03 3.285-1.8 4.5-3.618a14.783 14.783 0 0 0 2.058-4.19 6.485 6.485 0 0 1-3.958-5.967z" transform="translate(-43.103 -75.907)" style="fill:#191919"/>
        <path data-name="패스 856208" d="M52.749 84.6a6.581 6.581 0 0 0 1.506-4.716 6.7 6.7 0 0 0-4.334 2.242 6.265 6.265 0 0 0-1.545 4.543 5.535 5.535 0 0 0 4.373-2.069z" transform="translate(-36.405 -79.881)" style="fill:#191919"/>
    </g>
</svg>
