<svg xmlns="http://www.w3.org/2000/svg" width="129" height="26.732" viewBox="0 0 129 26.732">
    <defs>
        <linearGradient id="iorwnq9ffb" x1="-10.356" y1="10.318" x2="-10.261" y2="10.318" gradientUnits="objectBoundingBox">
            <stop offset="0" stop-color="gold"/>
            <stop offset=".043" stop-color="#fed200"/>
            <stop offset=".467" stop-color="#fca904"/>
            <stop offset=".8" stop-color="#fa8f07"/>
            <stop offset="1" stop-color="#fa8608"/>
        </linearGradient>
        <linearGradient id="d5x27pnq2d" x1="-4.493" y1="4.252" x2="-4.445" y2="4.252" gradientUnits="objectBoundingBox">
            <stop offset="0" stop-color="#e82b36"/>
            <stop offset="1" stop-color="#b4005a"/>
        </linearGradient>
        <linearGradient id="350v44wahf" x1="-4.342" y1="4.941" x2="-4.294" y2="4.941" gradientUnits="objectBoundingBox">
            <stop offset="0" stop-color="#2f8e5b"/>
            <stop offset=".39" stop-color="#4ea157"/>
            <stop offset=".768" stop-color="#67b054"/>
            <stop offset="1" stop-color="#70b653"/>
        </linearGradient>
        <clipPath id="zgknnaajva">
            <path data-name="패스 856203" d="m53.821 64.579-4.3-4.305v-.3l4.3-4.3 5.2 2.952c1.456.827 1.456 2.18 0 3.008l-5.1 2.895-.1.057" transform="translate(-49.522 -55.667)" style="fill:none"/>
        </clipPath>
        <clipPath id="iwa6dy7vzc">
            <path data-name="패스 856204" d="m60.579 62.236-4.4-4.4L43.2 70.82a1.7 1.7 0 0 0 2.166.066l15.216-8.649" transform="translate(-43.197 -57.837)" style="fill:none"/>
        </clipPath>
        <clipPath id="t13f9flhqe">
            <path data-name="패스 856205" d="m60.579 60.31-15.216-8.649a1.7 1.7 0 0 0-2.166.064l12.985 12.983 4.4-4.4" transform="translate(-43.197 -51.312)" style="fill:none"/>
        </clipPath>
    </defs>
    <path d="M89.1 61.587a4.746 4.746 0 1 0 4.782 4.746 4.688 4.688 0 0 0-4.782-4.746m0 7.622a2.883 2.883 0 1 1 2.688-2.876 2.753 2.753 0 0 1-2.688 2.875zm-10.432-7.622a4.746 4.746 0 1 0 4.784 4.746 4.687 4.687 0 0 0-4.784-4.746zm0 7.622a2.883 2.883 0 1 1 2.688-2.876 2.752 2.752 0 0 1-2.688 2.875zm-12.417-6.166v2.012h4.839a4.2 4.2 0 0 1-1.1 2.535 4.968 4.968 0 0 1-3.738 1.472 5.357 5.357 0 0 1 0-10.713A5.174 5.174 0 0 1 69.9 59.79l1.425-1.421a7.072 7.072 0 0 0-5.073-2.03 7.371 7.371 0 1 0 0 14.74 6.78 6.78 0 0 0 5.163-2.067 7.269 7.269 0 0 0 1.644-5.967zm50.771 1.562a4.424 4.424 0 0 0-4.08-3.019 4.518 4.518 0 0 0-4.495 4.746 4.654 4.654 0 0 0 4.729 4.746 4.74 4.74 0 0 0 3.972-2.1l-1.624-1.081a2.715 2.715 0 0 1-2.348 1.314 2.432 2.432 0 0 1-2.312-1.437l6.375-2.625zm-6.5 1.584a2.607 2.607 0 0 1 2.491-2.768 1.838 1.838 0 0 1 1.767 1.006zm-5.181 4.6h2.1V56.841h-2.1zm-3.431-8.142h-.073a3.3 3.3 0 0 0-2.507-1.061 4.749 4.749 0 0 0 0 9.491A3.247 3.247 0 0 0 101.839 70h.073v.681c0 1.817-.975 2.788-2.546 2.788a2.634 2.634 0 0 1-2.4-1.69l-1.823.756a4.544 4.544 0 0 0 4.223 2.8c2.458 0 4.532-1.439 4.532-4.943v-8.52h-1.986zm-2.4 6.56a2.885 2.885 0 0 1 0-5.752 2.9 2.9 0 0 1 0 5.752zm27.322-12.367h-5.011v13.95h2.09V65.5h2.922a4.339 4.339 0 1 0 0-8.663zm.053 6.723h-2.974v-4.78h2.974a2.391 2.391 0 1 1 0 4.781zm12.924-2a3.931 3.931 0 0 0-3.731 2.133l1.856.771a1.983 1.983 0 0 1 1.909-1.024 2.015 2.015 0 0 1 2.2 1.8v.143a4.644 4.644 0 0 0-2.18-.538c-2 0-4.036 1.094-4.036 3.14a3.229 3.229 0 0 0 3.478 3.069 2.955 2.955 0 0 0 2.668-1.364h.071v1.077h2.019v-5.352c-.001-2.476-1.863-3.855-4.253-3.855zm-.254 7.643c-.686 0-1.64-.341-1.64-1.184 0-1.077 1.189-1.49 2.215-1.49a3.747 3.747 0 0 1 1.911.466 2.531 2.531 0 0 1-2.485 2.208zm11.858-7.34-2.4 6.048h-.073l-2.487-6.048H144.2l3.731 8.452-2.129 4.7h2.185l5.748-13.154zm-18.832 8.924h2.09V56.841h-2.09z" transform="translate(-24.74 -52.338)" style="fill:#191919"/>
    <path data-name="패스 856202" d="M43.443 51.551a2.078 2.078 0 0 0-.48 1.46V76a2.071 2.071 0 0 0 .48 1.46l.076.076 12.909-12.881v-.3L43.519 51.477l-.076.074" transform="translate(-42.963 -51.138)" style="fill:#40bff2"/>
    <g data-name="그룹 481842" transform="translate(13.412 8.91)" style="clip-path:url(#zgknnaajva)">
        <path data-name="사각형 348815" transform="translate(-.001 .001)" style="fill:url(#iorwnq9ffb)" d="M0 0h10.952v8.911H0z"/>
    </g>
    <g data-name="그룹 481844" transform="translate(.48 13.335)" style="clip-path:url(#iwa6dy7vzc)">
        <path data-name="사각형 348816" transform="rotate(-45 4.792 11.57)" style="fill:url(#d5x27pnq2d)" d="M0 0h21.874v21.874H0z"/>
    </g>
    <g data-name="그룹 481846" transform="translate(.48)" style="clip-path:url(#t13f9flhqe)">
        <path data-name="사각형 348817" transform="rotate(-44.998 4.602 11.49)" style="fill:url(#350v44wahf)" d="M0 0h21.874v21.874H0z"/>
    </g>
</svg>
