<svg xmlns="http://www.w3.org/2000/svg" width="240" height="240" viewBox="0 0 240 240">
    <defs>
        <clipPath id="fytztr93da">
            <path data-name="합치기 91" d="M206.667 220v-6.667h6.667V220zm-13.333 0v-6.667H200V220zM160 220v-6.667h6.667V220zm-13.333 0v-6.667h6.667V220zM140 220v-6.667h6.667V220zm-13.333 0v-6.667h6.667V220zm-13.333 0v-6.667H120V220zM80 220v-6.667h6.667V220zm-6.667 0v-6.667H80V220zm-6.667 0v-6.667h6.667V220zM60 220v-6.667h6.667V220zm-60 0v-46.667h46.667V220zm6.667-6.667H40V180H6.667zm186.667 0v-6.667H200v6.667zm-6.667 0v-6.667h6.667v6.667zm-26.667 0v-6.667h6.667v6.667zm-6.667 0v-6.667H160v6.667zm-6.667 0v-6.667h6.667v6.667zm-20 0v-6.667h6.667v6.667zm-13.333 0v-6.667H120v6.667zm-26.667 0v-6.667h6.667v6.667zm-6.667 0v-6.667h6.667v6.667zm-6.667 0v-6.667H80v6.667zm-6.667 0v-6.667h6.667v6.667zm-13.333 0v-6.667H60v6.667zm160-6.667V200H220v6.667zm-13.333 0V200h6.667v6.667zm-6.667 0V200H200v6.667zm-6.667 0V200h6.667v6.667zm-6.667 0V200h6.667v6.667zm-33.333 0V200h6.667v6.667zm-13.333 0V200H140v6.667zm-13.333 0V200h6.667v6.667zm-13.333 0V200h6.667v6.667zm-6.667 0V200h6.667v6.667zm-6.667 0V200H100v6.667zm-33.333 0V200h6.667v6.667zm-6.667 0V200H60v6.667zm-26.667 0V200h6.667v6.667zm-6.667 0V200h6.667v6.667zm-6.667 0V200H20v6.667zM206.667 200v-6.667h6.667V200zM200 200v-6.667h6.667V200zm-6.667 0v-6.667H200V200zM180 200v-6.667h6.667V200zm-13.333 0v-6.667h6.667V200zm-13.333 0v-6.667H160V200zM140 200v-6.667h6.667V200zm-6.667 0v-6.667H140V200zm-20 0v-6.667H120V200zm-6.667 0v-6.667h6.667V200zM100 200v-6.667h6.667V200zm-6.667 0v-6.667H100V200zm-6.667 0v-6.667h6.667V200zM80 200v-6.667h6.667V200zm-6.667 0v-6.667H80V200zm-6.667 0v-6.667h6.667V200zM60 200v-6.667h6.667V200zm-33.333 0v-6.667h6.667V200zM20 200v-6.667h6.667V200zm-6.667 0v-6.667H20V200zm200-6.667v-6.667H220v6.667zm-6.667 0v-6.667h6.667v6.667zm-20 0v-6.667h6.667v6.667zm-6.667 0v-6.667h6.667v6.667zm-6.667 0v-6.667H180v6.667zm-6.667 0v-6.667h6.667v6.667zm-6.667 0v-6.667h6.667v6.667zm-13.333 0v-6.667h6.667v6.667zm-20 0v-6.667h6.667v6.667zm-6.667 0v-6.667h6.667v6.667zm-6.667 0v-6.667H120v6.667zm-6.667 0v-6.667h6.667v6.667zm-26.667 0v-6.667h6.667v6.667zm-13.333 0v-6.667h6.667v6.667zm-40 0v-6.667h6.667v6.667zm-6.667 0v-6.667h6.667v6.667zm-6.667 0v-6.667H20v6.667zm193.333-6.667V180h6.667v6.667zm-6.667 0V180h6.667v6.667zm-6.667 0V180H200v6.667zm-6.667 0V180h6.667v6.667zm-26.667 0V180h6.667v6.667zm-6.667 0V180H160v6.667zm-6.667 0V180h6.667v6.667zm-13.333 0V180H140v6.667zm-13.333 0V180h6.667v6.667zm-20 0V180h6.667v6.667zm-6.667 0V180H100v6.667zm-6.667 0V180h6.667v6.667zm-13.333 0V180H80v6.667zm-6.667 0V180h6.667v6.667zm-6.667 0V180h6.667v6.667zM206.667 180v-6.667h6.667V180zM200 180v-6.667h6.667V180zm-13.333 0v-6.667h6.667V180zm-13.333 0v-6.667H180V180zM160 180v-6.667h6.667V180zm-6.667 0v-6.667H160V180zm-6.667 0v-6.667h6.667V180zM140 180v-6.667h6.667V180zm-13.333 0v-6.667h6.667V180zm-13.333 0v-6.667H120V180zm-6.667 0v-6.667h6.667V180zM100 180v-6.667h6.667V180zm-6.667 0v-6.667H100V180zm-26.667 0v-6.667h6.667V180zM60 180v-6.667h6.667V180zm153.333-6.667v-6.667H220v6.667zm-13.333 0v-6.667h6.667v6.667zm-13.333 0v-6.667h6.667v6.667zm-26.667 0v-6.667h6.667v6.667zm-13.333 0v-6.667h6.667v6.667zm-6.667 0v-6.667h6.667v6.667zm-33.333 0v-6.667h6.667v6.667zm-6.667 0v-6.667h6.667v6.667zm-13.333 0v-6.667h6.667v6.667zm-6.667 0v-6.667h6.667v6.667zm-13.333 0v-6.667h6.667v6.667zm140-6.667V160h6.667v6.667zm-6.667 0V160h6.667v6.667zm-6.667 0V160H200v6.667zm-6.667 0V160h6.667v6.667zm-6.667 0V160h6.667v6.667zm-6.667 0V160H180v6.667zm-6.667 0V160h6.667v6.667zm-6.667 0V160h6.667v6.667zm-6.667 0V160H160v6.667zm-6.667 0V160h6.667v6.667zm-13.333 0V160H140v6.667zm-6.667 0V160h6.667v6.667zm-26.667 0V160h6.667v6.667zm-13.333 0V160h6.667v6.667zm-13.333 0V160H80v6.667zm-20 0V160H60v6.667zm-6.667 0V160h6.667v6.667zm-6.667 0V160h6.667v6.667zm-20 0V160h6.667v6.667zm-6.667 0V160H20v6.667zm-6.667 0V160h6.667v6.667zM213.333 160v-6.667H220V160zm-6.667 0v-6.667h6.667V160zM200 160v-6.667h6.667V160zm-6.667 0v-6.667H200V160zm-6.667 0v-6.667h6.667V160zM180 160v-6.667h6.667V160zm-6.667 0v-6.667H180V160zM160 160v-6.667h6.667V160zm-6.667 0v-6.667H160V160zm-6.667 0v-6.667h6.667V160zM140 160v-6.667h6.667V160zm-26.667 0v-6.667H120V160zm-6.667 0v-6.667h6.667V160zM100 160v-6.667h6.667V160zm-20 0v-6.667h6.667V160zm-6.667 0v-6.667H80V160zm-6.667 0v-6.667h6.667V160zM60 160v-6.667h6.667V160zm-13.333 0v-6.667h6.667V160zm-40 0v-6.667h6.667V160zM0 160v-6.667h6.667V160zm206.667-6.667v-6.667h6.667v6.667zm-13.333 0v-6.667H200v6.667zm-6.667 0v-6.667h6.667v6.667zm-13.333 0v-6.667H180v6.667zm-6.667 0v-6.667h6.667v6.667zm-6.667 0v-6.667h6.667v6.667zm-13.333 0v-6.667h6.667v6.667zm-6.667 0v-6.667h6.667v6.667zm-33.333 0v-6.667h6.667v6.667zm-20 0v-6.667h6.667v6.667zm-6.667 0v-6.667h6.667v6.667zm-40 0v-6.667h6.667v6.667zm-6.667 0v-6.667H40v6.667zm-13.333 0v-6.667h6.667v6.667zm-13.333 0v-6.667h6.667v6.667zm-6.667 0v-6.667h6.667v6.667zm213.333-6.667V140H220v6.667zm-33.333 0V140h6.667v6.667zm-40 0V140h6.667v6.667zm-6.667 0V140H140v6.667zm-13.333 0V140h6.667v6.667zm-13.333 0V140h6.667v6.667zm-6.667 0V140h6.667v6.667zm-13.333 0V140h6.667v6.667zm-26.667 0V140h6.667v6.667zm-6.667 0V140H60v6.667zm-46.667 0V140h6.667v6.667zM213.333 140v-6.667H220V140zm-6.667 0v-6.667h6.667V140zM200 140v-6.667h6.667V140zm-6.667 0v-6.667H200V140zm-6.667 0v-6.667h6.667V140zM180 140v-6.667h6.667V140zm-6.667 0v-6.667H180V140zm-20 0v-6.667H160V140zm-6.667 0v-6.667h6.667V140zM140 140v-6.667h6.667V140zm-20 0v-6.667h6.667V140zm-6.667 0v-6.667H120V140zm-6.667 0v-6.667h6.667V140zM100 140v-6.667h6.667V140zm-26.667 0v-6.667H80V140zM60 140v-6.667h6.667V140zm-20 0v-6.667h6.667V140zm-6.667 0v-6.667H40V140zm-6.667 0v-6.667h6.667V140zm-20 0v-6.667h6.667V140zM0 140v-6.667h6.667V140zm173.333-6.667v-6.667H180v6.667zm-6.667 0v-6.667h6.667v6.667zm-6.667 0v-6.667h6.667v6.667zm-20 0v-6.667h6.667v6.667zm-40 0v-6.667h6.667v6.667zm-6.667 0v-6.667H100v6.667zm-6.667 0v-6.667h6.667v6.667zm-6.667 0v-6.667h6.667v6.667zm-20 0v-6.667h6.667v6.667zm-13.333 0v-6.667h6.667v6.667zm-13.333 0v-6.667H40v6.667zm-33.332 0v-6.667h6.667v6.667zm213.333-6.667V120H220v6.667zm-46.667 0V120h6.667v6.667zm-20 0V120h6.667v6.667zm-6.667 0V120h6.667v6.667zm-6.667 0V120H140v6.667zm-6.667 0V120h6.667v6.667zm-6.667 0V120h6.667v6.667zm-20 0V120h6.667v6.667zm-6.667 0V120H100v6.667zm-6.667 0V120h6.667v6.667zm-6.667 0V120h6.667v6.667zm-6.667 0V120H80v6.667zm-13.333 0V120h6.667v6.667zm-6.667 0V120H60v6.667zm-6.667 0V120h6.667v6.667zm-6.667 0V120h6.667v6.667zm-33.333 0V120h6.667v6.667zm-6.667 0V120h6.671v6.667zM213.333 120v-6.667H220V120zm-6.667 0v-6.667h6.667V120zm-20 0v-6.667h6.667V120zM180 120v-6.667h6.667V120zm-20 0v-6.667h6.667V120zm-20 0v-6.667h6.667V120zm-26.667 0v-6.667H120V120zM100 120v-6.667h6.667V120zm-6.667 0v-6.667H100V120zm-6.667 0v-6.667h6.667V120zm-20 0v-6.667h6.667V120zm-13.333 0v-6.667H60V120zm-6.667 0v-6.667h6.667V120zm-33.333 0v-6.667H20V120zM0 120v-6.667h6.667V120zm180-6.667v-6.667h6.667v6.667zm-20 0v-6.667h6.667v6.667zm-6.667 0v-6.667H160v6.667zm-33.333 0v-6.667h6.667v6.667zm-6.667 0v-6.667H120v6.667zm-6.667 0v-6.667h6.667v6.667zm-26.667 0v-6.667h6.667v6.667zm-13.333 0v-6.667h6.667v6.667zm-6.667 0v-6.667h6.667v6.667zm-20 0v-6.667h6.667v6.667zm-6.667 0v-6.667H40v6.667zm-13.333 0v-6.667h6.667v6.667zm-13.333 0v-6.667h6.667v6.667zM200 106.667V100h6.667v6.667zm-13.333 0V100h6.667v6.667zm-6.667 0V100h6.667v6.667zm-6.667 0V100H180v6.667zm-6.667 0V100h6.667v6.667zm-20 0V100h6.667v6.667zm-6.667 0V100h6.667v6.667zm-6.667 0V100H140v6.667zm-6.667 0V100h6.667v6.667zm-6.667 0V100h6.667v6.667zm-6.667 0V100H120v6.667zm-6.667 0V100h6.667v6.667zm-13.333 0V100H100v6.667zm-33.333 0V100h6.667v6.667zm-13.333 0V100h6.667v6.667zm-13.333 0V100H40v6.667zm-20 0V100H20v6.667zm-6.667 0V100h6.667v6.667zm-6.667 0V100h6.669v6.667zM193.333 100v-6.667H200V100zM180 100v-6.667h6.667V100zm-13.333 0v-6.667h6.667V100zm-20 0v-6.667h6.667V100zm-13.333 0v-6.667H140V100zm-6.667 0v-6.667h6.667V100zM120 100v-6.667h6.667V100zm-6.667 0v-6.667H120V100zm-6.667 0v-6.667h6.667V100zM100 100v-6.667h6.667V100zm-6.667 0v-6.667H100V100zm-20 0v-6.667H80V100zm-26.667 0v-6.667h6.667V100zM40 100v-6.667h6.667V100zm-20 0v-6.667h6.667V100zm-6.667 0v-6.667H20V100zm-6.667 0v-6.667h6.667V100zM0 100v-6.667h6.667V100zm213.333-6.667v-6.666H220v6.667zm-13.333 0v-6.666h6.667v6.667zm-6.667 0v-6.666H200v6.667zm-6.667 0v-6.666h6.667v6.667zm-6.667 0v-6.666h6.667v6.667zm-20 0v-6.666h6.667v6.667zm-6.667 0v-6.666H160v6.667zm-6.667 0v-6.666h6.667v6.667zm-26.667 0v-6.666h6.667v6.667zm-6.667 0v-6.666H120v6.667zm-6.667 0v-6.666h6.667v6.667zm-13.333 0v-6.666H100v6.667zm-13.331 0v-6.666h6.667v6.667zm-13.333 0v-6.666h6.667v6.667zm-6.667 0v-6.666h6.667v6.667zm-6.667 0v-6.666H60v6.667zm-20 0v-6.666H40v6.667zm-6.667 0v-6.666h6.667v6.667zm-13.333 0v-6.666H20v6.667zm173.333-6.667V80h6.667v6.667zm-13.333 0V80H180v6.667zm-6.667 0V80h6.667v6.667zm-13.333 0V80H160v6.667zm-33.333 0V80h6.667v6.667zm-13.333 0V80h6.667v6.667zm-20 0V80h6.667v6.667zm-6.667 0V80h6.667v6.667zm-13.333 0V80h6.667v6.667zm-13.333 0V80H60v6.667zM40 86.667V80h6.667v6.667zm-13.333 0V80h6.667v6.667zm-20 0V80h6.667v6.667zM200 80v-6.667h6.667V80zm-6.667 0v-6.667H200V80zM160 80v-6.667h6.667V80zm-13.333 0v-6.667h6.667V80zM140 80v-6.667h6.667V80zm-6.667 0v-6.667H140V80zm-6.667 0v-6.667h6.667V80zm-20 0v-6.667h6.667V80zm-13.333 0v-6.667H100V80zm-20 0v-6.667H80V80zm-26.666 0v-6.667h6.667V80zm-33.334 0v-6.667H20V80zm-6.666 0v-6.667h6.667V80zM200 73.333v-6.666h6.667v6.667zm-6.667 0v-6.666H200v6.667zm-13.333 0v-6.666h6.667v6.667zm-26.667 0v-6.666H160v6.667zm-6.667 0v-6.666h6.667v6.667zm-6.667 0v-6.666h6.667v6.667zm-6.667 0v-6.666H140v6.667zm-20 0v-6.666H120v6.667zm-6.667 0v-6.666h6.667v6.667zm-6.667 0v-6.666h6.667v6.667zm-6.667 0v-6.666H100v6.667zm-13.331 0v-6.666h6.667v6.667zm-6.667 0v-6.666H80v6.667zm-13.333 0v-6.666h6.667v6.667zm-20 0v-6.666h6.667v6.667zm-6.667 0v-6.666H40v6.667zm-6.667 0v-6.666h6.667v6.667zm-6.667 0v-6.666h6.667v6.667zm-13.333 0v-6.666h6.667v6.667zm206.667-6.667V60H220v6.667zm-6.667 0V60h6.667v6.667zm-6.667 0V60h6.667v6.667zm-6.667 0V60H200v6.667zm-6.667 0V60h6.667v6.667zm-26.667 0V60h6.667v6.667zm-6.667 0V60H160v6.667zm-6.667 0V60h6.667v6.667zm-33.333 0V60H120v6.667zm-6.667 0V60h6.667v6.667zM80 66.667V60h6.667v6.667zm-6.667 0V60H80v6.667zm-26.667 0V60h6.667v6.667zm-26.666 0V60h6.667v6.667zm-6.667 0V60H20v6.667zm-6.667 0V60h6.667v6.667zm200-6.667v-6.667h6.667V60zM200 60v-6.667h6.667V60zm-6.667 0v-6.667H200V60zM180 60v-6.667h6.667V60zm-13.333 0v-6.667h6.667V60zM120 60v-6.667h6.667V60zm-6.667 0v-6.667H120V60zm-26.666 0v-6.667h6.667V60zM80 60v-6.667h6.667V60zm-6.667 0v-6.667H80V60zm-6.667 0v-6.667h6.667V60zM60 60v-6.667h6.667V60zm-20 0v-6.667h6.667V60zm-26.667 0v-6.667H20V60zm-6.666 0v-6.667h6.667V60zM160 53.333v-6.666h6.667v6.667zm-40 0v-6.666h6.667v6.667zm-20 0v-6.666h6.667v6.667zm-13.333 0v-6.666h6.667v6.667zm-6.667 0v-6.666h6.667v6.667zm-6.667 0v-6.666H80v6.667zm-13.333 0v-6.666h6.667v6.667zm113.333-6.667V0H220v46.667zM180 40h33.333V6.667H180zm-20 6.667V40h6.667v6.667zm-13.333 0V40h6.667v6.667zm-13.333 0V40H140v6.667zm-13.333 0V40h6.667v6.667zm-13.333 0V40h6.667v6.667zm-13.333 0V40H100v6.667zm-13.335 0V40h6.667v6.667zm-13.333 0V40h6.667v6.667zm-13.333 0V40H60v6.667zM0 46.667V0h46.667v46.667zM6.667 40H40V6.667H6.667zm140 0v-6.667h6.667V40zM120 40v-6.667h6.667V40zm-13.333 0v-6.667h6.667V40zm-13.334 0v-6.667H100V40zm-6.667 0v-6.667h6.667V40zm-13.333 0v-6.667H80V40zM60 40v-6.667h6.667V40zm-6.667 0v-6.667H60V40zM200 33.333v-6.666h6.667v6.667zm-6.667 0v-6.666H200v6.667zm-6.667 0v-6.666h6.667v6.667zm-26.667 0v-6.666h6.667v6.667zm-6.667 0v-6.666H160v6.667zm-26.667 0v-6.666h6.667v6.667zm-6.667 0v-6.666h6.667v6.667zm-6.667 0v-6.666H120v6.667zm-6.667 0v-6.666h6.667v6.667zm-6.667 0v-6.666h6.667v6.667zm-6.667 0v-6.666H100v6.667zm-13.33 0v-6.666h6.667v6.667zm-53.333 0v-6.666h6.667v6.667zm-6.667 0v-6.666h6.667v6.667zm-6.667 0v-6.666H20v6.667zM200 26.667V20h6.667v6.667zm-6.667 0V20H200v6.667zm-6.667 0V20h6.667v6.667zm-80 0V20h6.667v6.667zm-6.667 0V20h6.667v6.667zm-20 0V20h6.667v6.667zm-6.667 0V20H80v6.667zm-6.667 0V20h6.667v6.667zm-6.667 0V20h6.667v6.667zm-6.667 0V20H60v6.667zm-26.667 0V20h6.667v6.667zm-6.667 0V20h6.667v6.667zm-6.667 0V20H20v6.667zM200 20v-6.667h6.667V20zm-6.667 0v-6.667H200V20zm-6.667 0v-6.667h6.667V20zM160 20v-6.667h6.667V20zm-6.667 0v-6.667H160V20zm-6.667 0v-6.667h6.667V20zM140 20v-6.667h6.667V20zm-13.333 0v-6.667h6.667V20zM120 20v-6.667h6.667V20zm-26.667 0v-6.667H100V20zm-6.667 0v-6.667h6.667V20zm-20 0v-6.667h6.667V20zM60 20v-6.667h6.667V20zm-6.667 0v-6.667H60V20zm-26.666 0v-6.667h6.667V20zM20 20v-6.667h6.667V20zm-6.667 0v-6.667H20V20zm140-6.667V6.667H160v6.667zm-13.333 0V6.667h6.667v6.667zm-13.333 0V6.667h6.667v6.667zm-6.667 0V6.667h6.667v6.667zm-6.667 0V6.667H120v6.667zm-20 0V6.667H100v6.667zm-6.667 0V6.667h6.667v6.667zm-6.667 0V6.667h6.667v6.667zm-6.667 0V6.667H80v6.667zm-6.667 0V6.667h6.667v6.667zm-13.333 0V6.667H60v6.667zM160 6.667V0h6.667v6.667zm-20 0V0h6.667v6.667zm-20 0V0h6.667v6.667zm-13.333 0V0h6.667v6.667zM80 6.667V0h6.667v6.667zm-6.667 0V0H80v6.667z" transform="translate(-.588 -.588)" style="fill:none"/>
        </clipPath>
    </defs>
    <path data-name="사각형 341578" style="fill:#fff" d="M0 0h240v240H0z"/>
    <g data-name="qr" transform="translate(10.588 10.588)" style="clip-path:url(#fytztr93da)">
        <path data-name="사각형 352481" d="M-.588-.588h224v224h-224z"/>
    </g>
</svg>
