<svg xmlns="http://www.w3.org/2000/svg" width="40" height="40" viewBox="0 0 40 40">
    <path data-name="패스 842423" d="M-418 189.807c.088-.5.155-1 .27-1.491a8.948 8.948 0 0 1 2.085-3.982 2.773 2.773 0 0 1 4.349.253c.99 1.444 1.954 2.907 2.88 4.392a2.645 2.645 0 0 1-.122 3.115 2.053 2.053 0 0 0 .247 2.93l4.026 4.023a2.04 2.04 0 0 0 2.868.223 2.727 2.727 0 0 1 3.164-.131c1.459.933 2.914 1.875 4.343 2.854a2.782 2.782 0 0 1 .226 4.406 9.143 9.143 0 0 1-5.227 2.268 1.72 1.72 0 0 0-.208.047h-1.362a1.243 1.243 0 0 0-.183-.042 9.125 9.125 0 0 1-5.755-2.712q-4.441-4.428-8.871-8.869a9.041 9.041 0 0 1-2.469-4.428c-.109-.474-.175-.958-.261-1.437z" transform="translate(426.335 -175.717)" style="fill:#191919"/>
</svg>
