<svg xmlns="http://www.w3.org/2000/svg" xmlns:xlink="http://www.w3.org/1999/xlink" width="80" height="80" viewBox="0 0 80 80">
  <defs>
    <filter id="합치기_42" x="26.5" y="54.997" width="27" height="18" filterUnits="userSpaceOnUse">
      <feOffset dy="2" input="SourceAlpha"/>
      <feGaussianBlur stdDeviation="1" result="blur"/>
      <feFlood flood-opacity="0.102"/>
      <feComposite operator="in" in2="blur"/>
      <feComposite in="SourceGraphic"/>
    </filter>
    <filter id="빼기_4" x="7.33" y="49.804" width="65.341" height="15.196" filterUnits="userSpaceOnUse">
      <feOffset dy="2" input="SourceAlpha"/>
      <feGaussianBlur stdDeviation="1" result="blur-2"/>
      <feFlood flood-opacity="0.102"/>
      <feComposite operator="in" in2="blur-2"/>
      <feComposite in="SourceGraphic"/>
    </filter>
  </defs>
  <g id="그룹_486222" data-name="그룹 486222" transform="translate(-235.332 -346.401)">
    <rect id="사각형_348692" data-name="사각형 348692" width="80" height="80" transform="translate(235.332 346.401)" fill="#fff" opacity="0"/>
    <g id="그룹_481582" data-name="그룹 481582" transform="translate(244.499 359.401)">
      <g id="그룹_481580" data-name="그룹 481580" transform="translate(0 0)">
        <g transform="matrix(1, 0, 0, 1, -9.17, -13)" filter="url(#합치기_42)">
          <path id="합치기_42-2" data-name="합치기 42" d="M0,11a.943.943,0,0,1,.03-.235L3.075,0h9.556V0H17.9l3.045,10.67A.987.987,0,0,1,21,11a1.023,1.023,0,0,1-1.047,1H1.127c-.022,0-.05,0-.076,0A1.026,1.026,0,0,1,0,11ZM20.944,10.674Zm-.019-.05a.1.1,0,0,0-.007-.014A.1.1,0,0,1,20.925,10.624Zm-.018-.041a1.01,1.01,0,0,0-.3-.371A1.013,1.013,0,0,1,20.907,10.583ZM.243,10.361a1.053,1.053,0,0,1,.6-.343A1.037,1.037,0,0,0,.243,10.361ZM20.6,10.208l-.03-.02Zm-.061-.042-.018-.01Zm-.046-.028-.012-.007Zm-.058-.031h0Zm-.046-.022-.009,0Zm-.068-.026h0Zm-.021-.006a0,0,0,0,1,0,0A0,0,0,0,0,20.3,10.055ZM20.016,10h0Zm-.04,0h0Z" transform="translate(29.5 56)" fill="#aeaae8"/>
        </g>
        <g id="그룹_481579" data-name="그룹 481579" transform="translate(0)">
          <rect id="사각형_348889" data-name="사각형 348889" width="60" height="46" rx="12" transform="translate(0.833)" fill="#e3e6f9"/>
          <g transform="matrix(1, 0, 0, 1, -9.17, -13)" filter="url(#빼기_4)">
            <path id="빼기_4-2" data-name="빼기 4" d="M48.823,9.2h-36a11.871,11.871,0,0,1-7.485-2.62A12.055,12.055,0,0,1,1.153,0H60.494a12.055,12.055,0,0,1-4.185,6.576A11.871,11.871,0,0,1,48.823,9.2Z" transform="translate(9.18 50.8)" fill="#aeaae8"/>
          </g>
          <g id="그룹_486221" data-name="그룹 486221" transform="translate(19.333 8.001)">
            <circle id="타원_24" data-name="타원 24" cx="12" cy="12" r="12" fill="#42ccb0"/>
            <g id="그룹_484097" data-name="그룹 484097" transform="translate(6.545 8.181)">
              <line id="선_442" data-name="선 442" x2="3.357" y2="3.394" transform="translate(0 4.242)" fill="none" stroke="#fff" stroke-linecap="round" stroke-linejoin="round" stroke-width="4"/>
              <line id="선_443" data-name="선 443" x1="7.554" y2="7.636" transform="translate(3.356)" fill="none" stroke="#fff" stroke-linecap="round" stroke-linejoin="round" stroke-width="4"/>
            </g>
          </g>
        </g>
      </g>
    </g>
  </g>
</svg>
