<svg id="icon_roaming" xmlns="http://www.w3.org/2000/svg" xmlns:xlink="http://www.w3.org/1999/xlink" width="80" height="80" viewBox="0 0 80 80">
  <defs>
    <filter id="타원_8820" x="7" y="9" width="66" height="66" filterUnits="userSpaceOnUse">
      <feOffset dy="2" input="SourceAlpha"/>
      <feGaussianBlur stdDeviation="1" result="blur"/>
      <feFlood flood-opacity="0.102"/>
      <feComposite operator="in" in2="blur"/>
      <feComposite in="SourceGraphic"/>
    </filter>
  </defs>
  <rect id="area" width="80" height="80" fill="#ff7676" opacity="0"/>
  <g id="그룹_493367" data-name="그룹 493367" transform="translate(-1789 -620)">
    <rect id="area-2" data-name="area" width="80" height="80" transform="translate(1789 620)" fill="#ff7676" opacity="0"/>
    <g id="그룹_493360" data-name="그룹 493360" transform="translate(-37 -25)">
      <g transform="matrix(1, 0, 0, 1, 1826, 645)" filter="url(#타원_8820)">
        <circle id="타원_8820-2" data-name="타원 8820" cx="30" cy="30" r="30" transform="translate(10 10)" fill="#fff"/>
      </g>
      <path id="빼기_29" data-name="빼기 29" d="M31.7,60h0V31.708H46.59A50.1,50.1,0,0,1,45.221,42a36.767,36.767,0,0,1-3.743,9.676,19.878,19.878,0,0,1-5.354,6.295A10.809,10.809,0,0,1,31.7,60Zm-3.4,0h0a10.821,10.821,0,0,1-4.422-2.026,19.884,19.884,0,0,1-5.354-6.295A37.033,37.033,0,0,1,14.775,42a50.329,50.329,0,0,1-1.364-10.3H28.3V60Zm12.8-1.975h0a26.552,26.552,0,0,0,3.327-4.637,39.812,39.812,0,0,0,3.958-9.978,53.556,53.556,0,0,0,1.609-11.7H60A30.18,30.18,0,0,1,41.692,57.79C41.5,57.874,41.3,57.958,41.1,58.025Zm-22.2,0c-.2-.067-.4-.151-.594-.234A30.149,30.149,0,0,1,0,31.708H10.005c.239,8.136,2.217,15.837,5.568,21.68A27.245,27.245,0,0,0,18.9,58.025ZM60,28.292H49.991a53.415,53.415,0,0,0-1.609-11.7,39.888,39.888,0,0,0-3.958-9.978,26.821,26.821,0,0,0-3.33-4.654,1.452,1.452,0,0,0,.216.084l.076.033c.1.033.207.084.307.117A30.158,30.158,0,0,1,60,28.292Zm-13.41,0H31.7V0a10.837,10.837,0,0,1,4.423,2.009A20.262,20.262,0,0,1,41.478,8.32,36.855,36.855,0,0,1,45.221,18a49.95,49.95,0,0,1,1.369,10.3Zm-18.291,0H13.411A50.313,50.313,0,0,1,14.775,18,36.769,36.769,0,0,1,18.522,8.32a20.064,20.064,0,0,1,5.354-6.311A10.854,10.854,0,0,1,28.3,0V28.292Zm-18.293,0H0a30.232,30.232,0,0,1,18.3-26.1l.3-.117.3-.117a26.922,26.922,0,0,0-3.329,4.654,40,40,0,0,0-3.958,9.978,53.415,53.415,0,0,0-1.61,11.7ZM52.67,5.307c-.222-.2-.466-.419-.741-.67.275.251.518.469.744.67Z" transform="translate(1836 655)" fill="#f76bb8"/>
    </g>
  </g>
</svg>
