<svg xmlns="http://www.w3.org/2000/svg" width="40" height="40" viewBox="0 0 40 40">
    <g data-name="그룹 482828">
        <path data-name="패스 863880" d="M301.4 460.356a1.986 1.986 0 0 0 2.782 0l13.328-12.908a3.981 3.981 0 0 0-2.718-1.08h-24a3.981 3.981 0 0 0-2.718 1.08z" transform="translate(-282.793 -438.368)" style="fill:#191919"/>
        <path data-name="패스 863881" d="M308.493 448.961a4.015 4.015 0 0 0-.2-1.186l-9.918 9.608 9.674 9.372a3.959 3.959 0 0 0 .442-1.794z" transform="translate(-272.492 -436.961)" style="fill:#191919"/>
        <path data-name="패스 863882" d="M287.633 447.776a3.993 3.993 0 0 0-.2 1.184v16a3.96 3.96 0 0 0 .444 1.794l9.672-9.372z" transform="translate(-283.434 -436.96)" style="fill:#191919"/>
        <path data-name="패스 863883" d="m307 453.276-1.664 1.61a3.987 3.987 0 0 1-5.566 0l-1.662-1.61-9.8 9.492a3.978 3.978 0 0 0 2.246.692h24a3.993 3.993 0 0 0 2.246-.69z" transform="translate(-282.557 -431.46)" style="fill:#191919"/>
    </g>
</svg>
