<svg xmlns="http://www.w3.org/2000/svg" width="22" height="22" viewBox="0 0 22 22">
    <g data-name="통화 아이콘">
        <g data-name="그룹 465558">
            <path data-name="패스 842423" d="M-418 187.215c.053-.3.093-.6.161-.888a5.329 5.329 0 0 1 1.241-2.371 1.651 1.651 0 0 1 2.59.15c.589.86 1.163 1.731 1.715 2.615a1.575 1.575 0 0 1-.073 1.855 1.223 1.223 0 0 0 .147 1.745l2.4 2.4a1.214 1.214 0 0 0 1.708.133 1.624 1.624 0 0 1 1.884-.078 95.92 95.92 0 0 1 2.586 1.7 1.657 1.657 0 0 1 .135 2.623 5.444 5.444 0 0 1-3.112 1.35 1.024 1.024 0 0 0-.124.028h-.811a.737.737 0 0 0-.109-.025 5.433 5.433 0 0 1-3.427-1.615q-2.645-2.637-5.283-5.281a5.384 5.384 0 0 1-1.47-2.637c-.065-.282-.1-.57-.155-.856z" transform="translate(421.463 -179.935)" style="fill:#7c40ce"/>
        </g>
    </g>
</svg>
